<?xml version="1.0" encoding="UTF-8" standalone="no"?>
<svg
   xmlns:dc="http://purl.org/dc/elements/1.1/"
   xmlns:cc="http://creativecommons.org/ns#"
   xmlns:rdf="http://www.w3.org/1999/02/22-rdf-syntax-ns#"
   xmlns:svg="http://www.w3.org/2000/svg"
   xmlns="http://www.w3.org/2000/svg"
   id="svg8"
   version="1.1"
   viewBox="0 0 230.1875 50.799999"
   height="192"
   width="870">
  <defs
     id="defs2" />
  <metadata
     id="metadata5">
    <rdf:RDF>
      <cc:Work
         rdf:about="">
        <dc:format>image/svg+xml</dc:format>
        <dc:type
           rdf:resource="http://purl.org/dc/dcmitype/StillImage" />
        <dc:title></dc:title>
      </cc:Work>
    </rdf:RDF>
  </metadata>
  <g
     transform="translate(-1.3229021,-130.99286)"
     id="layer1">
    <g
       id="g3703">
      <path
         id="path3707"
         d="m 171.79529,179.74198 -1.80051,-2.05087 -5.50784,-6.41113 -5.50783,-6.41114 -0.24685,-0.15256 -0.24686,-0.15257 v 6.97651 6.9765 l 0.34369,0.47001 0.34368,0.47002 1.63563,0.19285 1.63563,0.19286 0.16385,0.16385 0.16384,0.16384 -0.15413,0.2494 -0.15414,0.24939 -4.51087,-0.006 -4.51088,-0.006 -0.15788,-0.25546 -0.15788,-0.25545 0.36463,-0.23095 0.36462,-0.23095 0.94162,-0.004 0.94162,-0.004 0.43465,-0.33073 0.43464,-0.33073 0.27612,-7.98975 0.27612,-7.98974 -0.24428,-0.6425 -0.24427,-0.64249 -1.5404,-0.19159 -1.5404,-0.1916 -0.21129,-0.12941 -0.21128,-0.12941 0.30983,-0.37332 0.30983,-0.37332 h 2.72323 2.72324 l 6.79924,8.00365 6.79924,8.00365 0.23471,0.0882 0.23471,0.0882 -0.004,-7.09966 -0.004,-7.09965 -0.22959,-0.36243 -0.22959,-0.36242 -1.54909,-0.16674 -1.5491,-0.16674 -0.0888,-0.46303 -0.0887,-0.46302 h 4.13984 4.13984 l -0.0878,0.46302 -0.0878,0.46303 -1.1177,0.0811 -1.11769,0.0811 -0.40138,0.57305 -0.40138,0.57304 v 9.17991 9.17991 l -0.1606,0.41851 -0.1606,0.41851 h -0.35399 -0.35399 l -1.80051,-2.05087 z m -166.8153541,1.52694 -0.708591,-0.21388 -0.9310996,-0.71018 -0.9310995,-0.71019 -0.4195505,-1.10372 -0.4195505,-1.10372 0.074866,-18.52083 0.074866,-18.52083 0.5236169,-0.86591 0.5236169,-0.8659 1.0410051,-0.7216 1.0410051,-0.72159 15.0379822,-0.0745 15.037982,-0.0745 v -2.23557 -2.23557 l -0.595312,-0.13205 -0.595313,-0.13206 -0.926041,-0.0714 -0.926042,-0.0714 v -0.39687 -0.39688 l 5.387213,-0.21729 5.387216,-0.2173 1.964179,0.40056 1.964182,0.40055 1.426197,0.65293 1.426194,0.65294 1.198703,1.10492 1.1987,1.10492 0.672184,1.147 0.672185,1.147 0.424984,1.80668 0.424985,1.80668 -0.142034,1.76244 -0.142036,1.76244 -0.58151,1.13986 -0.581511,1.13986 -0.560332,0.76038 -0.560332,0.76039 -1.190625,0.87371 -1.190625,0.87371 -1.785938,0.6221 -1.785937,0.6221 v 13.17444 13.17444 l -0.501013,0.98165 -0.501012,0.98164 -0.500859,0.45293 -0.500859,0.45293 -0.974005,0.40697 -0.974005,0.40697 -17.93402,-0.0228 -17.9340192,-0.0227 z m 43.5528061,-33.62191 1.003948,-1.11125 0.508661,-1.14992 0.508662,-1.14991 0.158311,-1.69529 0.158308,-1.6953 -0.566195,-1.86408 -0.566198,-1.86407 -1.297567,-1.41975 -1.297567,-1.41974 -1.373068,-0.74732 -1.373069,-0.74732 -1.362554,-0.36279 -1.362554,-0.3628 -1.239546,-0.003 -1.239546,-0.003 -0.678683,0.25804 -0.678683,0.25803 v 2.22233 2.22233 l 2.182813,0.11894 2.182812,0.11894 0.84622,0.44313 0.846216,0.44312 0.741284,0.97098 0.74128,0.97097 0.08248,4.84718 0.08248,4.84719 0.993904,-0.50705 0.993905,-0.50706 z m 31.806001,33.08005 -0.756033,-0.22656 -0.537255,-0.4783 -0.537253,-0.4783 -0.360359,-0.8514 -0.360358,-0.85139 0.0058,-1.00069 0.0058,-1.00069 0.502566,-1.10693 0.502562,-1.10693 0.84863,-0.43885 0.84863,-0.43884 1.127244,-0.017 1.127247,-0.017 0.879824,0.51385 0.879827,0.51384 0.529079,0.90591 0.52908,0.90591 v 1.34302 1.34301 l -0.590944,0.95616 -0.590942,0.95617 -1.058609,0.42357 -1.058605,0.42357 -0.58996,-0.0227 -0.589958,-0.0228 -0.756033,-0.22656 z m 2.601757,-0.88816 0.631044,-0.63105 0.301191,-1.11854 0.301194,-1.11855 -0.175321,-1.03772 -0.175321,-1.03771 -0.671845,-0.79844 -0.671844,-0.79844 -0.930709,0.08 -0.930711,0.08 -0.538311,0.72405 -0.53831,0.72405 -0.0978,1.52491 -0.09781,1.52491 0.477542,0.92236 0.477538,0.92236 0.661458,0.33051 0.661459,0.33051 0.342754,0.004 0.342757,0.004 0.631045,-0.63104 z m 11.603752,0.97635 -0.57344,-0.1118 -0.663387,-0.6148 -0.663387,-0.61481 -0.318516,-1.06312 -0.318519,-1.06311 0.184169,-1.22812 0.184168,-1.22813 0.797632,-0.90845 0.797629,-0.90845 0.92829,-0.25631 0.928288,-0.25631 0.942904,0.31603 0.942903,0.31603 0.484024,0.66146 0.484023,0.66146 0.07041,0.66146 0.07041,0.66145 -2.579687,0.0757 -2.579688,0.0757 v 1.16629 1.16629 l 0.595726,0.69257 0.595728,0.69257 1.130001,0.15157 1.130003,0.15156 0.524852,-0.47498 0.524851,-0.47498 0.168373,0.16837 0.168373,0.16837 -0.368433,0.44426 -0.368432,0.44425 -0.851397,0.35589 -0.851398,0.35589 -0.471519,-0.036 -0.471519,-0.036 z m 2.779403,-6.4008 0.08929,-0.63154 -0.353878,-0.22431 -0.353877,-0.2243 -0.813777,-0.004 -0.813773,-0.004 -0.535927,0.59531 -0.535927,0.59532 -0.195069,0.34335 -0.195067,0.34335 1.809353,-0.0788 1.809353,-0.0788 0.0893,-0.63153 z m 3.482585,6.3494 -0.66146,-0.18252 -0.0821,-0.98173 -0.08212,-0.98174 h 0.28056 0.28055 v 0.26458 0.26459 l 0.52917,0.52916 0.52917,0.52917 h 0.76135 0.76135 l 0.31729,-0.38231 0.31729,-0.38232 -0.0864,-0.60571 -0.0865,-0.60571 -0.90118,-0.53333 -0.90119,-0.53333 -0.91672,-0.86541 -0.916728,-0.86541 0.165838,-0.82916 0.16583,-0.82917 0.29384,-0.35405 0.29383,-0.35404 1.02253,-0.27534 1.02253,-0.27534 0.86488,0.22293 0.86487,0.22293 0.0871,0.59892 0.0871,0.59892 -0.16788,0.4375 -0.16789,0.43751 -0.54944,-0.86778 -0.54944,-0.86778 -0.79827,0.0803 -0.79827,0.0803 -0.28991,0.46302 -0.28991,0.46303 0.28673,0.46302 0.28674,0.46302 1.51071,1.00797 1.51072,1.00797 0.28875,0.63375 0.28876,0.63375 -0.3472,0.83822 -0.3472,0.83822 -0.87197,0.36433 -0.87196,0.36433 -0.7361,-0.0264 -0.73611,-0.0264 -0.66145,-0.18251 z m 6.61458,0 -0.66146,-0.18252 -0.0821,-0.98173 -0.0821,-0.98174 0.2144,0.002 0.21441,0.002 0.45072,0.79208 0.45071,0.79208 h 0.90595 0.90595 l 0.3173,-0.38232 0.31729,-0.38231 -0.0865,-0.60571 -0.0865,-0.60571 -0.90118,-0.53333 -0.90118,-0.53333 -0.91673,-0.86541 -0.91672,-0.86541 0.16583,-0.82917 0.16584,-0.82916 0.29383,-0.35405 0.29383,-0.35405 0.96137,-0.25264 0.96136,-0.25264 0.92605,0.1944 0.92604,0.19439 0.0871,0.60476 0.0871,0.60475 -0.16789,0.43751 -0.16789,0.43751 -0.54944,-0.86778 -0.54944,-0.86779 -0.79827,0.0803 -0.79826,0.0803 -0.28992,0.46302 -0.28991,0.46302 0.28674,0.46302 0.28673,0.46303 1.51072,1.00797 1.51071,1.00797 0.28876,0.63375 0.28875,0.63375 -0.3472,0.83822 -0.3472,0.83822 -0.87196,0.36433 -0.87197,0.36433 -0.7361,-0.0264 -0.7361,-0.0264 -0.66146,-0.18251 z m 13.58183,-0.0551 -0.83796,-0.2426 -0.66737,-0.79313 -0.66737,-0.79312 -0.18231,-1.2157 -0.1823,-1.2157 0.2983,-0.99565 0.29831,-0.99565 0.69714,-0.69715 0.69715,-0.69715 0.97136,-0.26156 0.97136,-0.26156 0.87777,0.25174 0.87776,0.25174 0.65375,0.42835 0.65374,0.42835 0.53255,1.2039 0.53254,1.2039 -0.16799,1.05052 -0.16798,1.05052 -0.40685,0.78676 -0.40686,0.78677 -1.10693,0.50256 -1.10693,0.50257 -0.66146,-0.0181 -0.66146,-0.018 -0.83796,-0.2426 z m 2.64799,-0.78219 0.69076,-0.54335 0.2939,-1.09149 0.29391,-1.09148 -0.17126,-1.14203 -0.17126,-1.14203 -0.66895,-0.79501 -0.66896,-0.79501 h -0.88451 -0.8845 l -0.55854,0.7844 -0.55855,0.7844 -0.15261,1.28863 -0.15262,1.28863 0.54757,1.23787 0.54757,1.23788 0.6086,0.2442 0.60859,0.2442 0.29504,0.0168 0.29505,0.0168 0.69077,-0.54335 z m 57.3957,0.68025 -0.85468,-0.37155 -0.53339,-0.87486 -0.53339,-0.87486 -5.3e-4,-1.45521 -5.3e-4,-1.45521 0.46261,-0.90723 0.46261,-0.90724 0.7148,-0.52392 0.7148,-0.52393 1.2633,0.0191 1.2633,0.0191 0.86617,0.94516 0.86617,0.94516 v 0.66534 0.66535 h -2.64583 -2.64583 v 0.75427 0.75426 l 0.29327,0.84127 0.29326,0.84128 0.75193,0.38883 0.75192,0.38884 h 0.75632 0.75632 l 0.51359,-0.38846 0.51359,-0.38846 0.20775,-0.008 0.20775,-0.008 -0.26475,0.49468 -0.26474,0.49468 -0.90903,0.43136 -0.90903,0.43136 -0.62147,-0.0103 -0.62148,-0.0103 -0.85468,-0.37156 z m 3.32108,-6.04061 0.0908,-0.47171 -0.31882,-0.38416 -0.31883,-0.38417 h -0.90567 -0.90567 l -0.64943,0.64944 -0.64944,0.64943 v 0.25984 0.25985 l 0.8599,0.0829 0.85989,0.0829 0.9232,-0.13632 0.92319,-0.13632 z m 12.82766,6.10854 -0.25947,-0.33712 -1.42208,-3.28065 -1.42207,-3.28065 -0.47282,-0.12365 -0.47282,-0.12364 v -0.23373 -0.23372 h 4.10104 4.10104 v 0.26458 0.26459 h -0.52916 -0.52917 l -0.001,0.19843 -0.001,0.19844 0.8534,2.18281 0.8534,2.18282 h 0.18418 0.18418 l 0.68319,-2.05143 0.68319,-2.05142 v -0.32983 -0.32982 h -0.38126 -0.38127 l -0.16352,-0.26459 -0.16352,-0.26458 1.66926,0.008 1.66926,0.008 -0.52916,0.39335 -0.52917,0.39335 -1.45521,3.48182 -1.45521,3.48182 -0.26458,0.019 -0.26458,0.019 -0.84698,-2.11667 -0.84697,-2.11667 -0.21136,0.038 -0.21136,0.038 -0.80054,1.99722 -0.80054,1.99722 -0.15395,0.15394 -0.15394,0.15394 -0.25948,-0.33712 z m 1.4877,-3.78588 0.54789,-1.46437 -0.36678,-0.87784 -0.36678,-0.87783 -0.84522,-0.16905 -0.84522,-0.16904 -0.50723,0.27146 -0.50723,0.27146 0.35811,0.85073 0.35811,0.85074 0.60024,1.38906 0.60023,1.38907 h 0.21299 0.21299 z m 10.04961,3.68828 -0.94989,-0.39467 -0.57147,-1.01678 -0.57146,-1.01678 v -1.29103 -1.29101 l 0.49294,-0.92192 0.49295,-0.92191 0.86377,-0.50712 0.86378,-0.50712 h 1.12038 1.12039 l 0.93431,0.57744 0.93431,0.57743 0.42504,0.89571 0.42505,0.89571 v 1.30995 1.30995 l -0.60059,0.89902 -0.60059,0.89903 -0.92076,0.46261 -0.92077,0.46261 -0.79375,-0.0132 -0.79375,-0.0132 -0.94989,-0.39467 z m 2.54478,-0.42332 0.69375,-0.3161 0.37703,-0.7291 0.37704,-0.7291 v -1.56151 -1.56151 l -0.60586,-0.89902 -0.60585,-0.89903 h -1.03725 -1.03726 l -0.60585,0.89903 -0.60585,0.89902 v 1.42922 1.42922 l 0.39536,0.76455 0.39537,0.76455 0.58954,0.41294 0.58955,0.41293 h 0.19327 0.19326 z m -157.731233,0.26403 -0.131961,-0.21351 0.694605,-0.26409 0.694603,-0.26409 h 0.364649 0.364646 l 0.41188,-0.58804 0.411876,-0.58803 v -8.25989 -8.25989 l -0.330729,-0.20478 -0.330729,-0.20478 -1.054865,-0.14156 -1.054862,-0.14157 -0.08902,-0.46302 -0.08902,-0.46302 5.641797,0.0116 5.641795,0.0116 0.992725,0.35427 0.992725,0.35427 0.954304,0.72788 0.954302,0.72788 0.494556,1.08905 0.49456,1.08905 0.0058,1.21572 0.0058,1.21571 -0.859896,1.69432 -0.859895,1.69431 -1.058334,0.72612 -1.058333,0.72611 -1.371005,0.25618 -1.371007,0.25619 -1.274826,-0.36237 -1.274829,-0.36236 -0.595312,-0.18739 -0.595313,-0.18738 v 3.62012 3.62013 l 0.269354,0.50329 0.269354,0.5033 1.318146,0.17485 1.318146,0.17486 v 0.32615 0.32615 l -4.381878,-0.0149 -4.381878,-0.0149 -0.131959,-0.21352 z m 10.872094,-10.36496 1.050335,-0.56469 0.598959,-1.05758 0.598956,-1.05758 0.0044,-1.13298 0.0043,-1.13298 -0.360899,-0.86375 -0.360897,-0.86375 -0.837943,-0.70508 -0.837944,-0.70508 -0.983969,-0.27328 -0.983973,-0.27328 -0.992187,-0.002 -0.992188,-0.001 -0.536022,0.53602 -0.536019,0.53602 0.073,4.01641 0.073,4.0164 0.661458,0.18364 0.661458,0.18364 1.322917,-0.13724 1.322917,-0.13723 z m 6.893854,10.42785 -0.122391,-0.19803 0.653164,-0.2976 0.653161,-0.2976 v -2.48682 -2.48682 l -0.395767,-0.32845 -0.395766,-0.32846 0.991079,-0.91101 0.991079,-0.91101 0.08372,0.6779 0.08372,0.67791 h 0.05877 0.05877 l 0.986848,-0.50313 0.986851,-0.50312 0.506,0.13232 0.505999,0.13232 0.142291,0.3708 0.14229,0.37081 -0.16337,0.42573 -0.163372,0.42574 -1.270288,-0.16851 -1.270286,-0.16851 -0.288105,0.53833 -0.288105,0.53832 0.07642,2.3055 0.07642,2.3055 1.058333,0.31819 1.058334,0.31821 -0.132292,0.0546 -0.132292,0.0545 -2.184415,0.0702 -2.184416,0.0702 z m 15.20685,-0.0107 v -0.17976 l 0.661459,-0.30138 0.661458,-0.30138 v -2.49758 -2.49757 l -0.160599,-0.41852 -0.1606,-0.41851 h -0.500859 -0.500859 v -0.22211 -0.22212 l 0.661459,-0.30138 0.661458,-0.30138 0.0016,-0.60098 0.0016,-0.60099 0.277543,-0.99942 0.27754,-0.99942 0.803857,-0.91554 0.803854,-0.91554 1.009825,-0.30255 1.009824,-0.30255 0.68543,0.17203 0.685427,0.17203 v 0.53243 0.53243 l -0.372994,0.14313 -0.372996,0.14313 -0.820018,-0.42405 -0.82002,-0.42404 -0.549177,0.29391 -0.549178,0.29391 -0.374475,0.89624 -0.374475,0.89625 v 1.33141 1.33142 h 1.190625 1.190625 v 0.39687 0.39688 h -1.190625 -1.190625 v 2.9334 2.9334 l 0.79375,0.2996 0.79375,0.29961 v 0.17356 0.17356 l -2.116667,-0.009 -2.116667,-0.009 v -0.17976 z m 26.722915,0.012 v -0.1918 l 0.66146,-0.30138 0.66146,-0.30138 v -2.65151 -2.6515 h -0.39688 -0.39687 v -0.23787 -0.23787 l 1.06648,-0.55588 1.06648,-0.55588 h 0.12414 0.12415 v 3.55404 3.55404 l 0.52917,0.16796 0.52916,0.16795 v 0.20366 0.20366 l -1.98437,0.0128 -1.98438,0.0128 v -0.19181 z m 14.42874,0.0409 -0.13787,-0.13788 0.52748,-0.36946 0.52749,-0.36946 v -2.48539 -2.4854 l -0.4412,-0.2469 -0.44119,-0.2469 0.95677,-0.84006 0.95677,-0.84005 0.21203,0.0155 0.21202,0.0155 0.0331,0.26459 0.0331,0.26458 0.0331,0.29698 0.0331,0.29698 0.37123,-0.3081 0.37123,-0.30809 0.81431,-0.23354 0.81432,-0.23355 0.90248,0.24919 0.90248,0.24919 0.35937,0.43149 0.35937,0.43149 0.13229,2.93065 0.13229,2.93065 0.61872,0.30741 0.61871,0.30742 -0.22184,0.12665 -0.22184,0.12664 -1.65515,0.008 -1.65515,0.008 -0.12249,-0.19819 -0.12249,-0.19819 0.65316,-0.2976 0.65316,-0.2976 v -2.46034 -2.46035 l -0.43312,-0.61836 -0.43311,-0.61837 -1.20444,0.13576 -1.20444,0.13576 -0.34682,0.47431 -0.34682,0.4743 v 2.31178 2.31178 l 0.41578,0.41577 0.41577,0.41578 h 0.37798 0.37797 v 0.2393 0.2393 l -1.84481,-0.0115 -1.84482,-0.0116 z m 10.06412,-0.20424 -0.41577,-0.41577 v -0.73917 -0.73917 l 0.54041,-0.68703 0.54042,-0.68703 1.57625,-0.57473 1.57625,-0.57473 -0.004,-0.82444 -0.004,-0.82445 -0.19438,-0.29507 -0.19439,-0.29506 -0.55843,-0.17408 -0.55844,-0.17408 -0.57632,0.46915 -0.57632,0.46914 -0.3271,0.65912 -0.32709,0.65911 -0.45638,0.0879 -0.45638,0.0879 v -0.49906 -0.49907 l 0.72761,-0.69413 0.7276,-0.69412 0.74483,-0.28142 0.74483,-0.28141 h 0.77652 0.77653 l 0.52917,0.52916 0.52916,0.52917 v 2.8112 2.81119 l 0.79375,-0.15875 0.79375,-0.15875 v 0.38096 0.38095 l -0.51177,0.27389 -0.51177,0.27389 h -0.65996 -0.65995 l -0.3756,-0.3756 -0.3756,-0.3756 -0.76778,0.50615 -0.76777,0.50615 -0.841,0.002 -0.841,0.002 -0.41577,-0.41577 z m 3.40568,-1.2306 0.41188,-0.58803 v -0.99947 -0.99946 h -0.35775 -0.35775 l -0.89902,0.60441 -0.89902,0.6044 -0.0871,0.60546 -0.0871,0.60547 0.14491,0.37763 0.14491,0.37763 h 0.78705 0.78705 z m 3.97307,1.36451 -0.12929,-0.2092 0.59915,-0.187 0.59916,-0.18701 0.19438,-0.29506 0.19439,-0.29507 0.004,-5.0528 0.004,-5.0528 -0.59531,-0.27626 -0.59531,-0.27627 0.66146,-0.258 0.66146,-0.25801 0.59531,-0.18545 0.59531,-0.18545 v 5.98472 5.98472 l 0.80726,0.28141 0.80725,0.28141 -0.16769,0.16785 -0.16769,0.16784 -1.96932,0.0298 -1.96932,0.0298 -0.1293,-0.2092 z m 43.27006,-0.24729 -0.52917,-0.52917 v -2.77812 -2.77813 h -0.52916 -0.52917 v -0.24675 -0.24675 l 0.51754,-0.16427 0.51755,-0.16426 0.656,-0.77961 0.656,-0.77961 h 0.14937 0.14937 v 0.66146 0.66146 h 1.45521 1.45521 v 0.38305 0.38304 l -1.38906,0.08 -1.38907,0.08 -0.22778,2.21162 -0.22778,2.21161 0.28825,0.63266 0.28826,0.63265 h 1.1963 1.1963 v 0.22211 0.22212 l -0.67391,0.30705 -0.67391,0.30706 h -0.91359 -0.91359 z m 27.1179,0.26152 -0.11381,-0.18414 0.65316,-0.2976 0.65317,-0.2976 v -2.43224 -2.43223 l -0.37913,-0.41893 -0.37912,-0.41892 1.04058,-0.87362 1.04058,-0.87362 v 0.6764 0.6764 h 0.11717 0.11717 l 0.88138,-0.52003 0.88139,-0.52003 0.57064,0.14922 0.57065,0.14923 0.14229,0.3708 0.14229,0.37081 -0.16337,0.42573 -0.16337,0.42574 -1.28647,-0.17066 -1.28647,-0.17065 -0.26165,0.68818 -0.26165,0.68819 v 1.81322 1.81322 l 0.15784,0.41131 0.15784,0.41132 0.91283,0.17125 0.91283,0.17125 -0.16661,0.16668 -0.16661,0.16667 -2.10487,0.0244 -2.10487,0.0244 -0.11381,-0.18414 z m 6.48418,0.006 v -0.18224 l 0.66146,-0.30138 0.66146,-0.30138 v -5.28703 -5.28703 l -0.56098,-0.52263 -0.56098,-0.52263 0.99017,-0.41372 0.99016,-0.41372 h 0.23227 0.23228 v 4.36563 4.36562 h 0.27729 0.27729 l 1.47036,-0.94057 1.47035,-0.94058 -0.46574,-0.51463 -0.46574,-0.51464 h 1.89309 1.8931 v 0.0981 0.0981 l -1.71264,0.87841 -1.71264,0.87842 -0.70467,0.56187 -0.70466,0.56188 1.51483,1.43814 1.51483,1.43814 1.04339,0.70666 1.04339,0.70666 -0.20706,0.11544 -0.20707,0.11544 -1.78593,0.018 -1.78594,0.018 v -0.2165 -0.21649 l 0.44477,-0.17067 0.44477,-0.17068 -1.56097,-1.57742 -1.56096,-1.57743 h -0.20673 -0.20671 v 1.59603 1.59602 l 0.59531,0.23929 0.59531,0.23929 -0.13229,0.0562 -0.13229,0.0562 -1.78594,0.053 -1.78594,0.0529 v -0.18224 z m -107.11325,-10.55375 -0.35388,-0.22431 0.0893,-0.63154 0.0893,-0.63154 h 0.65783 0.65784 l 0.0916,0.47573 0.0916,0.47573 -0.31882,0.38417 -0.31883,0.38416 -0.16604,-0.004 -0.16604,-0.004 -0.35388,-0.22431 z m 14.92243,-7.06496 -0.41821,-0.41821 0.15034,-0.24325 0.15034,-0.24326 h 0.21811 0.21811 l 0.13838,0.52917 0.13838,0.52917 h 0.51293 0.51293 l 0.40658,-0.46302 0.40659,-0.46302 0.17682,-0.58083 0.17682,-0.58082 -0.94526,0.15339 -0.94526,0.1534 -0.52318,-0.47348 -0.52318,-0.47348 v -0.71173 -0.71174 l 0.48385,-0.43788 0.48386,-0.43788 h 0.82016 0.82016 l 0.41538,0.41538 0.41538,0.41537 0.16181,0.6447 0.16181,0.6447 -0.17041,0.90835 -0.17041,0.90835 -0.80506,0.67741 -0.80505,0.67741 h -0.62226 -0.62226 l -0.4182,-0.41821 z m 2.44416,-2.28055 0.3175,-0.3175 v -0.58691 -0.5869 l -0.1606,-0.41851 -0.1606,-0.41852 h -0.73714 -0.73713 l -0.1606,0.41852 -0.1606,0.41851 v 0.5869 0.58691 l 0.3175,0.3175 0.3175,0.3175 h 0.42333 0.42334 z m 2.2225,2.38125 -0.3175,-0.3175 v -0.34396 -0.34396 h 0.39687 0.39688 v 0.52917 0.52916 l 0.46302,-0.004 0.46302,-0.004 0.29112,-0.19439 0.29112,-0.19438 0.30419,-0.57792 0.30419,-0.57792 v -0.25721 -0.25721 l -0.52492,0.13727 -0.52492,0.13727 -0.65807,-0.16516 -0.65806,-0.16516 -0.27863,-0.52062 -0.27862,-0.52061 0.17434,-0.69465 0.17435,-0.69465 0.79562,-0.33453 0.79561,-0.33453 0.47452,0.12409 0.47451,0.12408 0.3767,0.43664 0.37669,0.43665 0.14313,0.58879 0.14313,0.58878 -0.27223,1.0725 -0.27223,1.0725 -0.66301,0.52152 -0.66302,0.52153 h -0.70515 -0.70515 l -0.3175,-0.3175 z m 2.30628,-2.30911 0.37483,-0.23726 v -0.85447 -0.85448 l -0.47752,-0.34917 -0.47753,-0.34918 -0.48949,0.26197 -0.48949,0.26197 -0.15792,0.62918 -0.15791,0.62918 0.29639,0.55381 0.29639,0.55381 0.45371,-0.004 0.45371,-0.004 0.37483,-0.23725 z m -54.991692,1.98876 -0.309782,-0.37327 -0.143386,-0.88359 -0.143388,-0.88359 0.57227,-0.72752 0.572267,-0.72752 h 0.733539 0.733539 l 0.437882,0.48386 0.437883,0.48385 v 0.44219 0.44219 h -1.322917 -1.322916 v 0.36756 0.36756 l 0.5061,0.62463 0.5061,0.62462 0.836216,-0.31507 0.836218,-0.31507 -0.316381,0.38122 -0.31638,0.38121 h -0.99354 -0.993539 z m 1.964782,-2.66945 v -0.52916 h -0.63115 -0.631148 l -0.226356,0.61189 -0.226356,0.6119 0.857506,-0.0827 0.857504,-0.0827 z m 1.727838,2.2574 0.008,-0.6699 0.264967,0.4546 0.264967,0.45459 0.454592,0.26635 0.454591,0.26636 -0.727604,-0.0511 -0.727605,-0.0511 0.008,-0.6699 z m 1.791121,0.46781 0.3175,-0.3175 v -0.20835 -0.20834 l -1.058334,-0.6681 -1.058333,-0.6681 v -0.47293 -0.47293 l 0.3175,-0.3175 0.3175,-0.3175 h 0.844817 0.844818 l 0.160599,0.41852 0.160599,0.41851 -0.0059,0.30909 -0.0059,0.30909 -0.479298,-0.62318 -0.479301,-0.62319 -0.485079,0.094 -0.485082,0.094 -0.09296,0.27926 -0.09296,0.27926 1.063225,0.59756 1.063226,0.59757 v 0.59161 0.59161 l -0.3175,0.3175 -0.3175,0.3175 h -0.264583 -0.264584 l 0.3175,-0.3175 z m 2.441236,-0.32536 -0.244419,-0.64287 0.154985,-0.95506 0.154985,-0.95506 -0.38593,-0.3203 -0.385931,-0.32031 0.614203,-0.58585 0.614204,-0.58586 v 0.51971 0.51971 l 0.727604,0.0209 0.727604,0.0209 -0.727604,0.26575 -0.727604,0.26574 v 1.24795 1.24795 l 0.296826,0.29683 0.296822,0.29682 0.408038,-0.15658 0.408038,-0.15658 -0.19131,0.30955 -0.191309,0.30955 h -0.652394 -0.652391 l -0.244417,-0.64287 z m 2.49415,0.0749 -0.167666,-0.52826 0.46173,-0.51021 0.461732,-0.5102 h 0.305297 0.305298 l 0.461846,-0.33771 0.461843,-0.33771 -0.174998,-0.45604 -0.175,-0.45604 h -0.470001 -0.470001 l -0.14534,0.55579 -0.145341,0.55578 -0.282393,-0.17453 -0.282392,-0.17452 v -0.37622 -0.37622 l 0.634547,-0.15926 0.634545,-0.15926 0.622226,0.0881 0.622223,0.0881 0.13244,1.66339 0.132443,1.66339 0.363945,0.22493 0.363945,0.22493 -1.741633,0.0101 -1.741631,0.01 -0.167664,-0.52827 z m 2.003246,-0.37527 0.258034,-0.67869 v -0.24735 -0.24736 h -0.235272 -0.235271 l -0.602599,0.48795 -0.602601,0.48796 0.168111,0.43808 0.168108,0.43809 h 0.411729 0.411726 z m 2.058495,-2.29835 -0.08067,-3.10939 0.463021,5e-4 0.463021,5e-4 v 1.26979 1.26979 l 0.90012,-0.10509 0.900121,-0.10508 0.585806,0.58581 0.585805,0.5858 -0.145459,1.08448 -0.14546,1.08448 -0.477978,0.34951 -0.477978,0.3495 -1.244841,-0.0756 -1.244843,-0.0756 z m 2.688148,2.46526 0.273891,-0.51178 v -0.69624 -0.69625 l -0.273891,-0.51177 -0.273894,-0.51177 h -0.466939 -0.466942 l -0.3175,0.3175 -0.3175,0.3175 v 1.2259 1.2259 l 0.17639,0.17639 0.176387,0.17639 h 0.608052 0.608052 z m 1.795246,0.60112 0.33073,-0.13345 v -2.60817 -2.60817 l -0.26458,-0.16352 -0.26459,-0.16352 v -0.24897 -0.24897 h 0.66146 0.66146 v 3.02066 3.02066 l 0.33073,0.13345 0.33073,0.13346 h -1.05834 -1.05833 z m 2.51354,-0.11054 0.46302,-0.26969 v -1.42891 -1.42892 l -0.46302,-0.26968 -0.46302,-0.26969 0.7276,-0.008 0.72761,-0.008 v 1.83004 1.83003 l 0.33073,0.13345 0.33073,0.13346 -1.05834,0.0128 -1.05833,0.0128 0.46302,-0.26968 z m 2.31511,-0.48631 v -0.65667 l 0.33072,0.38365 0.33073,0.38364 0.38319,0.33211 0.38318,0.33211 -0.71391,-0.0591 -0.71391,-0.0591 z m 1.78593,0.59685 0.33073,-0.13345 v -0.5114 -0.5114 l -0.91441,-0.43605 -0.91441,-0.43605 -0.14297,-0.37258 -0.14298,-0.37259 0.27295,-0.51 0.27294,-0.51 0.45371,0.0209 0.45371,0.0209 -0.33073,0.13345 -0.33072,0.13346 v 0.34869 0.34869 l 0.92604,0.54638 0.92604,0.54638 v 0.61746 0.61747 l -0.3175,0.3175 -0.3175,0.3175 -0.27781,-0.0209 -0.27782,-0.0209 z m 1.85209,0 0.33073,-0.13345 v -2.70316 -2.70316 l -0.3175,-0.3175 -0.3175,-0.3175 h 0.71437 0.71438 v 1.27961 1.27961 l 1.12447,-0.0228 1.12448,-0.0228 0.0803,1.71293 0.0803,1.71293 0.31657,0.20125 0.31656,0.20124 -0.92604,-0.0168 -0.92604,-0.0168 0.33073,-0.13345 0.33073,-0.13346 v -1.25029 -1.2503 l -0.38138,-0.51359 -0.38138,-0.51359 -0.47852,0.29515 -0.47851,0.29515 v 1.62356 1.62356 l -0.79375,-0.0214 -0.79375,-0.0214 0.33073,-0.13345 z m 5.46356,-0.0273 -0.29112,-0.19438 -0.32669,-0.61996 -0.32669,-0.61995 0.17541,-0.70296 0.1754,-0.70297 0.41727,-0.46302 0.41727,-0.46302 h 0.73384 0.73384 l 0.41578,0.41578 0.41577,0.41577 v 0.51027 0.51027 h -1.32291 -1.32292 v 0.36756 0.36756 l 0.5061,0.62463 0.5061,0.62462 0.83621,-0.31507 0.83622,-0.31507 -0.31638,0.38122 -0.31638,0.38121 -0.8275,-0.004 -0.8275,-0.004 -0.29112,-0.19439 z m 1.69859,-2.77407 -0.0845,-0.59531 h -0.66146 -0.66146 l -0.0845,0.59531 -0.0846,0.59531 h 0.83055 0.83056 z m 2.07665,2.64497 -0.45349,-0.3316 -0.15015,-0.92526 -0.15015,-0.92526 0.59151,-0.75198 0.59151,-0.75198 0.90972,0.10621 0.90973,0.10621 -0.0883,-1.27254 -0.0883,-1.27254 0.46302,1.7e-4 0.46303,1.6e-4 v 3.02066 3.02066 l 0.33072,0.13345 0.33073,0.13346 -0.7276,0.0209 -0.7276,0.0209 v -0.3175 -0.3175 l -0.3175,0.3175 -0.3175,0.3175 h -0.55798 -0.55797 l -0.45348,-0.3316 z m 1.93053,-0.44476 0.2739,-0.51178 -0.004,-0.87729 -0.004,-0.87729 -0.22431,-0.35387 -0.22431,-0.35388 -0.61372,0.0893 -0.61372,0.0893 -0.21297,0.79375 -0.21296,0.79375 0.28181,0.85989 0.28182,0.8599 h 0.49934 0.49934 l 0.27389,-0.51177 z m 5.89629,0.49058 0.46302,-0.26969 v -1.84724 -1.84724 l -0.44368,-0.17025 -0.44367,-0.17026 0.50982,-0.19972 0.50982,-0.19972 0.26459,-0.0186 0.26458,-0.0186 v 2.25859 2.25859 l 0.39688,0.25092 0.39687,0.25092 -1.19062,-0.004 -1.19063,-0.004 0.46302,-0.26969 z m 12.81025,0.10938 -0.17639,-0.17638 v -0.48508 -0.48506 h 0.39687 0.39688 v 0.50711 0.50712 l 0.33072,0.13345 0.33073,0.13346 -0.55121,0.0209 -0.55122,0.0209 -0.17638,-0.17639 z m 1.94027,-0.35277 0.52917,-0.52917 v -0.89773 -0.89774 l -0.3665,-0.14064 -0.3665,-0.14064 -0.55954,0.39192 -0.55954,0.39192 v -0.5111 -0.51109 l 0.16536,-0.82683 0.16536,-0.82682 h 0.84006 0.84005 l 0.34989,-0.33073 0.34988,-0.33073 -0.30461,0.59219 -0.3046,0.59219 -0.71997,0.17615 -0.71997,0.17616 -0.19438,0.28999 -0.19439,0.28999 -0.004,0.34003 -0.004,0.34004 0.54691,-0.29269 0.54691,-0.2927 0.64371,0.42178 0.64372,0.42178 v 0.74153 0.74153 l -0.61237,0.57529 -0.61236,0.57528 h -0.31368 -0.31368 l 0.52917,-0.52916 z m -33.07291,-2.36235 v -0.24569 l -0.41578,-0.41577 -0.41577,-0.41578 h 0.54806 0.54807 v 0.66146 0.66146 h -0.13229 -0.13229 z m -4.38964,-2.7642 -0.17365,-0.45253 0.16938,-0.16938 0.16939,-0.16939 0.31309,0.31309 0.31309,0.31309 -0.30882,0.30883 -0.30883,0.30882 z m 50.52768,-2.40141 -0.14744,-0.3842 0.17136,-0.27726 0.17135,-0.27725 h 0.75608 0.75609 l 0.38288,-1.12448 0.38288,-1.12448 -1.0228,-2.89015 -1.0228,-2.89014 -0.39636,-0.43798 -0.39637,-0.43798 v -0.1776 -0.17761 h 1.5875 1.5875 v 0.26459 0.26458 h -0.38126 -0.38126 l -0.14685,0.23761 -0.14686,0.23762 0.69229,2.07749 0.69229,2.07749 0.0892,0.099 0.0892,0.099 0.68012,-1.53787 0.68012,-1.53786 0.16267,-0.64816 0.16268,-0.64816 -0.63315,-0.48682 -0.63315,-0.48681 1.52136,-0.006 1.52135,-0.006 v 0.15603 0.15603 l -0.51269,0.43928 -0.5127,0.43929 -1.89013,4.49563 -1.89013,4.49564 -0.30915,0.19667 -0.30916,0.19666 -0.60361,0.004 -0.60362,0.004 z m -35.92425,-3.62739 -0.362,-0.8832 -2.83648,-6.87916 -2.83647,-6.87917 -0.84397,-1.97872 -0.84398,-1.97872 -1.24545,-0.35176 -1.24544,-0.35176 v -0.38805 -0.38805 l 4.29947,0.0727 4.29948,0.0727 v 0.39688 0.39687 l -1.13889,0.0821 -1.13889,0.0821 -0.13183,0.34355 -0.13184,0.34356 2.36923,5.92438 2.36923,5.92438 0.33303,0.72761 0.33303,0.7276 h 0.3261 0.32609 l 0.12563,-0.33073 0.12563,-0.33073 2.16847,-5.90033 2.16846,-5.90033 -0.083,-0.42131 -0.083,-0.42131 -0.39687,-0.20101 -0.39688,-0.20101 -1.05833,-0.22422 -1.05833,-0.22423 v -0.39687 -0.39688 l 3.77031,-0.0734 3.77031,-0.0734 v 0.51541 0.51541 l -0.79795,0.17526 -0.79795,0.17526 -0.4295,0.57337 -0.42949,0.57336 -3.73349,9.10747 -3.73349,9.10746 -0.3345,0.11011 -0.33449,0.11011 z m -60.988289,0.25165 -0.635952,-0.3411 -0.545224,-0.73435 -0.545222,-0.73434 v -1.39165 -1.39164 l 0.579363,-0.93743 0.579366,-0.93743 0.680406,-0.31002 0.680407,-0.31001 h 0.662147 0.662149 l 0.729099,0.37703 0.729101,0.37703 0.316093,0.69376 0.316095,0.69375 v 0.38442 0.38443 h -2.416088 -2.416088 l 0.145442,1.08434 0.145439,1.08434 0.596976,0.63545 0.596977,0.63545 h 1.12889 1.12889 l 0.16352,-0.26458 0.163521,-0.26459 h 0.309102 0.309102 l -0.681223,0.68122 -0.68122,0.68122 -1.032558,0.1229 -1.032557,0.12289 z m 2.466396,-4.86732 0.418515,-0.1606 v -0.60484 -0.60485 l -0.418515,-0.16059 -0.418513,-0.1606 h -0.620617 -0.620615 l -0.54837,0.69714 -0.54837,0.69714 v 0.2289 0.2289 h 1.168985 1.168987 z m 17.462428,4.25049 -0.407495,-0.97528 -1.026052,-2.22088 -1.026051,-2.22089 -0.412991,-0.15848 -0.412991,-0.15848 v -0.23627 -0.23628 h 3.704167 3.704167 v 0.26459 0.26458 h -0.529167 -0.529167 v 0.2384 0.2384 l 0.773052,1.81212 0.773054,1.81212 0.219134,-0.0727 0.219135,-0.0727 0.589579,-1.7478 0.589579,-1.7478 -0.142173,-0.23004 -0.142172,-0.23004 h -0.381262 -0.381259 v -0.26458 -0.26459 h 1.322917 1.322916 v 0.26459 0.26458 H 84.65315 84.375068 l -0.345964,0.8599 -0.345961,0.85989 -1.001136,2.4474 -1.001138,2.44739 h -0.203518 -0.20352 l -0.731933,-1.86557 -0.731932,-1.86557 -0.193741,-0.11974 -0.193742,-0.11974 -0.7323,1.86651 -0.732301,1.86651 -0.223035,0.13784 -0.223034,0.13785 z m 1.573266,-2.57738 0.432821,-1.13333 v -0.3953 -0.3953 l -0.411877,-0.58804 -0.411879,-0.58804 h -1.043329 -1.043332 v 0.13833 0.13833 l 0.830435,1.97834 0.830432,1.97833 h 0.191955 0.191953 z m 21.624989,3.19421 -0.635948,-0.3411 -0.545224,-0.73435 -0.545222,-0.73434 0.0069,-1.38232 0.0069,-1.38232 0.451128,-0.85542 0.451125,-0.85541 0.776141,-0.40136 0.77611,-0.40135 h 0.68774 0.68773 l 0.7291,0.37703 0.7291,0.37703 0.3161,0.69376 0.31609,0.69375 v 0.38442 0.38443 h -2.38125 -2.381252 v 0.62197 0.62198 l 0.292412,0.83882 0.29242,0.83881 0.48394,0.259 0.48394,0.259 h 1.06012 1.06011 l 0.16352,-0.26458 0.16352,-0.26459 h 0.3091 0.30911 l -0.68123,0.68122 -0.68122,0.68122 -1.03256,0.1229 -1.03255,0.12289 z m 2.4664,-4.86732 0.41852,-0.1606 v -0.60484 -0.60485 l -0.41852,-0.16059 -0.41851,-0.1606 h -0.51956 -0.51955 l -0.64943,0.64943 -0.64943,0.64943 v 0.27661 0.27661 h 1.16898 1.16899 z m 45.93479,4.86225 -0.65352,-0.34373 -0.60325,-0.89517 -0.60325,-0.89517 v -1.02771 -1.0277 l 0.36035,-0.8514 0.36036,-0.8514 0.55495,-0.49431 0.55495,-0.49431 1.16345,-0.13114 1.16346,-0.13113 0.82221,0.75774 0.82221,0.75774 0.17042,0.7276 0.17042,0.72761 h -2.44434 -2.44435 l 0.14048,1.24633 0.14048,1.24633 0.5847,0.47346 0.5847,0.47346 h 0.91413 0.91412 l 0.51177,-0.27389 0.51178,-0.2739 v 0.2678 0.26779 l -0.63348,0.41507 -0.63347,0.41507 -0.88788,0.12935 -0.88788,0.12935 z m 2.48396,-4.86225 0.41852,-0.1606 v -0.44794 -0.44794 l -0.3175,-0.3175 -0.3175,-0.3175 h -0.65764 -0.65763 l -0.61237,0.57528 -0.61236,0.57529 v 0.35076 0.35075 h 1.16898 1.16899 z m 34.93462,4.53825 -0.64944,-0.64943 v -2.65786 -2.65786 h -0.38126 -0.38126 l -0.16352,-0.26458 -0.16352,-0.26459 h 1.19757 1.19758 l 0.0748,2.97657 0.0748,2.97656 1.24158,0.08 1.24158,0.08 0.42371,-0.64666 0.42371,-0.64667 -0.0778,-2.07919 -0.0778,-2.07919 -0.59531,-0.0846 -0.59531,-0.0845 v -0.26068 -0.26068 l 1.25677,0.0806 1.25677,0.0806 0.0748,2.97657 0.0748,2.97656 h 0.5205 0.5205 v 0.23151 0.23151 l -0.82682,0.16537 -0.82682,0.16536 h -0.36381 -0.3638 v -0.39688 -0.39687 h -0.12589 -0.1259 l -0.86629,0.52818 -0.86629,0.52817 -0.73963,9.8e-4 -0.73963,0.001 z m 8.08181,0.41422 -0.66146,-0.18246 -0.0829,-0.8495 -0.0829,-0.84949 h 0.25304 0.25304 l 0.14638,0.38145 0.14638,0.38146 0.68652,0.44983 0.68652,0.44982 0.65061,-0.29644 0.65063,-0.29645 v -0.67943 -0.67944 l -0.8271,-0.45071 -0.82709,-0.45072 -0.76041,-0.61883 -0.7604,-0.61883 v -0.90253 -0.90252 l 0.52916,-0.52916 0.52917,-0.52917 h 1.03669 1.0367 l 0.41851,0.1606 0.41852,0.1606 v 0.76544 0.76544 h -0.14499 -0.14498 l -0.60342,-0.70152 -0.60343,-0.70152 -0.7068,0.1774 -0.7068,0.17739 v 0.64656 0.64656 l 1.58441,1.07595 1.5844,1.07595 0.16919,0.67408 0.16918,0.67409 -0.32745,0.61185 -0.32745,0.61185 -0.64484,0.2938 -0.64484,0.29381 -0.71515,-0.0264 -0.71516,-0.0264 z m 20.3101,-0.17896 -0.72428,-0.39299 -0.4002,-0.77391 -0.4002,-0.7739 0.001,-1.26991 0.001,-1.26991 0.51554,-0.84552 0.51555,-0.84552 0.67967,-0.44534 0.67967,-0.44534 1.11849,0.15002 1.11848,0.15002 0.59572,0.69258 0.59573,0.69257 v 0.6467 0.64671 h -2.24896 -2.24896 v 1.07036 1.07036 l 0.64944,0.64943 0.64943,0.64943 h 1.01744 1.01744 l 0.31309,-0.31309 0.31309,-0.31309 0.1632,0.16319 0.16319,0.1632 -0.19108,0.30918 -0.19109,0.30919 -0.88524,0.36987 -0.88538,0.36988 -0.60381,-0.0106 -0.60381,-0.0106 z m 2.9592,-4.99287 0.31534,-0.37996 -0.29225,-0.54608 -0.29226,-0.54608 h -0.72557 -0.72557 l -0.58803,0.41187 -0.58804,0.41188 v 0.51417 0.51416 h 1.29052 1.29052 z m 2.9906,5.13421 -0.59531,-0.23928 v -0.80228 -0.80227 h 0.23627 0.23628 l 0.14638,0.38145 0.14638,0.38146 0.68651,0.44983 0.68652,0.44982 0.65062,-0.29644 0.65062,-0.29645 v -0.67943 -0.67944 l -0.82709,-0.45071 -0.8271,-0.45072 -0.7604,-0.61883 -0.76041,-0.61883 v -0.8564 -0.85641 l 0.6292,-0.5911 0.6292,-0.5911 1.28903,0.082 1.28903,0.082 0.0829,0.8599 0.0829,0.85989 h -0.16175 -0.16175 l -0.60342,-0.70152 -0.60342,-0.70152 -0.70681,0.1774 -0.7068,0.17739 v 0.64656 0.64656 l 1.58441,1.07595 1.5844,1.07595 0.16919,0.67408 0.16918,0.67409 -0.32745,0.61185 -0.32745,0.61185 -0.64484,0.2938 -0.64484,0.29381 -0.84744,-0.0168 -0.84745,-0.0168 z m 5.95312,-0.0347 -0.7276,-0.26574 v -0.7717 -0.7717 h 0.23415 0.23416 l 0.42025,0.64139 0.42026,0.64139 0.52622,0.16702 0.52622,0.16701 0.53916,-0.28855 0.53916,-0.28855 v -0.63234 -0.63233 l -1.52135,-1.012 -1.52136,-1.012 -0.0787,-0.93431 -0.0787,-0.9343 0.64172,-0.60286 0.64172,-0.60287 1.28903,0.082 1.28903,0.082 0.0811,0.92604 0.0811,0.92604 -0.68713,-0.7276 -0.68713,-0.7276 h -0.46554 -0.46554 l -0.3175,0.3175 -0.3175,0.3175 v 0.47249 0.4725 l 1.12447,0.7169 1.12448,0.7169 0.59532,0.5236 0.59531,0.5236 v 0.5937 0.59369 l -0.16436,0.4283 -0.16435,0.4283 -0.74855,0.38709 -0.74855,0.38709 -0.74074,-0.0209 -0.74074,-0.0209 z M 62.441652,151.38361 v -0.24676 l 0.529167,-0.16795 0.529166,-0.16795 v -4.73152 -4.73153 l -0.46302,-0.25912 -0.463021,-0.25913 0.744828,-0.28319 0.744829,-0.28318 h 0.37965 0.379651 v 5.26298 5.26298 l 0.661458,0.16602 0.661459,0.16601 v 0.25955 0.25954 h -1.852084 -1.852083 z m 5.08,-0.0708 -0.3175,-0.3175 v -0.76697 -0.76697 l 0.76894,-0.7183 0.768943,-0.7183 1.098211,-0.32903 1.098211,-0.32903 -0.08122,-0.97706 -0.08121,-0.97705 -0.85897,-0.0828 -0.858967,-0.0828 -0.556228,0.94274 -0.556228,0.94273 h -0.370742 -0.37074 v -0.5157 -0.5157 l 0.938723,-0.716 0.938721,-0.716 1.164598,-0.0251 1.164598,-0.0251 0.344077,0.34342 0.344075,0.34341 0.09164,2.65543 0.09163,2.65544 0.635969,-0.15962 0.635968,-0.15962 v 0.26352 0.26353 l -0.651883,0.42713 -0.651883,0.42713 -0.832744,-0.41543 -0.832745,-0.41543 -0.55862,0.39128 -0.558617,0.39127 h -0.814255 -0.814253 z m 2.97479,-1.06429 0.411877,-0.58804 v -0.86717 -0.86717 h -0.289907 -0.289906 l -0.779317,0.46036 -0.77932,0.46035 -0.150945,0.60142 -0.150945,0.60141 0.326525,0.39344 0.326525,0.39344 h 0.481767 0.481766 z m 15.644318,0.96602 -0.415775,-0.41578 v -0.47458 -0.47459 l 0.56264,-0.71528 0.562639,-0.71528 1.429562,-0.63222 1.429562,-0.63222 -0.174278,-0.7387 -0.174279,-0.73871 -0.198191,-0.21912 -0.198191,-0.21912 -0.759836,0.0868 -0.759836,0.0868 -0.378478,0.8599 -0.378476,0.85989 h -0.48142 -0.481418 v -0.34737 -0.34737 l 0.727605,-0.69413 0.727604,-0.69413 0.773567,-0.29234 0.773571,-0.29234 0.749985,0.16472 0.749985,0.16472 0.262385,0.49027 0.262382,0.49027 v 2.41966 2.41967 l 0.79349,-0.17428 0.793494,-0.17428 -0.14659,0.382 -0.146587,0.38201 -0.679402,0.30955 -0.679403,0.30956 -0.647525,-0.42427 -0.647526,-0.42428 -0.633584,0.41514 -0.633582,0.41514 h -0.784161 -0.784159 z m 2.872618,-0.79375 0.415774,-0.41578 v -1.03943 -1.03944 h -0.115067 -0.115067 l -0.664845,0.25278 -0.664845,0.25277 -0.429517,0.65553 -0.429517,0.65552 0.292696,0.54691 0.292697,0.54691 h 0.50096 0.500957 z m 3.855357,1.07723 v -0.13229 l 0.529167,-0.52917 0.529167,-0.52917 v -1.79321 -1.79321 l -0.378378,-0.54021 -0.378378,-0.54021 0.751491,-0.70929 0.75149,-0.70928 h 0.156054 0.156054 v 0.52916 0.52917 h 0.1416 0.141602 l 0.636852,-0.41728 0.636852,-0.41728 0.610608,0.0866 0.610611,0.0865 v 0.66146 0.66146 l -1.16895,-0.076 -1.168953,-0.076 -0.216059,0.34053 -0.216059,0.34053 -0.004,1.99761 -0.004,1.9976 0.3175,0.3175 0.3175,0.3175 h 0.608542 0.608541 v 0.26459 0.26458 h -1.984375 -1.984375 v -0.13229 z m 37.623755,-0.18521 -0.3175,-0.3175 v -0.69133 -0.69133 l 0.7276,-0.69058 0.7276,-0.69058 1.13841,-0.45156 1.1384,-0.45156 -0.0801,-0.95788 -0.0801,-0.95789 h -0.90451 -0.90451 l -0.43982,0.79375 -0.43981,0.79375 -0.44161,0.0856 -0.44161,0.0855 v -0.36677 -0.36677 l 0.7276,-0.69413 0.7276,-0.69413 0.77357,-0.29234 0.77357,-0.29234 0.74999,0.16472 0.74998,0.16472 0.26239,0.49027 0.26238,0.49027 v 2.42733 2.42732 l 0.66146,-0.16601 0.66146,-0.16602 v 0.26353 0.26352 l -0.6413,0.4202 -0.6413,0.42019 -0.75344,-0.38962 -0.75344,-0.38962 -0.65579,0.36302 -0.65578,0.36303 -0.80698,0.009 -0.80697,0.009 z m 2.90281,-0.91413 0.48385,-0.43788 v -1.03516 -1.03516 l -0.59531,0.18142 -0.59531,0.18142 -0.45627,0.40047 -0.45626,0.40047 -0.16091,0.50697 -0.16091,0.50697 0.31884,0.38418 0.31884,0.38418 h 0.40979 0.40979 z m 3.65885,0.99573 v -0.2359 l 0.66146,-0.16602 0.66146,-0.16601 v -4.74431 -4.74432 l -0.46302,-0.25912 -0.46302,-0.25913 0.74483,-0.28319 0.74482,-0.28318 h 0.37965 0.37966 v 5.28662 5.28663 l 0.66145,0.16601 0.66146,0.16602 v 0.2359 0.2359 h -1.98437 -1.98438 z m 5.02709,-0.0287 v -0.26459 h 0.38756 0.38757 l 0.27389,-0.51177 0.27389,-0.51177 v -4.23573 -4.23572 l -0.5438,-0.38089 -0.5438,-0.3809 0.84787,-0.29557 0.84786,-0.29556 0.29125,-3.2e-4 0.29125,-3.2e-4 -0.0819,5.1582 -0.0819,5.1582 0.67717,0.30854 0.67716,0.30855 v 0.22212 0.22211 h -1.85208 -1.85208 z m 22.61099,-0.0176 -0.1744,-0.28218 0.13694,-0.13694 0.13693,-0.13693 1.07626,-0.14436 1.07627,-0.14436 0.26998,-0.3253 0.26998,-0.32531 0.17325,-8.48823 0.17326,-8.48823 -0.77005,-0.15774 -0.77004,-0.15773 -0.66146,-0.19506 -0.66146,-0.19506 0.0712,-0.25821 0.0712,-0.25821 0.68458,-0.18309 0.68458,-0.18308 4.53591,-0.0675 4.53591,-0.0675 1.08451,0.31616 1.08452,0.31615 0.89986,0.59626 0.89986,0.59626 0.62488,1.25951 0.62489,1.25951 -0.17938,1.1962 -0.17938,1.1962 -0.94985,0.94985 -0.94985,0.94985 0.4541,0.25412 0.4541,0.25413 0.88076,0.77331 0.88075,0.77332 0.42626,0.89827 0.42626,0.89827 v 1.75649 1.75649 l -0.50101,0.98165 -0.50102,0.98165 -0.49117,0.43219 -0.49118,0.4322 -1.19062,0.60364 -1.19063,0.60365 -3.57187,0.20541 -3.57188,0.20541 -2.82865,0.0155 -2.82866,0.0155 z m 11.87184,-1.40163 0.86375,-0.36089 0.69044,-0.82055 0.69044,-0.82054 0.18036,-1.06752 0.18036,-1.06751 -0.18036,-1.06752 -0.18036,-1.06751 -0.66831,-0.79425 -0.66832,-0.79425 -0.96052,-0.41546 -0.96052,-0.41546 -2.4474,-0.14008 -2.44739,-0.14008 v 3.88991 3.8899 l 0.28187,0.5267 0.28188,0.5267 0.57802,0.23288 0.57802,0.23289 1.66214,0.0168 1.66215,0.0168 0.86375,-0.36089 z m -0.39479,-10.67947 0.67197,-0.5017 0.50846,-0.68103 0.50846,-0.68103 0.11763,-1.1547 0.11763,-1.15471 -0.47745,-0.92604 -0.47745,-0.92604 -0.92604,-0.46261 -0.92605,-0.46261 -1.9976,-4.1e-4 -1.9976,-4.1e-4 -0.3175,0.3175 -0.3175,0.3175 v 3.36461 3.36462 l 0.33072,0.15088 0.33073,0.15087 2.08982,-0.1065 2.0898,-0.1065 z m 23.32654,12.12956 v -0.23372 l 0.52917,-0.13838 0.52916,-0.13838 v -2.39287 -2.39288 l -0.38242,-0.21401 -0.38242,-0.21402 1.04388,-0.60078 1.04388,-0.60078 v 3.20767 3.20767 l 0.52917,0.13838 0.52916,0.13838 v 0.23372 0.23373 h -1.71979 -1.71979 z m 4.7625,0.10144 v -0.13229 l 0.5567,-0.5567 0.55669,-0.55669 -0.0995,-1.97009 -0.0995,-1.97009 -0.39106,-0.25467 -0.39107,-0.25467 0.92166,-0.76787 0.92165,-0.76786 0.19127,0.11821 0.19127,0.11821 -0.15931,0.41514 -0.1593,0.41514 0.81918,-0.42362 0.81918,-0.42361 h 0.9512 0.95121 l 0.64943,0.64943 0.64944,0.64943 v 2.55034 2.55034 l 0.52916,0.13838 0.52917,0.13838 v 0.23372 0.23373 h -1.71979 -1.71979 v -0.23373 -0.23372 l 0.52916,-0.13838 0.52917,-0.13838 v -2.38712 -2.38712 l -0.41578,-0.41578 -0.41577,-0.41577 h -0.71598 -0.71598 l -0.58804,0.41188 -0.58803,0.41188 v 2.08002 2.08002 l 0.16059,0.41852 0.1606,0.41851 h 0.50086 0.50086 v 0.26459 0.26458 h -1.71979 -1.71979 z m -3.52778,-9.5691 -0.17639,-0.17639 v -0.45676 -0.45676 l 0.44385,-0.17032 0.44385,-0.17032 0.35962,0.35962 0.35963,0.35962 -0.17032,0.44385 -0.17033,0.44385 h -0.45676 -0.45676 z"
         style="fill:#88d365;stroke-width:0.26458332" />
      <path
         id="path3705"
         d="m 173.13529,181.11168 -0.75926,-0.7852 -3.9765,-4.62462 -3.9765,-4.62463 -2.89109,-3.37178 -2.8911,-3.37178 -0.246,0.246 -0.24601,0.24601 0.12411,6.89258 0.1241,6.89258 0.48206,0.53268 0.48207,0.53267 0.95118,0.004 0.95118,0.004 0.60613,0.16237 0.60613,0.16237 -0.0889,0.26665 -0.0889,0.26665 h -4.34178 -4.34179 l -0.0951,-0.28517 -0.095,-0.28516 0.87689,-0.14226 0.87688,-0.14225 0.65166,-0.0714 0.65166,-0.0714 0.16888,-0.83085 0.16888,-0.83086 0.18759,-7.63581 0.18758,-7.63581 -0.38414,-0.51912 -0.38413,-0.51912 -1.41774,-0.14233 -1.41774,-0.14237 v -0.39687 -0.39688 l 2.70283,-0.0753 2.70282,-0.0753 0.47218,0.47955 0.47217,0.47954 6.44906,7.5994 6.44906,7.5994 h 0.23167 0.23167 v -7.24364 -7.24365 l -0.33073,-0.26351 -0.33073,-0.26352 -1.39488,-0.12747 -1.39488,-0.12748 -0.15297,-0.15297 -0.15297,-0.15297 0.1744,-0.28218 0.1744,-0.28219 h 3.80523 3.80523 l 0.1744,0.28219 0.1744,0.28218 -0.13693,0.13694 -0.13694,0.13693 -1.14633,0.14104 -1.14633,0.14104 -0.33073,0.41645 -0.33072,0.41645 v 9.29157 9.29157 l -0.36522,0.49946 -0.36521,0.49946 z m -119.424994,-0.7853 1.06e-4,-0.27585 1.158645,-0.30989 1.158647,-0.30989 0.221163,-0.47259 0.221165,-0.47259 0.09519,-7.27604 0.09519,-7.27605 -0.166301,-1.11116 -0.166304,-1.11116 -0.448805,-0.12251 -0.448807,-0.1225 -1.009177,-0.17057 -1.009179,-0.17057 0.105984,-0.31556 0.105982,-0.31555 h 5.797987 5.797986 l 1.161606,0.61963 1.161602,0.61963 0.74897,0.82002 0.748972,0.82001 0.304194,1.35929 0.304194,1.35928 -0.41906,1.44151 -0.419058,1.44151 -0.987195,1.15331 -0.987195,1.15332 -1.073097,0.48741 -1.0731,0.48742 -1.379267,0.006 -1.379268,0.006 -1.332711,-0.52531 -1.332712,-0.5253 0.004,3.89874 0.004,3.89875 0.227807,0.35954 0.227808,0.35954 1.229424,0.13857 1.229423,0.13858 0.141833,0.22948 0.14183,0.22949 -0.214051,0.012 -0.214053,0.012 -4.167293,0.0541 -4.167294,0.0541 1.06e-4,-0.27586 z m 9.583037,-9.65767 0.983969,-0.27327 0.811469,-0.68281 0.811469,-0.6828 0.387374,-0.7491 0.387371,-0.74909 -0.0043,-1.4022 -0.0044,-1.40221 -0.59096,-1.03848 -0.590961,-1.03848 -1.166092,-0.61517 -1.166096,-0.61516 h -1.430988 -1.430986 l -0.511773,0.27389 -0.511773,0.2739 v 4.33426 4.33427 l 0.330729,0.13345 0.330729,0.13346 1.190625,0.0194 1.190625,0.0194 0.983973,-0.27328 z m 16.231785,9.55085 -0.775912,-0.51149 -0.33233,-0.61125 -0.332332,-0.61125 -0.16723,-0.96522 -0.16723,-0.96522 0.321225,-1.07215 0.321223,-1.07215 0.773184,-0.74076 0.773184,-0.74075 h 1.681101 1.681102 l 0.707914,0.66146 0.707914,0.66145 0.371734,0.71447 0.371737,0.71446 v 1.29693 1.29693 l -0.603255,0.89517 -0.603253,0.89517 -0.653518,0.33068 -0.653516,0.33069 -1.322916,0.002 -1.322917,0.002 -0.775909,-0.51148 z m 3.352789,-0.11588 0.460214,-0.34943 0.399682,-0.95657 0.399682,-0.95657 v -1.07738 -1.07737 l -0.539982,-1.05845 -0.539983,-1.05846 -0.699291,-0.26587 -0.699294,-0.26587 -0.726535,0.30094 -0.726538,0.30095 -0.415438,0.87547 -0.415439,0.87547 v 1.36647 1.36647 l 0.297646,0.57792 0.297648,0.57792 0.542224,0.59531 0.542224,0.59531 0.681482,-0.008 0.681485,-0.008 0.460213,-0.34943 z m 10.841937,0.21791 -0.589547,-0.41294 -0.433162,-0.83764 -0.43316,-0.83764 v -1.3353 -1.3353 l 0.447516,-0.86541 0.447519,-0.8654 0.84705,-0.51648 0.84705,-0.51648 1.018646,-0.001 1.018646,-0.001 0.899583,0.89958 0.899584,0.89958 v 0.68792 0.68792 h -2.645834 -2.645833 l 0.0016,0.59531 0.0016,0.59531 0.275429,0.99177 0.275426,0.99176 0.768291,0.3973 0.768292,0.3973 h 0.880309 0.880311 l 0.588036,-0.41188 0.588039,-0.41188 v 0.28348 0.28347 l -0.859896,0.52429 -0.859895,0.52429 -1.197899,0.001 -1.197901,0.001 -0.58955,-0.41294 z m 3.696486,-5.35174 0.306385,-0.30639 -0.301326,-0.66133 -0.301323,-0.66134 -0.614638,-0.15426 -0.61464,-0.15427 -0.703437,0.26745 -0.70344,0.26745 -0.43352,0.66163 -0.433517,0.66163 0.188857,0.30558 0.188857,0.30558 1.557679,-0.11268 1.557678,-0.11267 z m 2.92688,5.58945 -0.33072,-0.13346 v -0.92283 -0.92283 l 0.91969,0.97516 0.91969,0.97515 0.73395,-0.17704 0.73396,-0.17705 0.33073,-0.43297 0.33073,-0.43296 v -0.34631 -0.3463 l -0.46303,-0.42328 -0.46302,-0.42327 -1.32291,-0.83541 -1.32292,-0.83541 -0.0799,-1.09255 -0.0799,-1.09255 0.71088,-0.55918 0.71089,-0.55918 h 1.27792 1.27793 l 0.24065,0.46302 0.24066,0.46302 -0.17991,0.49508 -0.17991,0.49508 -0.46425,-0.70854 -0.46425,-0.70854 -0.97625,0.0812 -0.97625,0.0812 -0.0819,0.84662 -0.0819,0.84662 1.14025,0.70665 1.14025,0.70666 0.7276,0.67904 0.72761,0.67904 v 0.85734 0.85734 l -0.69714,0.54837 -0.69714,0.54837 -1.48567,-0.0209 -1.48568,-0.0209 -0.33073,-0.13345 z m 6.61459,0 -0.33073,-0.13346 v -0.92283 -0.92283 l 0.89114,0.94488 0.89113,0.94488 h 0.56407 0.56408 l 0.52916,-0.52916 0.52917,-0.52917 v -0.34631 -0.3463 l -0.33073,-0.40546 -0.33073,-0.40547 -1.2519,-0.71174 -1.25191,-0.71174 -0.26945,-0.50347 -0.26945,-0.50347 v -0.80084 -0.80084 l 0.59124,-0.55082 0.59125,-0.55083 1.45927,0.0775 1.45928,0.0775 0.0783,0.92604 0.0783,0.92604 -0.60743,-0.71284 -0.60743,-0.71285 -0.39687,-0.0461 -0.39688,-0.0461 -0.47155,0.0314 -0.47154,0.0314 -0.2248,0.59531 -0.22479,0.59532 0.22909,0.43772 0.22909,0.43773 1.27166,0.78246 1.27166,0.78246 0.45236,0.45236 0.45236,0.45236 v 0.88794 0.88794 l -0.69714,0.54837 -0.69714,0.54837 -1.48567,-0.0209 -1.48567,-0.0209 -0.33073,-0.13345 z m 13.36478,-0.23895 -0.72428,-0.39299 -0.44997,-0.85319 -0.44997,-0.85319 v -1.32291 -1.32292 l 0.45949,-0.87159 0.45949,-0.8716 0.84705,-0.5322 0.84705,-0.53219 1.3911,0.10281 1.3911,0.10281 0.68456,0.63952 0.68456,0.63952 0.37174,0.71447 0.37174,0.71446 v 1.21691 1.2169 l -0.40973,0.79231 -0.40972,0.79231 -0.84705,0.51648 -0.84705,0.51648 -1.32291,-0.01 -1.32292,-0.01 z m 3.09516,-0.0153 0.42979,-0.16493 0.51789,-1.01516 0.5179,-1.01516 v -1.20966 -1.20966 l -0.37478,-0.89697 -0.37477,-0.89696 -0.70406,-0.46132 -0.70407,-0.46132 -0.69891,0.24579 -0.69892,0.2458 -0.60349,0.89553 -0.6035,0.89553 v 1.42922 1.42922 l 0.39536,0.76455 0.39537,0.76455 0.58954,0.41294 0.58955,0.41293 h 0.44866 0.44866 z m 14.33888,-0.0543 -0.43788,-0.48385 v -0.55418 -0.55418 l 0.6579,-0.78188 0.65791,-0.78188 1.47221,-0.59752 1.4722,-0.59753 -0.0796,-1.06134 -0.0796,-1.06135 -0.42207,-0.26434 -0.42207,-0.26435 -0.69919,0.17549 -0.6992,0.17548 -0.53776,1.0541 -0.53776,1.0541 h -0.3915 -0.39149 v -0.36119 -0.36119 l 0.53201,-0.67635 0.53201,-0.67634 1.19126,-0.45495 1.19127,-0.45495 0.84612,0.24267 0.84613,0.24267 0.18235,0.6545 0.18235,0.65451 0.0264,2.43178 0.0264,2.43178 0.25911,0.16014 0.25912,0.16014 0.53463,-0.28612 0.53464,-0.28613 v 0.23288 0.23289 l -0.48386,0.43788 -0.48386,0.43787 h -0.61979 -0.6198 l -0.43471,-0.39341 -0.43471,-0.3934 -1.03113,0.5257 -1.03112,0.5257 h -0.56451 -0.56451 l -0.43788,-0.48386 z m 3.09831,-0.85826 0.69714,-0.54837 v -1.17143 -1.17142 h -0.4222 -0.4222 l -0.75721,0.4473 -0.75721,0.4473 -0.3107,0.75008 -0.31069,0.75008 0.47278,0.52241 0.47278,0.52242 h 0.32018 0.32019 z m 39.49454,0.69079 -0.70279,-0.65132 -0.26189,-0.68882 -0.26189,-0.68883 v -1.08986 -1.08987 l 0.55626,-1.14908 0.55627,-1.14909 0.75351,-0.38966 0.75352,-0.38965 h 1.0126 1.0126 l 0.58955,0.41293 0.58955,0.41294 0.41451,0.80157 0.4145,0.80157 -0.14313,0.37299 -0.14313,0.373 h -2.55551 -2.55551 l 0.13198,1.37349 0.13197,1.37349 0.7102,0.61089 0.71019,0.61088 h 1.16025 1.16026 l 0.16352,-0.26459 0.16352,-0.26458 0.31512,0.008 0.31511,0.008 -0.74236,0.6531 -0.74236,0.6531 h -1.40181 -1.40182 l -0.70279,-0.65133 z m 3.55333,-4.91423 0.51177,-0.2739 v -0.50485 -0.50485 l -0.58804,-0.41188 -0.58804,-0.41188 h -0.44999 -0.45 l -0.81405,0.68498 -0.81405,0.68498 v 0.50564 0.50565 h 1.34031 1.34031 z m 5.10291,5.30274 -0.56824,-0.22927 -0.22551,-0.34927 -0.22552,-0.34928 -0.13229,-2.77812 -0.13229,-2.77813 -0.33073,0.0661 -0.33073,0.0661 v -0.21987 -0.21988 l 0.63234,-0.33841 0.63233,-0.33842 0.33842,-0.63233 0.33841,-0.63234 h 0.21988 0.21987 v 0.66146 0.66146 h 1.32292 1.32292 v 0.38305 0.38304 l -1.38907,0.08 -1.38906,0.08 -0.0754,2.55155 -0.0754,2.55154 0.45157,0.45157 0.45156,0.45156 1.01289,-0.16197 1.01289,-0.16196 v 0.12862 0.12863 l -0.78062,0.40367 -0.78061,0.40367 -0.47616,-0.0168 -0.47616,-0.0168 -0.56823,-0.22928 z m 6.76633,-3.06975 -1.4356,-3.34563 -0.63099,-0.49736 -0.63099,-0.49737 4.20286,0.0179 4.20287,0.0179 -0.66145,0.29867 -0.66146,0.29867 -0.0723,0.0424 -0.0723,0.0424 0.94863,2.22072 0.94863,2.22071 0.21719,0.22037 0.21719,0.22036 0.80638,-2.40435 0.80637,-2.40434 -0.70923,-0.38511 -0.70924,-0.38511 1.56747,-0.0106 1.56748,-0.0106 -0.5329,0.59531 -0.5329,0.59532 -1.29771,3.24114 -1.2977,3.24115 h -0.21477 -0.21477 l -0.49019,-1.12448 -0.49019,-1.12448 -0.42705,-1.03903 -0.42704,-1.03903 -0.27285,0.27284 -0.27285,0.27285 -0.73277,1.80897 -0.73276,1.80897 -0.2647,0.0882 -0.2647,0.0882 -1.43559,-3.34563 z m 3.10633,-0.84689 0.45163,-1.1826 -0.5124,-0.957 -0.51241,-0.957 -1.02705,-0.0842 -1.02705,-0.0842 -0.2709,0.2709 -0.2709,0.2709 1.01567,2.42204 1.01567,2.42205 0.34304,-0.46915 0.34305,-0.46914 z m 9.39892,3.6435 -0.87581,-0.53397 -0.38096,-0.91176 -0.38095,-0.91174 v -0.94304 -0.94304 l 0.36277,-0.8514 0.36278,-0.8514 0.69352,-0.63952 0.69353,-0.63952 1.39109,-0.11165 1.3911,-0.11165 0.92604,0.62416 0.92604,0.62415 0.46261,0.92077 0.46261,0.92076 5.3e-4,1.01835 5.3e-4,1.01835 -0.44184,0.93112 -0.44185,0.93112 -0.81492,0.49694 -0.81493,0.49694 h -1.32292 -1.32291 l -0.87582,-0.53397 z m 3.4796,-0.27199 0.69076,-0.54335 0.29597,-1.09918 0.29598,-1.09918 -0.16715,-1.04528 -0.16714,-1.04528 -0.43746,-0.74056 -0.43746,-0.74056 -0.69468,-0.28774 -0.69467,-0.28775 -0.69744,0.26517 -0.69744,0.26516 -0.45228,0.87127 -0.45227,0.87126 -10e-4,1.48492 -0.001,1.48492 0.58328,0.94376 0.58328,0.94377 0.32071,0.13011 0.32072,0.13012 0.55963,0.0209 0.55963,0.0209 0.69076,-0.54336 z m -139.84911,0.13148 0.588039,-0.41188 v -2.46615 -2.46614 l -0.382641,-0.31756 -0.382637,-0.31756 0.880588,-0.77317 0.880589,-0.77317 h 0.16351 0.163507 v 0.52917 0.52917 h 0.205711 0.205714 l 0.591264,-0.41414 0.591265,-0.41414 0.724376,0.0834 0.724379,0.0834 0.0847,0.59649 0.0847,0.5965 -0.454449,0.17439 -0.454448,0.17438 -0.757698,-0.28599 -0.757698,-0.286 -0.403151,0.40315 -0.403153,0.40315 0.07539,2.55155 0.07539,2.55154 0.926042,0.3158 0.926041,0.3158 -2.241685,0.0149 -2.241682,0.0149 0.588037,-0.41188 z m 15.140122,0.07 0.661458,-0.33405 0.07532,-2.85941 0.07532,-2.85942 -0.538345,-0.14078 -0.538345,-0.14078 v -0.20286 -0.20287 l 0.494956,-0.12943 0.494958,-0.12944 0.287147,-1.63016 0.287147,-1.63017 0.561674,-0.78879 0.561671,-0.7888 0.759751,-0.39288 0.759751,-0.39288 h 1.203764 1.203764 v 0.52917 0.52916 h -0.444235 -0.444236 l -0.883809,-0.31959 -0.883806,-0.31959 -0.662313,0.66232 -0.662313,0.66231 -0.266414,1.65428 -0.266414,1.65427 0.155718,0.25196 0.155718,0.25196 h 1.197059 1.19706 l -0.10876,0.33073 -0.108757,0.33073 -1.103915,0.0814 -1.103916,0.0814 v 3.01993 3.01993 l 0.859896,0.24828 0.859895,0.24829 -2.248958,0.02 -2.248958,0.0199 z m 26.761568,0.0435 0.70012,-0.25657 0.15617,-0.58243 0.15617,-0.58243 0.004,-2.04828 0.004,-2.04828 -0.51351,-0.32069 -0.51351,-0.32069 1.06968,-0.60759 1.06969,-0.60759 0.0391,-2.7e-4 0.0391,-2.6e-4 v 3.49719 3.4972 l 0.66146,0.33569 0.66146,0.33569 -2.11667,-0.017 -2.11666,-0.017 0.70011,-0.25658 z m 14.31499,-0.07 0.46303,-0.35148 v -2.51813 -2.51812 l -0.38264,-0.31756 -0.38264,-0.31756 0.88059,-0.77317 0.88059,-0.77317 h 0.1635 0.16351 v 0.52917 0.52917 l 0.19844,-0.009 0.19844,-0.009 0.66146,-0.37812 0.66145,-0.37812 1.05834,-0.001 1.05833,-0.001 0.4198,0.32231 0.41981,0.32232 0.3078,0.57792 0.3078,0.57791 v 2.67176 2.67175 l 0.59531,0.23929 0.59531,0.23928 -1.84481,0.0168 -1.8448,0.0168 0.58803,-0.41187 0.58804,-0.41188 v -2.34902 -2.34903 l -0.25803,-0.67868 -0.25804,-0.67868 h -1.16786 -1.16786 l -0.5697,0.46302 -0.56969,0.46302 0.0774,2.63869 0.0774,2.63869 0.66146,0.33397 0.66146,0.33397 -1.85208,-0.005 -1.85209,-0.005 0.46302,-0.35148 z m 17.72709,-0.0476 0.7276,-0.39474 v -5.27007 -5.27007 l -0.43085,-0.24111 -0.43085,-0.24112 0.30718,-0.18985 0.30717,-0.18984 0.78514,-0.22518 0.78513,-0.22517 v 5.94743 5.94743 l 0.85989,0.37374 0.8599,0.37375 -2.24896,-2.4e-4 -2.24896,-2.4e-4 z m 70.25415,0.004 0.58804,-0.41188 v -2.44562 -2.44562 l -0.31576,-0.31576 -0.31575,-0.31575 0.76212,-0.7955 0.76214,-0.79549 h 0.21508 0.21508 v 0.52917 0.52916 h 0.36448 0.36448 l 0.34059,-0.41038 0.34059,-0.41039 0.81629,0.0797 0.81628,0.0797 0.0847,0.59649 0.0847,0.5965 -0.41213,0.15814 -0.41212,0.15815 -0.79325,-0.27653 -0.79325,-0.27653 -0.40993,0.40992 -0.40992,0.40993 0.0754,2.55155 0.0754,2.55154 0.92605,0.3158 0.92604,0.31579 -2.24169,0.0149 -2.24168,0.0149 0.58804,-0.41188 z m 6.40887,0.0697 0.66146,-0.33443 0.074,-5.41636 0.074,-5.41636 -0.53517,-0.43779 -0.53517,-0.43778 0.83138,-0.28982 0.83138,-0.28982 h 0.35739 0.3574 v 4.37242 4.37242 l 0.85989,-0.43491 0.8599,-0.4349 0.87695,-0.65669 0.87694,-0.6567 -0.45493,-0.5027 -0.45494,-0.50269 1.82695,0.0156 1.82694,0.0156 -0.39687,0.25868 -0.39688,0.25867 -2.10599,1.21992 -2.106,1.21991 1.84141,1.69738 1.84142,1.69738 0.79375,0.51165 0.79375,0.51165 -1.98438,-0.0297 -1.98437,-0.0297 0.46302,-0.12101 0.46302,-0.12099 -0.031,-0.31133 -0.031,-0.31133 -1.68878,-1.56514 -1.68878,-1.56514 v 1.75043 1.75043 l 0.46302,0.26968 0.46302,0.26969 -1.85209,0.004 -1.85208,0.004 0.66146,-0.33443 z m -207.493428,-2.4306 -1.250718,-0.34426 -1.395115,-0.78402 -1.395115,-0.78403 -1.0961965,-1.33681 -1.0961963,-1.33682 -0.5574495,-1.48992 -0.5574496,-1.48992 v -2.19101 -2.19101 l 0.4084698,-1.37547 0.4084699,-1.37546 0.5675156,-0.98766 0.5675157,-0.98766 1.0414009,-1.26677 1.041401,-1.26678 1.211047,-0.84989 1.211046,-0.8499 0.211117,-0.14788 0.211118,-0.14789 -0.844897,-2.23336 -0.844896,-2.23337 -0.01497,-2.91041 -0.01497,-2.91042 0.73664,-1.3981 0.736641,-1.3981 1.038319,-1.03832 1.038319,-1.03831 1.135457,-0.58198 1.135457,-0.58197 1.882016,-0.12293 1.882015,-0.12294 0.945724,0.31212 0.945723,0.31212 0.685372,0.53911 0.685373,0.53911 0.566264,1.09947 0.566264,1.09947 -0.01114,1.63569 -0.01114,1.63569 -0.784714,1.67689 -0.784714,1.6769 -1.545098,1.66889 -1.545097,1.66889 -1.672281,1.19331 -1.672283,1.19332 v 0.1406 0.1406 l 0.955032,1.57215 0.955032,1.57216 1.598866,2.15639 1.598866,2.15639 2.513149,2.58992 2.51315,2.58992 h 0.1763 0.176302 l 0.43643,-1.38906 0.436428,-1.38907 0.175,-1.50022 0.175001,-1.50023 -0.32726,-1.73443 -0.327263,-1.73442 -0.749774,-1.18227 -0.749771,-1.18227 -1.007431,-0.16881 -1.007432,-0.16881 -0.644922,-0.1933 -0.644922,-0.19331 -0.09668,-0.29005 -0.09668,-0.29005 0.96914,-0.7392 0.96914,-0.73919 1.227675,0.51661 1.227672,0.51662 3.571875,-0.0477 3.571875,-0.0477 1.526177,-0.24371 1.526175,-0.24371 0.156004,0.62157 0.156003,0.62157 -0.154045,0.40143 -0.154046,0.40144 -0.685461,0.26061 -0.685464,0.26062 H 34.922639 31.77974 l 0.569275,1.25677 0.569275,1.25677 -0.0078,2.11666 -0.0078,2.11667 -0.448826,1.45521 -0.448826,1.45521 -0.806172,1.45521 -0.806172,1.4552 1.009374,0.88347 1.009378,0.88346 2.116666,1.30661 2.116667,1.30661 1.058333,0.28731 1.058334,0.28731 1.755338,-0.16128 1.755341,-0.16129 0.144174,0.55133 0.144175,0.55133 -1.236692,0.54705 -1.236692,0.54704 -1.324282,0.3527 -1.324279,0.3527 -0.945054,0.003 -0.945055,0.003 -1.243539,-0.42371 -1.243536,-0.42372 -2.532124,-1.69295 -2.532121,-1.69295 h -0.07912 -0.07912 l -1.266438,1.04652 -1.266437,1.04653 -1.498975,0.79894 -1.498976,0.79895 -1.695167,0.39958 -1.695167,0.39958 -1.322917,-0.0197 -1.322917,-0.0197 -1.250717,-0.34426 z m 9.099369,-3.68746 1.498651,-0.72392 0.456969,-0.50494 0.456969,-0.50495 -2.617078,-2.71786 -2.617078,-2.71786 -1.877145,-2.51166 -1.877146,-2.51165 -1.033271,-1.78087 -1.033272,-1.78087 -0.228899,-0.005 -0.228898,-0.005 -0.90811,0.99143 -0.908109,0.99142 -0.701875,1.43458 -0.701876,1.43458 -0.107971,2.27035 -0.107971,2.27035 0.285869,1.05833 0.285869,1.05834 0.868911,1.45521 0.868911,1.4552 1.285446,0.8602 1.285446,0.86019 0.829545,0.25546 0.829546,0.25545 2.248958,-0.0812 2.248958,-0.0812 z m -4.172186,-20.81252 1.470151,-1.34363 0.829456,-1.68487 0.829458,-1.68487 0.134995,-1.68175 0.134995,-1.68175 -0.563793,-1.10513 -0.563793,-1.10513 -0.778015,-0.40232 -0.778015,-0.40233 h -1.080782 -1.080781 l -0.667391,0.43729 -0.667391,0.43729 -0.536526,1.05168 -0.536527,1.05168 -0.145814,1.4128 -0.145814,1.41281 0.325811,1.65607 0.325811,1.65606 0.66449,1.65987 0.664491,1.65987 h 0.347417 0.347417 z m 94.704055,16.27208 -0.16017,-0.41739 0.43305,-0.43306 0.43306,-0.43305 0.43305,0.43305 0.43306,0.43306 -0.16017,0.41739 -0.16017,0.41739 h -0.54577 -0.54578 z m 19.95438,-6.48297 -0.46302,-0.26968 v -0.38373 -0.38373 h 0.28935 0.28935 l 0.13468,0.51499 0.13467,0.515 0.43587,0.11577 0.43587,0.11577 -0.39688,0.0226 -0.39687,0.0226 -0.46302,-0.26969 z m -52.637008,-0.44183 -0.397667,-0.46302 -0.161342,-0.45556 -0.161346,-0.45557 0.281249,-0.80679 0.28125,-0.80679 0.567481,-0.2975 0.567483,-0.2975 -0.46302,0.52236 -0.463021,0.52235 v 0.2905 0.29049 l 0.463021,0.121 0.46302,0.121 -0.46302,0.0307 -0.463021,0.0307 v 0.47859 0.4786 l 0.330729,0.42873 0.330729,0.42873 0.661458,0.11497 0.661459,0.11498 -0.818888,0.036 -0.818888,0.036 z m 7.900373,0.28663 -0.17639,-0.17638 v -1.65365 -1.65365 l -0.209462,-0.0882 -0.20946,-0.0882 0.474043,-0.46302 0.474046,-0.46302 v 0.3793 0.37931 l 0.727604,0.11022 0.727604,0.11022 -0.727604,0.0396 -0.727604,0.0396 v 1.57435 1.57435 l 0.463021,0.26969 0.463021,0.26968 -0.551215,0.008 -0.551217,0.008 -0.176387,-0.17639 z m 2.645834,0 -0.17639,-0.17638 v -0.60806 -0.60805 l 0.511773,-0.27389 0.511773,-0.27389 0.215831,0.008 0.215831,0.008 -0.463021,0.26969 -0.463021,0.26968 v 0.50287 0.50288 l 0.463021,0.26968 0.463021,0.26969 -0.551214,0.008 -0.551217,0.008 -0.176387,-0.17639 z m 1.913469,-0.15434 -0.0268,-0.33073 0.04964,-0.88962 0.04964,-0.88962 -0.306949,0.1897 -0.306948,0.18971 0.334343,-0.53537 0.334344,-0.53537 -0.347208,-0.41836 -0.347207,-0.41836 h 0.244065 0.244062 l 0.3175,0.3175 0.3175,0.3175 v 1.51254 1.51253 l 0.330729,0.13345 0.330729,0.13346 -0.595312,0.0209 -0.595313,0.0209 -0.02681,-0.33073 z m 2.622238,0.15138 -0.447281,-0.11797 -0.08189,-3.02686 -0.08189,-3.02686 0.33073,5.3e-4 0.330729,5.3e-4 v 2.8575 2.8575 l 0.3175,0.3175 0.3175,0.3175 -0.119063,-0.0307 -0.119062,-0.0307 -0.447278,-0.11797 z m 1.729187,-0.3045 0.437882,-0.48386 v -1.07125 -1.07124 l -0.330729,-0.26851 -0.330729,-0.26851 -0.529167,-0.13007 -0.529166,-0.13007 0.7084,-0.0307 0.708401,-0.0307 0.56905,0.72343 0.569045,0.72343 -0.15611,0.78056 -0.156112,0.78057 -0.434739,0.48038 -0.434742,0.48038 H 98.607553 98.34297 Z m 2.205957,-2.619 0.0483,-3.10295 0.28244,-0.0941 0.28245,-0.0941 v 2.68527 2.68528 l 0.27389,0.51177 0.27389,0.51177 -0.60462,5e-5 -0.60462,6e-5 z m 2.59755,1.11848 v -1.98438 h 0.30983 0.30982 l 0.0871,1.98499 0.0871,1.985 -0.39687,-5.3e-4 -0.39688,-5.3e-4 v -1.98438 z m 2.4474,1.80199 -0.46302,-0.121 v -0.55386 -0.55387 l 0.069,0.11024 0.069,0.11025 0.5012,0.59531 0.50121,0.59531 -0.10715,-0.0307 -0.10715,-0.0307 z m 3.37356,-0.0824 0.16364,-0.26478 0.0937,-2.13163 0.0937,-2.13164 -0.2281,-0.79535 -0.22811,-0.79536 0.44915,0.0865 0.44914,0.0865 2.2e-4,3.10522 2.1e-4,3.10521 -0.47863,6e-5 -0.47864,5e-5 z m 2.73708,-0.93202 0.0952,-1.1968 -0.15986,-0.63694 -0.15986,-0.63693 -0.59487,-0.11461 -0.59488,-0.11461 0.69521,-0.036 0.6952,-0.036 0.27177,0.33073 0.27176,0.33073 0.0914,1.65413 0.0914,1.65413 -0.39879,-5.3e-4 -0.39878,-5.3e-4 0.0952,-1.1968 z m 2.33088,0.71295 -0.43788,-0.48386 v -0.85645 -0.85646 l 0.25724,-0.48064 0.25723,-0.48065 0.44165,-0.16947 0.44165,-0.16948 -0.33709,0.40617 -0.33709,0.40617 -0.0982,0.84352 -0.0982,0.84352 0.15011,0.47295 0.15011,0.47295 0.84308,0.24393 0.84308,0.24393 -0.81888,0.0239 -0.81889,0.0239 -0.43789,-0.48386 z m 3.96875,0 -0.43788,-0.48386 v -0.97135 -0.97135 l 0.52917,-0.52917 0.52917,-0.52917 h 0.26458 0.26458 l -0.52916,0.52917 -0.52917,0.52917 v 0.81114 0.81114 l 0.27389,0.51178 0.27389,0.51177 h 0.48746 0.48746 l 0.35482,-0.42752 0.35481,-0.42753 0.008,-2.61506 0.008,-2.61506 0.3517,-1.2e-4 0.3517,-1.3e-4 -0.0775,2.84427 -0.0775,2.84427 0.20446,0.33073 0.20446,0.33073 h -0.35957 -0.35958 l -0.28763,-0.28763 -0.28764,-0.28764 -0.17777,0.28764 -0.17777,0.28763 h -0.60484 -0.60483 l -0.43789,-0.48385 z m 7.96264,0.30862 0.33073,-0.13345 v -2.07522 -2.07521 l -0.46302,-0.0987 -0.46302,-0.0987 0.7276,-0.14861 0.72761,-0.1486 v 2.32251 2.32251 l 0.33073,0.13345 0.33073,0.13346 h -0.92604 -0.92605 z m 3.41754,-0.001 -0.17639,-0.17639 v -0.35278 -0.35278 h 0.23372 0.23373 l 0.13838,0.52917 0.13838,0.52917 h -0.19572 -0.19571 z m 1.83452,-0.002 0.29112,-0.21858 0.30419,-0.57791 0.3042,-0.57792 v -1.41969 -1.41968 l -0.19844,-0.2543 -0.19844,-0.25429 0.52917,0.47331 0.52916,0.47331 v 1.16387 1.16388 l -0.54526,0.73032 -0.54527,0.73032 -0.38077,0.10297 -0.38078,0.10297 z m 4.95506,-0.35102 0.38726,-0.66146 0.18819,-0.62845 0.18819,-0.62844 -0.31933,0.19735 -0.31933,0.19735 0.29098,-0.5437 0.29099,-0.5437 v -0.45958 -0.45958 l -0.46303,-0.54544 -0.46302,-0.54544 0.52917,0.39231 0.52917,0.39232 0.19438,0.26458 0.19439,0.26458 0.004,1.12031 0.004,1.12031 -0.81168,0.86406 -0.81169,0.86407 0.38726,-0.66145 z m 2.61195,0.21166 -0.3175,-0.3175 v -0.34396 -0.34395 h 0.26458 0.26458 v 0.50711 0.50712 l 0.33073,0.13345 0.33073,0.13346 -0.27781,0.0209 -0.27781,0.0209 -0.3175,-0.3175 z m 1.85899,-0.12087 0.4567,-0.51537 0.10489,-0.64761 0.1049,-0.64761 -0.23699,-0.45706 -0.23699,-0.45707 0.40528,0.15552 0.40528,0.15552 0.15251,0.60763 0.1525,0.60764 -0.29314,0.54774 -0.29315,0.54775 -0.58924,0.30914 -0.58925,0.30915 z m -55.622328,-0.2387 v -0.41249 l 0.264583,0.16352 0.264584,0.16352 v 0.24897 0.24897 h -0.264584 -0.264583 z m 2.124713,-0.0548 -0.008,-0.5996 -0.91441,-0.43605 -0.914411,-0.43605 -0.142973,-0.37258 -0.142975,-0.37259 0.272944,-0.51 0.272944,-0.51 0.321419,0.0209 0.321421,0.0209 -0.330729,0.13345 -0.33073,0.13346 v 0.3791 0.37911 l 0.923359,0.44032 0.923359,0.44032 0.151111,0.4761 0.151109,0.4761 -0.272674,0.46836 -0.272672,0.46836 -0.008,-0.59959 z m 20.100285,-0.0247 v -0.52321 l -0.92604,-0.57232 -0.92604,-0.57233 v -0.61157 -0.61157 l 0.46302,-0.17627 0.46302,-0.17628 -0.33073,0.33318 -0.33073,0.33317 v 0.20629 0.20629 l 1.05834,0.53992 1.05833,0.53992 v 0.64047 0.64047 l -0.26458,0.16352 -0.26459,0.16352 z m 22.48959,-1.6247 -0.52917,-0.52916 v -0.37524 -0.37524 l 0.16342,-0.42586 0.16342,-0.42586 0.56418,-0.30055 0.56419,-0.30056 -0.34781,0.42173 -0.3478,0.42173 0.0832,1.0002 0.0832,1.0002 0.66146,0.18252 0.66146,0.18251 -0.59532,0.0264 -0.59531,0.0264 z m 4.67121,0.0453 -0.43788,-0.48386 v -0.66576 -0.66577 l 0.48385,-0.43788 0.48386,-0.43788 h 0.1965 0.1965 l -0.43006,0.43006 -0.43006,0.43006 0.0804,0.82068 0.0804,0.82067 0.66146,0.33287 0.66145,0.33286 -0.5543,0.004 -0.55431,0.004 -0.43788,-0.48386 z m -50.883043,-0.76931 -0.04204,-0.72361 0.372769,0.50979 0.372766,0.50979 v 0.21401 0.21401 l -0.330729,-1.9e-4 -0.330729,-1.8e-4 z m 32.543753,0 -0.042,-0.72361 0.37277,0.50979 0.37276,0.50979 v 0.21401 0.21401 l -0.33073,-1.9e-4 -0.33073,-1.8e-4 z m 23.23485,0.19483 v -0.66146 l 0.13345,0.33073 0.13346,0.33073 -0.13346,0.33073 -0.13345,0.33072 z m -47.402191,-0.21167 v -0.21167 l 0.3175,-0.3175 0.3175,-0.3175 h 0.220974 0.220978 l -0.283202,0.52917 -0.283202,0.52917 h -0.255273 -0.255275 z m 15.413351,-0.30771 -0.32436,-0.51938 0.393,0.15081 0.39301,0.15081 v 0.36857 0.36857 h -0.0686 -0.0687 z m 32.29527,-1.17905 0.0979,-0.28595 0.58649,0.0855 0.5865,0.0854 0.44724,-0.35003 0.44725,-0.35004 -0.33924,0.43424 -0.33924,0.43424 -0.79237,0.1163 -0.79236,0.11629 z m -36.54541,-1.23183 0.0948,-0.28443 h 0.25135 0.25136 l 0.0948,0.28443 0.0948,0.28442 h -0.44098 -0.44097 z m 50.79682,-2.17185 -0.28185,-0.3396 0.22237,-0.3598 0.22237,-0.35979 0.56998,0.14905 0.56997,0.14905 0.55946,-1.15153 0.55946,-1.15153 -1.10467,-3.12677 -1.10466,-3.12677 -0.39456,-0.29375 -0.39457,-0.29375 v -0.14754 -0.14755 l 1.45521,0.0131 1.45521,0.0131 v 0.22979 0.22978 h -0.39688 -0.39687 v 0.35053 0.35053 l 0.6603,1.94137 0.6603,1.94137 0.12886,0.12886 0.12886,0.12886 0.77509,-1.69316 0.77508,-1.69315 0.17927,-0.61388 0.17927,-0.61388 -0.55289,-0.14458 -0.55289,-0.14459 v -0.23372 -0.23373 h 1.19062 1.19063 v 0.16927 0.16927 l -0.3568,0.29375 -0.3568,0.29375 -1.78629,4.23334 -1.78628,4.23333 -0.37656,0.59531 -0.37655,0.59532 h -0.49067 -0.49067 z m -39.4643,-12.02157 -3.78176,-9.20237 -0.36547,-0.59258 -0.36547,-0.59259 -1.19699,-0.30141 -1.19699,-0.30141 0.0989,-0.29663 0.0989,-0.29663 4.00493,-0.0205 4.00494,-0.0205 0.3386,0.21892 0.3386,0.21891 -0.39688,0.26053 -0.39687,0.26053 -0.8682,0.004 -0.8682,0.004 -0.16461,0.42895 -0.1646,0.42895 2.58667,6.4448 2.58666,6.4448 0.37076,0.3077 0.37076,0.3077 0.13001,-0.13 0.13001,-0.13001 2.40484,-6.54749 2.40485,-6.5475 -0.25805,-0.25805 -0.25805,-0.25805 -1.29101,-0.32933 -1.29101,-0.32934 v -0.37959 -0.37959 h 3.56826 3.56825 l 0.0892,0.46303 0.0892,0.46302 h -0.40382 -0.40383 l -0.65473,0.29831 -0.65474,0.29832 -0.94602,2.14908 -0.94603,2.14908 -3.00216,7.39509 -3.00217,7.39509 -0.26244,0.0875 -0.26245,0.0875 z m -82.477067,8.28095 0.09296,-0.2854 0.894435,-0.29551 0.894437,-0.29552 0.336841,-0.50731 0.336841,-0.50731 0.0259,-8.25158 0.02593,-8.25158 -0.147066,-0.23796 -0.147071,-0.23797 -1.334252,-0.1282 -1.334251,-0.12821 -0.18496,-0.18495 -0.184957,-0.18496 0.389213,-0.24615 0.389213,-0.24614 3.836458,-0.0683 3.836458,-0.0683 1.984375,0.0659 1.984375,0.0659 1.322917,0.29648 1.322917,0.29649 1.355722,0.63132 1.355722,0.63132 1.214242,1.06882 1.214242,1.06882 0.804124,1.63972 0.804122,1.63971 0.24057,1.98438 0.240567,1.98437 -0.198914,1.19063 -0.198916,1.19062 -0.419003,0.97621 -0.418999,0.97621 -1.129437,1.2253 -1.129438,1.22529 -1.139624,0.66787 -1.139626,0.66786 -1.475539,0.38532 -1.475539,0.38532 -6.468973,0.0734 -6.46897,0.0734 z m 13.022946,-1.37504 1.730512,-0.69278 1.129091,-1.09735 1.129093,-1.09735 0.64891,-1.31873 0.648909,-1.31873 v -2.51911 -2.5191 l -0.871009,-1.76927 -0.871008,-1.76927 -1.113367,-0.97112 -1.113366,-0.97113 -1.719792,-0.79282 -1.719792,-0.79283 -2.135978,-0.13361 -2.135981,-0.13361 -0.575998,0.30826 -0.576001,0.30827 0.0011,7.72975 0.0011,7.72975 0.533387,0.87486 0.533389,0.87486 0.854683,0.37156 0.854687,0.37155 1.51857,0.0104 1.518571,0.0104 1.73051,-0.69278 z m 11.438072,1.46532 -0.463026,-0.26969 -0.39687,-0.76746 -0.39687,-0.76746 v -1.29693 -1.29693 l 0.60519,-0.89902 0.605189,-0.89902 0.740233,-0.35595 0.740233,-0.35596 0.861221,0.16157 0.861221,0.16156 0.564605,0.601 0.564605,0.601 0.07302,0.65172 0.07302,0.65172 -2.348299,0.0769 -2.348298,0.0769 0.134196,1.19057 0.134194,1.19058 0.445463,0.49223 0.445461,0.49223 0.930624,0.17458 0.930627,0.17459 0.639577,-0.41907 0.63958,-0.41907 v 0.25568 0.25568 l -0.588039,0.41188 -0.588036,0.41188 -1.197902,-0.008 -1.197898,-0.008 -0.463026,-0.26969 z m 3.227115,-4.85668 0.315341,-0.37996 -0.274566,-0.51303 -0.274566,-0.51303 -0.520571,-0.13614 -0.52057,-0.13613 -0.738539,0.38316 -0.738537,0.38316 -0.200427,0.31523 -0.200425,0.31524 -0.0041,0.33073 -0.0041,0.33073 h 1.422813 1.42281 z m 2.395612,4.81173 -3.26e-4,-0.19844 h 0.387567 0.387564 l 0.273894,-0.51177 0.273892,-0.51177 v -4.36987 -4.36988 l -0.463021,-0.25912 -0.463021,-0.25913 0.744829,-0.28319 0.744828,-0.28318 h 0.24188 0.241882 l 0.07162,5.34606 0.07163,5.34607 0.661458,0.18381 0.661458,0.18381 -0.264583,0.0493 -0.264583,0.0493 -1.653321,0.0433 -1.65332,0.0433 -2.65e-4,-0.19844 z m 5.177948,-0.085 -0.415774,-0.41578 v -0.48997 -0.48996 l 0.668361,-0.79431 0.668362,-0.7943 1.117576,-0.37093 1.117576,-0.37093 0.07952,-0.92823 0.07953,-0.92824 -0.406818,-0.33763 -0.406818,-0.33762 -0.682329,0.17125 -0.682331,0.17125 -0.38299,0.91663 -0.382989,0.91662 h -0.393325 -0.393324 v -0.35075 -0.35076 l 0.595313,-0.54222 0.595312,-0.54222 0.577919,-0.29765 0.577919,-0.29765 h 0.911037 0.91104 l 0.286366,0.34505 0.286364,0.34505 0.07676,2.49922 0.07676,2.49922 0.727604,-0.0498 0.727604,-0.0498 v 0.23894 0.23894 l -0.511773,0.27389 -0.511773,0.2739 h -0.514162 -0.514165 l -0.316365,-0.3812 -0.316365,-0.3812 -0.840512,0.5125 -0.84051,0.5125 -0.576413,9.8e-4 -0.576414,9.8e-4 -0.415774,-0.41577 z m 2.872619,-0.79375 0.415774,-0.41578 v -1.03943 -1.03944 h -0.493485 -0.493485 l -0.69714,0.54837 -0.69714,0.54837 v 0.73045 0.73045 l 0.17639,0.17639 0.176387,0.17639 h 0.598463 0.598461 z m 6.406157,-0.13606 -0.63646,-1.43915 -0.808284,-1.78263 -0.808286,-1.78264 h -0.281175 -0.281178 v -0.26458 -0.26459 h 1.175009 1.175012 l 0.149553,0.24199 0.149556,0.24198 -0.323009,0.10767 -0.323011,0.10767 0.821767,1.95587 0.821764,1.95586 0.282143,0.094 0.282144,0.0941 0.408078,-0.97667 0.408077,-0.97666 v -0.77408 -0.77407 l -0.700093,-0.64882 -0.700095,-0.64883 h 1.774042 1.774042 l -0.163521,0.26459 -0.16352,0.26458 h -0.381262 -0.38126 v 0.37069 0.37069 l 0.773052,1.81212 0.773054,1.81212 0.219134,-0.12911 0.219135,-0.12912 0.595313,-1.70238 0.595312,-1.70239 v -0.35131 -0.35131 H 82.94686 82.549985 v -0.26458 -0.26459 h 1.190625 1.190625 v 0.23628 0.23627 l -0.358518,0.13758 -0.358516,0.13758 -1.136782,2.86729 -1.13678,2.86729 -0.23551,0.26238 -0.235511,0.26237 -0.254662,-0.39467 -0.254661,-0.39466 -0.566849,-1.53048 -0.566849,-1.53047 -0.283347,0.0944 -0.283345,0.0944 -0.625568,1.56831 -0.625567,1.56832 -0.236802,0.24523 -0.236805,0.24522 z m 9.208064,0.69822 -0.424167,-0.64736 0.351922,-0.7417 0.351923,-0.74171 1.653646,-0.78468 1.653645,-0.78469 v -0.71777 -0.71777 l -0.415774,-0.41577 -0.415774,-0.41577 h -0.491064 -0.491064 l -0.482224,0.63279 -0.482225,0.6328 -0.28095,0.47191 -0.28095,0.47192 -0.31508,-0.19473 -0.315076,-0.19472 0.282186,-0.52727 0.282184,-0.52727 0.84301,-0.51402 0.84301,-0.51402 0.977185,-9.8e-4 0.977183,-9.8e-4 0.41188,0.58804 0.411877,0.58804 v 2.35322 2.35323 l 0.661458,-0.12645 0.661458,-0.12645 v 0.17498 0.17498 l -0.3175,0.3175 -0.3175,0.3175 h -0.687916 -0.687917 l -0.302059,-0.30206 -0.302056,-0.30206 -0.915326,0.43435 -0.915324,0.43433 H 87.08016 86.530935 Z m 3.061801,-0.54808 0.333372,-0.40169 0.02975,-0.97855 0.02975,-0.97854 -0.427739,-0.0876 -0.427741,-0.0876 -0.82903,0.69759 -0.829032,0.69758 v 0.59384 0.59384 l 0.17639,0.17639 0.176387,0.17639 h 0.717256 0.717257 z m 3.791357,0.86471 -0.122417,-0.19844 h 0.38418 0.384183 l 0.160599,-0.41851 0.1606,-0.41852 v -1.87575 -1.87576 l -0.358471,-0.41771 -0.358471,-0.41771 0.887638,-0.75366 0.887637,-0.75366 v 0.55522 0.55523 h 0.145431 0.145431 l 0.793835,-0.41051 0.793834,-0.41051 0.515943,0.16376 0.515943,0.16375 v 0.49351 0.49351 l -0.519174,0.16478 -0.51917,0.16478 -0.556075,-0.29761 -0.556072,-0.2976 -0.389361,0.32314 -0.389358,0.32314 0.07554,2.4072 0.07554,2.4072 0.727604,0.0837 0.727604,0.0837 -7.94e-4,0.18086 -7.93e-4,0.18087 h -1.744584 -1.744583 l -0.12242,-0.19844 z m 6.98641,0.045 -0.463026,-0.26969 -0.39687,-0.76746 -0.396869,-0.76746 v -1.29693 -1.29693 l 0.605189,-0.89902 0.60519,-0.89902 0.740232,-0.35595 0.74023,-0.35596 0.86122,0.16157 0.86123,0.16156 0.5646,0.601 0.56461,0.601 0.073,0.65172 0.073,0.65172 -2.3483,0.0769 -2.348297,0.0769 0.134197,1.19057 0.134194,1.19058 0.445466,0.49223 0.44546,0.49223 0.93062,0.17458 0.93063,0.17459 0.63958,-0.41907 0.63958,-0.41907 v 0.25568 0.25568 l -0.58804,0.41188 -0.58804,0.41188 -1.1979,-0.008 -1.1979,-0.008 -0.463026,-0.26969 z m 3.227116,-4.85668 0.31534,-0.37996 -0.29225,-0.54608 -0.29226,-0.54608 -0.45371,-0.0314 -0.45371,-0.0314 -0.39687,0.0543 -0.39688,0.0543 -0.59531,0.55236 -0.59531,0.55236 v 0.35076 0.35075 h 1.42281 1.42281 z m 27.39817,4.70755 -0.43491,-0.43491 0.17204,-0.68957 0.17205,-0.68957 0.40525,-0.44974 0.40524,-0.44974 1.42622,-0.59113 1.42623,-0.59114 v -0.72616 -0.72617 l -0.41578,-0.41577 -0.41577,-0.41577 -0.44412,0.004 -0.44413,0.004 -0.29381,0.19438 -0.29381,0.19439 -0.44059,0.8599 -0.44058,0.85989 h -0.39008 -0.39008 v -0.20571 -0.20571 l 0.41293,-0.58955 0.41294,-0.58955 0.76455,-0.39536 0.76455,-0.39537 h 0.90678 0.90678 l 0.28637,0.34505 0.28637,0.34505 0.0768,2.49922 0.0768,2.49922 0.7276,-0.0104 0.72761,-0.0104 v 0.15596 0.15595 l -0.3175,0.3175 -0.3175,0.3175 h -0.70844 -0.70844 l -0.32622,-0.39308 -0.32622,-0.39307 -0.6679,0.52536 -0.6679,0.52537 h -0.73917 -0.73917 z m 2.98,-0.68957 0.26643,-0.33073 0.16237,-0.79375 0.16238,-0.79375 -0.24848,-0.38719 -0.24848,-0.38719 -0.93473,0.44574 -0.93473,0.44575 -0.16777,0.66846 -0.16778,0.66846 0.15253,0.39746 0.15252,0.39747 h 0.76965 0.76966 z m 3.76712,0.91906 v -0.26203 l 0.52916,-0.13838 0.52917,-0.13838 v -4.77412 -4.77413 l -0.42963,-0.24043 -0.42962,-0.24043 0.86598,-0.30188 0.86598,-0.30188 h 0.16378 0.16378 l -0.10087,4.62534 -0.10088,4.62534 0.17011,0.67778 0.17012,0.67778 0.58739,0.23636 0.5874,0.23635 -1.36742,0.0168 -1.36743,0.0168 -0.41851,0.1606 -0.41851,0.16059 z m 4.87414,-0.0356 -0.10851,-0.10867 0.59375,-0.29573 0.59374,-0.29573 0.0727,-4.62146 0.0727,-4.62145 -0.44256,-0.32361 -0.44256,-0.32361 0.71784,-0.27293 0.71785,-0.27292 h 0.24188 0.24188 l 0.0716,5.34606 0.0716,5.34607 0.66146,0.18381 0.66145,0.18381 -0.13229,0.0372 -0.13229,0.0372 -1.67586,0.0553 -1.67586,0.0553 z m 5.88354,-0.30238 -0.69076,-0.54336 -0.28712,-1.06628 -0.28712,-1.06629 0.17699,-0.83776 0.17699,-0.83775 0.5118,-0.84307 0.51181,-0.84306 0.91486,-0.30194 0.91487,-0.30193 0.92522,0.30535 0.92522,0.30535 0.39769,0.56779 0.3977,0.56779 v 0.60259 0.60259 h -2.24896 -2.24896 v 1.02265 1.02265 l 0.53239,0.67683 0.53239,0.67682 0.78824,0.17313 0.78824,0.17312 0.79604,-0.39711 0.79604,-0.39712 v 0.23751 0.23751 l -0.78062,0.40367 -0.78061,0.40367 h -1.03579 -1.03579 z m 3.39752,-5.14519 V 145.148 l -1.01814,-0.0837 -1.01814,-0.0837 -0.47683,0.43153 -0.47684,0.43153 -0.13705,0.52409 -0.13706,0.5241 1.63203,-0.0782 1.63203,-0.0782 z m 13.63944,5.47252 -0.27798,-0.0927 v -0.2077 -0.2077 l 1.09037,-0.14624 1.09037,-0.14625 0.29052,-0.29052 0.29051,-0.29052 0.16523,-8.39546 0.16522,-8.39547 -0.24483,-0.31776 -0.24482,-0.31777 -1.18046,-0.17701 -1.18045,-0.17702 0.099,-0.29897 0.099,-0.29897 2.75677,-0.21167 2.75677,-0.21167 2.91041,0.096 2.91042,0.096 1.19063,0.6039 1.19062,0.6039 0.7276,0.94342 0.72761,0.94342 v 1.57603 1.57602 l -1.0846,1.0846 -1.0846,1.08459 0.25035,0.0834 0.25035,0.0834 1.07939,0.79379 1.07939,0.79379 0.54861,1.13328 0.54861,1.13328 v 1.55272 1.55272 l -0.53885,1.11312 -0.53885,1.11312 -0.98251,0.63248 -0.9825,0.63247 -0.79375,0.36406 -0.79375,0.36405 -4.10104,0.0948 -4.10104,0.0948 -1.90484,0.0664 -1.90483,0.0664 z m 11.79575,-1.5382 0.9089,-0.4313 0.65244,-1.1133 0.65243,-1.1133 v -1.39594 -1.39593 l -0.56036,-0.99702 -0.56035,-0.99703 -1.09329,-0.61749 -1.09329,-0.6175 -2.57969,-0.10593 -2.57968,-0.10592 0.004,4.06567 0.004,4.06567 0.19439,0.28719 0.19438,0.2872 0.52917,0.30007 0.52917,0.30007 1.94438,0.008 1.94439,0.008 0.90891,-0.4313 z m -0.97072,-10.48276 1.16096,-0.59531 0.49888,-0.92604 0.49888,-0.92605 -0.10571,-1.40725 -0.1057,-1.40725 -0.79158,-0.79158 -0.79158,-0.79158 -1.7478,-0.29939 -1.7478,-0.29938 -1.00922,0.24926 -1.00921,0.24926 -0.0734,3.77031 -0.0734,3.77031 h 2.06786 2.06787 z m 9.93816,11.45637 -0.40367,-0.78061 v -2.29908 -2.29907 l -0.46302,-0.35148 -0.46302,-0.35149 0.99219,-0.008 0.99219,-0.008 v 2.77203 2.77202 l 0.63958,0.41907 0.63957,0.41907 0.95509,-0.17918 0.9551,-0.17917 0.25741,-0.48098 0.25741,-0.48099 v -2.26635 -2.26635 h -0.51355 -0.51355 l -0.1499,-0.24254 -0.14989,-0.24253 h 1.19261 1.19262 l 0.0159,0.30868 0.0159,0.30868 -0.0306,2.71198 -0.0306,2.71198 0.2793,0.0331 0.2793,0.0331 0.24253,0.0331 0.24254,0.0331 0.19843,0.19844 0.19844,0.19844 -0.63941,0.004 -0.63941,0.004 -0.59531,0.15954 -0.59531,0.15953 v -0.42773 l -2e-5,-0.42773 -0.19844,0.009 -0.19843,0.009 -0.66146,0.37812 -0.66146,0.37813 -1.11768,0.009 -1.11769,0.009 z m 7.82466,0.1853 -0.2213,-0.59532 0.13871,-0.36427 0.1387,-0.36427 0.36239,0.69164 0.36238,0.69164 0.63013,0.15815 0.63013,0.15815 0.56966,-0.30487 0.56967,-0.30488 -0.082,-0.70981 -0.082,-0.70981 -1.39372,-0.89854 -1.39372,-0.89853 -0.16831,-0.67063 -0.16832,-0.67063 0.38009,-0.67979 0.38009,-0.6798 0.97752,-0.24363 0.97752,-0.24364 0.66744,0.30411 0.66746,0.30411 -0.008,0.73328 -0.008,0.73327 -0.54285,-0.7276 -0.54285,-0.7276 h -0.76238 -0.76237 l -0.29498,0.55117 -0.29498,0.55118 0.4272,0.47205 0.4272,0.47205 1.29763,0.8855 1.29764,0.8855 0.13099,0.50092 0.13099,0.50092 -0.23457,0.61697 -0.23457,0.61698 -0.52444,0.28067 -0.52443,0.28067 h -1.34884 -1.34883 z m 5.886,0.26458 -0.12264,-0.19844 h 0.40318 0.40318 l 0.27389,-0.51177 0.2739,-0.51177 v -1.90646 -1.90645 l -0.39292,-0.29375 -0.39292,-0.29376 0.92209,-0.59774 0.92208,-0.59774 v 3.30972 3.30972 h 0.39687 0.39688 v 0.19844 0.19844 h -1.48047 -1.48048 z m 4.93567,0.11339 v -0.085 l 0.39688,-0.39688 0.39687,-0.39687 v -2.01079 -2.01079 l -0.35847,-0.41771 -0.35847,-0.41771 0.88764,-0.75366 0.88764,-0.75366 v 0.55522 0.55523 h 0.1 0.1 l 1.01178,-0.42275 1.01178,-0.42275 0.98015,0.29366 0.98013,0.29366 0.28935,0.83003 0.28936,0.83003 v 2.20948 2.20947 h 0.39687 0.39688 l -8e-4,0.19844 -7.9e-4,0.19844 h -1.45448 -1.45448 l 5e-5,-0.19844 5e-5,-0.19844 h 0.39688 0.39687 l 0.0268,-1.65364 0.0268,-1.65365 -0.0515,-0.92604 -0.0515,-0.92604 -0.27231,-0.33073 -0.27231,-0.33073 h -0.83477 -0.83477 l -0.58804,0.41188 -0.58804,0.41188 v 2.39101 2.39102 l 0.52917,0.13838 0.52916,0.13838 v 0.16758 0.16758 h -1.4552 -1.45521 v -0.0851 z m 9.52411,-0.5366 -0.75394,-0.75394 -0.1812,-0.96585 -0.18119,-0.96585 0.16869,-0.8992 0.16869,-0.8992 0.52635,-0.66915 0.52635,-0.66915 0.92191,-0.30425 0.9219,-0.30426 0.93064,0.30714 0.93064,0.30714 0.39228,0.75857 0.39227,0.75858 v 0.41001 0.41002 h -2.41506 -2.41507 l 0.17934,1.1215 0.17933,1.12151 0.54917,0.58456 0.54916,0.58456 0.75824,0.16654 0.75823,0.16653 0.77615,-0.38719 0.77614,-0.38719 -0.12695,0.33083 -0.12695,0.33084 -0.65936,0.30042 -0.65935,0.30042 h -1.06624 -1.06623 z m 3.65168,-4.69317 0.0789,-0.55232 -0.41045,-0.34065 -0.41046,-0.34065 h -0.712 -0.712 l -0.6101,0.70929 -0.6101,0.70928 v 0.26246 0.26245 l 1.65364,-0.0788 1.65365,-0.0788 z m 2.43275,4.91444 -0.28508,-0.53268 0.2274,-0.40633 0.22739,-0.40633 0.30396,0.66712 0.30396,0.66712 0.71141,0.17856 0.71141,0.17855 0.42207,-0.26624 0.42207,-0.26623 v -0.75438 -0.75437 l -0.92604,-0.58164 -0.92605,-0.58164 -0.59531,-0.54392 -0.59531,-0.54393 v -0.61204 -0.61204 l 0.40448,-0.57748 0.40448,-0.57747 0.93868,-0.1761 0.93869,-0.1761 0.64121,0.29216 0.64121,0.29215 -0.008,0.73328 -0.008,0.73327 -0.54285,-0.7276 -0.54285,-0.7276 h -0.76237 -0.76238 l -0.27294,0.51 -0.27294,0.51 0.13452,0.35056 0.13452,0.35056 1.18726,0.75112 1.18726,0.75111 0.53399,0.67886 0.53398,0.67885 -0.15991,0.55374 -0.15992,0.55374 -0.53549,0.46302 -0.53549,0.46302 h -1.41658 -1.41659 l -0.28508,-0.53267 z m 5.9991,0.35628 -0.17639,-0.17639 v -0.76995 -0.76995 l 0.68498,0.81405 0.68498,0.81405 h 0.63184 0.63184 l 0.43784,-0.66824 0.43785,-0.66824 -0.47062,-0.52002 -0.47061,-0.52003 -1.14913,-0.67343 -1.14913,-0.67344 -0.1756,-0.69965 -0.1756,-0.69966 0.37141,-0.65858 0.37141,-0.65858 0.7418,-0.24643 0.74181,-0.24643 0.91184,0.17106 0.91184,0.17106 -0.001,0.84791 -0.001,0.8479 -0.6009,-0.75089 -0.60089,-0.7509 -0.78686,0.0894 -0.78683,0.0894 v 0.78999 0.78999 l 1.26976,0.83086 1.26977,0.83085 0.37546,0.49582 0.37547,0.49582 0.008,0.42734 0.008,0.42734 -0.54837,0.69714 -0.54837,0.69714 h -1.5242 -1.5242 z m -25.46834,-9.71326 -0.15494,-0.40376 0.17135,-0.27725 0.17135,-0.27726 h 0.53196 0.53195 l -0.0846,0.59261 -0.0845,0.59261 -0.46382,0.0884 -0.46383,0.0884 z"
         style="fill:#404b50;stroke-width:0.26458332" />
    </g>
  </g>
</svg>
