<?xml version="1.0" encoding="UTF-8" standalone="no"?>
<svg
   xmlns:dc="http://purl.org/dc/elements/1.1/"
   xmlns:cc="http://creativecommons.org/ns#"
   xmlns:rdf="http://www.w3.org/1999/02/22-rdf-syntax-ns#"
   xmlns:svg="http://www.w3.org/2000/svg"
   xmlns="http://www.w3.org/2000/svg"
   viewBox="0 0 172.49805 163.51961"
   height="163.51961"
   width="172.49805"
   id="svg2"
   version="1.1">
  <metadata
     id="metadata8">
    <rdf:RDF>
      <cc:Work
         rdf:about="">
        <dc:format>image/svg+xml</dc:format>
        <dc:type
           rdf:resource="http://purl.org/dc/dcmitype/StillImage" />
        <dc:title></dc:title>
      </cc:Work>
    </rdf:RDF>
  </metadata>
  <defs
     id="defs6" />
  <path
     id="path34"
     d="m 78.17291,162.89136 -1.0271,-0.62625 -0.7329,-1.37256 L 75.68,159.52 v -3.68 -3.68 l 0.86909,-1.47836 0.86908,-1.47836 1.09928,-0.52164 1.09927,-0.52164 1.07164,0.001 1.07164,0.001 1.02709,0.62625 1.0271,0.62625 0.7329,1.37255 0.73291,1.37256 v 3.52 3.52 l -0.7427,1.50793 -0.74271,1.50793 -1.05507,0.65207 -1.05506,0.65207 -1.24223,-0.001 -1.24223,-0.001 z m 3.42027,-1.28771 0.5911,-0.31634 0.58786,-1.52366 0.58786,-1.52365 -0.0306,-2.75168 -0.0306,-2.75168 -0.60944,-1.24667 -0.60944,-1.24666 -0.8671,-0.29889 -0.86711,-0.2989 -0.82952,0.37796 -0.82952,0.37795 -0.49255,1.17885 -0.49256,1.17885 -0.17216,2.27634 -0.17216,2.27633 0.52594,1.80918 0.52595,1.80917 0.70659,0.49493 0.70661,0.49492 h 0.58983 0.58984 l 0.5911,-0.31635 z M 64,162.59255 v -0.60745 l 2.90675,-2.93736 2.90676,-2.93736 0.60621,-1.33519 0.60623,-1.33519 0.007,-0.83684 0.007,-0.83685 -0.64391,-0.81859 -0.64389,-0.81858 -0.94032,-0.20653 -0.94031,-0.20653 -1.45447,0.64339 -1.45447,0.64338 -0.34661,-0.64765 -0.34661,-0.64765 0.58529,-0.44388 0.5853,-0.44387 1.0773,-0.36703 1.07731,-0.36703 1.62284,0.15594 1.62285,0.15593 1.05985,1.1565 1.05985,1.15649 v 1.61745 1.61745 l -0.68527,1.34725 -0.68526,1.34725 -2.41023,2.48 -2.41023,2.48 h 3.25549 3.2555 v 0.8 0.8 h -4.64 -4.64 v -0.60745 z m 27.84,-5.79905 v -6.40651 l -1.24038,0.6328 -1.24038,0.63279 -0.19962,-0.19962 -0.19962,-0.19963 v -0.5593 -0.55931 l 1.4803,-0.82736 1.48031,-0.82736 H 92.8403 93.76 v 7.36 7.36 H 92.8 91.84 Z m 8.32,6.25397 v -0.15253 l 3.04,-6.29658 3.04,-6.29659 V 150.19088 150.08 h -3.52 -3.52 v -0.8 -0.8 h 4.64 4.64 v 0.75689 0.75688 l -3.18684,6.60312 -3.18685,6.60311 H 101.13316 100.16 Z M 29.482416,150.57492 27.84,148.83831 v -0.7946 -0.79461 l 0.828445,-0.98455 0.828448,-0.98455 h 1.029382 1.029386 l 1.102169,0.81716 1.10217,0.81715 1.035238,-1.21715 1.035242,-1.21716 0.0048,-0.4 0.0048,-0.4 h 0.270403 0.270403 l 0.517805,0.57217 0.517802,0.57216 -2.26104,2.38784 -2.261043,2.38783 -0.884749,1.35577 -0.884749,1.35577 z m 2.503779,-1.75843 1.325792,-1.58351 -0.960102,-0.49649 -0.960103,-0.49649 h -0.350435 -0.350438 l -0.785453,0.78546 -0.785456,0.78545 v 0.70935 0.70935 l 0.529597,0.58519 0.529597,0.5852 h 0.240604 0.240605 z m 111.258865,1.6333 -0.55475,-0.61299 1.08366,-0.2033 1.08367,-0.2033 0.75641,-0.80516 0.75641,-0.80516 -1.33174,-1.33175 -1.33174,-1.33174 -0.69022,0.62181 -0.69021,0.6218 -0.29141,0.76223 -0.29141,0.76223 -0.63187,-0.57182 -0.63186,-0.57183 V 146.5104 146.24 h 0.58422 0.58422 l 0.73321,-0.78047 0.73321,-0.78046 -1.19598,-1.45954 -1.19597,-1.45953 h -0.18395 -0.18394 l -0.89751,0.85987 -0.89751,0.85987 v 0.92679 0.9268 l -0.37714,-0.12571 -0.37714,-0.12571 -0.34062,-0.54 -0.34062,-0.53999 2.03319,-2.00096 2.03319,-2.00096 0.16144,0.48 0.16144,0.48 3.10949,3.10241 3.10948,3.10241 -1.96645,1.94898 -1.96646,1.94897 z M 23.894157,144.95264 22.4,143.29078 v -0.77994 -0.77993 l 0.818989,-0.81899 0.818985,-0.81899 0.861015,0.14828 0.861011,0.14827 0.515027,0.22224 0.515024,0.22224 0.373216,-1.89703 0.373216,-1.89702 0.04436,-1.18008 0.04436,-1.18007 0.736909,0.74012 0.736912,0.74012 -0.645351,2.5125 -0.645353,2.51249 0.112025,0.33608 0.112026,0.33607 1.630534,-1.63053 1.630538,-1.63054 0.593273,0.66264 0.593274,0.66263 -0.613178,0.35933 -0.61318,0.35933 -2.58682,2.34959 -2.586822,2.34959 -0.345843,0.63766 -0.345843,0.63767 z m 2.377501,-1.49931 1.313504,-1.18667 -0.708032,-0.57333 -0.708032,-0.57333 h -0.503924 -0.503926 l -0.740624,0.69578 -0.740624,0.69578 v 0.68022 0.68022 l 0.384,0.384 0.384,0.384 h 0.255078 0.255079 z m 122.224032,1.36558 -0.38267,-0.4611 1.15132,-0.21599 1.15131,-0.21598 0.47218,-0.67412 0.47217,-0.67412 -0.001,-0.9688 -0.001,-0.9688 -0.61156,-1.00293 -0.61156,-1.00294 -1.13526,-0.86591 -1.13527,-0.86591 -1.26765,-0.17003 -1.26765,-0.17002 -0.82433,0.82432 -0.82433,0.82433 v 1.20566 1.20565 l -0.68181,-0.68181 -0.68181,-0.68181 0.92181,-1.30851 0.92181,-1.30851 1.33848,-0.65892 1.33848,-0.65892 1.22152,0.34458 1.22152,0.34458 0.84609,0.71355 0.84608,0.71355 0.67272,1.12 0.67272,1.12 10e-4,1.06104 0.001,1.06103 -0.3584,0.69897 -0.3584,0.69896 -0.98437,1.04 -0.98438,1.04 h -0.37804 -0.37805 z M 18.88,138.33401 18.4,138.15854 17.649597,137.47927 16.89919,136.8 16.449597,135.93589 16,135.07178 v -0.69232 -0.69232 l 0.669485,-1.19119 0.669485,-1.19119 1.309177,-0.84888 1.309181,-0.84889 1.066669,-0.20011 1.066669,-0.20011 0.923059,0.38235 0.923059,0.38234 0.650291,0.69427 0.650295,0.69427 0.345251,0.91119 0.345251,0.91118 -0.326986,1.21433 -0.326985,1.21434 -1.254301,1.13318 -1.254301,1.13319 -1.222649,0.33951 -1.22265,0.33951 -0.48,-0.0235 -0.48,-0.0235 -0.48,-0.17547 z m 3.099088,-1.8931 1.339091,-0.76338 0.618928,-0.87877 0.618928,-0.87876 0.210131,-0.67773 0.210132,-0.67774 -0.32241,-0.848 -0.32241,-0.84801 -0.836924,-0.31819 -0.836925,-0.3182 -1.258903,0.33898 -1.258905,0.33899 -1.403757,1.34504 -1.403757,1.34503 -0.226768,0.90351 -0.226765,0.90351 0.358013,0.78576 0.358013,0.78575 0.722598,0.28248 0.722602,0.28248 0.8,-0.16968 0.8,-0.16969 z m 131.734412,-0.29831 -0.8174,-0.81741 0.12041,-1.26259 0.1204,-1.2626 -1.60845,0.0139 -1.60846,0.0139 -1.37195,0.26528 -1.37196,0.26528 0.44997,-0.67921 0.44997,-0.67922 2.92198,-0.092 2.92199,-0.092 -0.007,-0.22799 -0.007,-0.22799 -1.19317,-0.83734 -1.19317,-0.83733 -0.72,-0.22423 -0.72,-0.22423 v -0.24884 -0.24884 l 0.60823,-0.55044 0.60824,-0.55044 0.21362,0.34566 0.21363,0.34566 3.23031,2.23518 3.2303,2.23519 h 0.42784 0.42783 v 0.24102 0.24102 l -1.12607,1.58385 -1.12607,1.58384 -0.39393,0.25024 -0.39393,0.25023 -0.73454,0.005 -0.73455,0.005 -0.8174,-0.81741 z m 3.40532,-1.26134 0.75037,-0.79874 -0.13459,-0.1094 -0.1346,-0.1094 -1.50049,-1.01381 -1.50049,-1.01381 -0.49951,0.71315 -0.49951,0.71315 v 0.42335 0.42334 l 0.78546,0.78545 0.78545,0.78546 h 0.59876 0.59877 z m -79.75654,-2.56737 -1.1863,-0.8061 -0.32799,-0.61286 -0.32799,-0.61286 v -0.6268 -0.6268 l 0.50206,-0.19266 0.50207,-0.19266 -0.21763,-0.68568 -0.21762,-0.68567 0.83556,0.15972 0.83556,0.15973 v -0.45719 -0.45719 l 0.68685,0.218 0.68685,0.218 -0.17468,-0.66797 -0.17468,-0.66797 1.08542,-0.20363 1.08542,-0.20362 0.43059,0.16523 0.43059,0.16523 1.06923,-0.51784 1.06923,-0.51785 0.12992,0.38977 0.12992,0.38977 0.30821,-0.19049 0.30821,-0.19048 -0.36309,-0.43749 -0.36309,-0.43749 0.21688,-0.35091 0.21687,-0.35091 0.36782,0.1226 0.36781,0.12261 0.45524,-0.45524 0.45524,-0.45524 0.88973,0.17795 0.88973,0.17794 0.20951,-0.6601 0.20951,-0.6601 0.99132,0.1455 0.99133,0.14549 0.33705,-0.28372 0.33706,-0.28373 1.11487,-0.96548 1.11487,-0.96548 0.1118,0.33539 0.11179,0.33539 H 94.10667 94.72 V 120 119.68 l 0.004,-0.24 0.004,-0.24 -1.04371,-0.0711 -1.04371,-0.071 -0.64,0.28914 -0.64,0.28914 -3.52,0.65724 -3.52,0.65725 -1.78352,0.20208 -1.78353,0.20208 -0.99618,-0.51514 -0.99618,-0.51515 -0.2371,-0.38363 -0.23709,-0.38362 -0.39041,-1.77865 -0.39041,-1.77865 -0.0328,0.56 -0.0328,0.56 h -0.32 -0.32 v -0.32 -0.32 h -0.78111 -0.78112 l -0.21372,0.34581 -0.21372,0.34581 -1.29661,-0.14977 -1.2966,-0.14977 -0.58144,-0.75604 -0.58145,-0.75604 -0.007,-0.4888 -0.007,-0.4888 0.49815,-0.7112 0.49814,-0.7112 h -0.3032 -0.3032 l -1.38078,0.6182 -1.38078,0.61819 -0.25416,-0.15708 -0.25417,-0.15708 v 0.34498 0.34498 l -0.8,-0.20079 -0.8,-0.20078 v 0.37358 0.37357 l -0.32,-0.19777 -0.32,-0.19777 -0.0217,0.41888 -0.0217,0.41889 -0.31696,-0.65213 -0.31696,-0.65214 -0.70138,-0.30786 -0.70139,-0.30787 -0.10226,-0.72 -0.10225,-0.72 h 0.35628 0.35628 l -0.0519,-0.4 -0.0519,-0.4 0.0379,-0.50863 0.0379,-0.50864 0.81506,-0.37136 0.81506,-0.37137 h 0.48288 0.48289 l 1.86577,-0.9257 1.86576,-0.9257 1.70162,-0.36493 1.70162,-0.36494 2.14517,-0.65157 2.14517,-0.65158 0.49044,-0.54192 0.49043,-0.54193 0.38274,-1.59586 0.38273,-1.59587 0.10719,-0.40236 0.10719,-0.40236 1.4992,-0.87764 1.4992,-0.87764 3.38994,-2.23327 3.38994,-2.23327 0.80012,-0.3577 0.80013,-0.35769 0.43906,-0.52904 0.43905,-0.52903 h 0.72164 0.72164 l 0.36979,-0.44557 0.36979,-0.44558 1.02939,-0.42627 1.02939,-0.42627 0.77485,-0.64816 0.77485,-0.64815 0.51487,-0.48 0.51488,-0.48 0.87027,-0.45407 0.87028,-0.45408 V 86.82593 86.08 h 0.29333 0.29334 l 0.12434,0.37303 0.12434,0.37303 1.08107,-0.37686 1.08107,-0.37686 0.26776,0.40383 0.26775,0.40383 0.6048,-0.72 0.60479,-0.72 h 0.16524 0.16524 l 0.16288,0.56 0.16287,0.56 -0.0594,-0.94417 -0.0594,-0.94416 0.8,-0.1971 0.8,-0.1971 -0.078,-0.46903 -0.078,-0.46902 2.31802,-1.10712 2.31802,-1.10711 0.96,-0.003 0.96,-0.003 0.0998,-0.86471 0.0998,-0.86471 0.63558,-0.20173 0.63557,-0.20172 0.46465,0.38562 0.46464,0.38562 v -0.29519 -0.29518 l -0.33356,-0.33356 -0.33356,-0.33356 0.41356,-0.33978 0.41356,-0.33977 0.8,-0.11066 0.8,-0.11067 0.0123,-0.93744 0.0123,-0.93744 0.33965,-0.11322 0.33965,-0.11321 0.40721,0.49066 0.40721,0.49065 h 0.25856 0.25856 l 0.10226,-0.72 0.10225,-0.72 0.67043,-0.29453 0.67043,-0.29454 0.34178,-0.90546 0.34177,-0.90547 0.4278,0.005 0.42779,0.005 0.42327,0.26836 0.42327,0.26837 -0.22967,1.22422 -0.22966,1.22421 -1.21836,1.32177 -1.21836,1.32176 -0.0952,2.37249 -0.0953,2.3725 -0.76323,0.37932 -0.76322,0.37932 -0.19678,0.26945 -0.19677,0.26944 -0.96,0.47383 -0.96,0.47383 -1.39267,1.19477 -1.39268,1.19477 -0.20732,-0.0525 -0.20733,-0.0525 -0.66666,0.22804 -0.66667,0.22804 v 0.93406 0.93406 l 0.74667,0.18739 0.74666,0.18741 v 0.27231 0.27232 l -1.46433,0.40999 -1.46434,0.40999 -0.48752,0.74405 -0.48753,0.74406 -0.9773,0.48754 -0.97731,0.48754 h -1.5397 -1.5397 l -1.05113,-0.91562 -1.05114,-0.91563 -1.02411,-0.52437 -1.0241,-0.52438 h -1.27138 -1.27139 l -1.42442,1.08729 -1.42442,1.08729 -0.65905,0.35271 -0.65905,0.35271 H 93.60908 92.4553 l -1.18726,0.6107 -1.18725,0.61069 -0.86828,0.91459 -0.8683,0.9146 -0.19596,3.03471 -0.19596,3.03471 0.60608,2.31418 0.60608,2.31417 0.31753,-0.31753 0.31752,-0.31753 3.78375,-0.94889 3.78375,-0.94889 0.29091,0.1798 0.29092,0.17979 0.43842,-0.36385 0.43842,-0.36386 2.28048,-0.19119 2.28048,-0.19118 0.92899,0.89003 0.92899,0.89003 -0.0937,1.25786 -0.0937,1.25785 -0.46601,0.46601 -0.466,0.466 -0.75226,0.14488 -0.75226,0.14487 -0.66991,0.60975 -0.66992,0.60975 -1.68,0.41947 -1.68,0.41948 v 0.23137 0.23138 l -1.35449,0.22884 -1.35449,0.22884 -0.39533,0.51929 -0.39533,0.51928 -0.0102,0.18864 -0.0102,0.18863 0.74341,0.33872 0.74341,0.33873 0.38523,-0.61685 0.38523,-0.61685 1.51136,0.022 1.51136,0.022 1.44871,-0.10953 1.44872,-0.10952 0.45496,-0.28118 0.45496,-0.28119 1.60816,-0.0813 1.60816,-0.0813 0.38914,0.32296 0.38915,0.32296 -0.17419,0.4539 -0.17418,0.45391 0.46453,0.17825 0.46452,0.17826 0.71034,0.96078 0.71034,0.96078 -1.70166,1.62625 -1.70166,1.62624 -0.69734,0.45937 -0.69734,0.45937 -1.16452,0.10823 -1.16452,0.10823 -0.53814,0.47401 -0.53814,0.47401 -1.46215,0.65745 -1.46215,0.65745 -1.41785,0.4937 -1.41785,0.4937 -0.94249,0.005 -0.94249,0.005 -0.88594,0.84878 -0.88594,0.84879 -0.46309,-0.38433 -0.46307,-0.38432 -0.23452,0.37945 -0.23451,0.37945 0.76602,0.57999 0.76603,0.58 0.78745,0.19912 0.78746,0.19912 0.39717,-0.54316 0.39717,-0.54316 0.54165,0.20785 0.54165,0.20785 0.51373,-0.4472 0.51372,-0.44719 2.00626,-0.21712 2.00626,-0.21712 0.4388,0.43881 0.4388,0.4388 -0.30278,0.54104 -0.30278,0.54104 0.57772,0.18279 0.57772,0.18279 0.68807,0.27256 0.68807,0.27256 0.19193,-0.19193 0.19193,-0.19193 v -0.26667 -0.26666 h -0.60577 -0.60576 l -0.19786,-0.5156 -0.19785,-0.5156 0.88362,0.22885 0.88362,0.22886 0.41392,0.0676 0.41393,0.0676 0.55994,0.47943 0.55993,0.47944 0.43558,0.2692 0.43558,0.2692 -0.21466,-0.34733 -0.21466,-0.34733 0.30124,-0.18618 0.30124,-0.18617 0.77064,0.35113 0.77065,0.35113 v 0.44564 0.44565 l -0.71176,-0.17864 -0.71175,-0.17864 -0.19523,0.31589 -0.19523,0.31589 -0.68753,-0.1798 -0.68754,-0.17979 -0.38834,0.53109 -0.38835,0.5311 -1.36404,-0.48126 -1.36403,-0.48126 h -0.314 -0.31401 l 0.1842,0.48 0.18419,0.48 h -0.71931 -0.71932 l -0.46128,-0.64 -0.46129,-0.64 h -0.55931 -0.55932 l 0.20308,0.56 0.20308,0.56 -0.68247,-0.8 -0.68248,-0.8 -0.0107,0.75424 -0.0106,0.75423 -0.45661,-0.17521 -0.4566,-0.17522 -0.38928,0.46905 -0.38928,0.46906 -0.55192,-0.49949 -0.55193,-0.49948 0.14655,0.76657 0.14654,0.76657 -0.68831,0.18 -0.68831,0.18 -0.17466,-0.45516 -0.17467,-0.45516 h -0.2629 -0.26291 l -0.56007,0.56 -0.56007,0.56 -1.72891,-0.0773 -1.7289,-0.0773 -0.6922,0.37045 -0.6922,0.37045 -2.45827,-0.0605 -2.45828,-0.0605 -0.20552,0.33254 -0.20552,0.33253 -0.29788,-0.18411 -0.29789,-0.1841 v 0.33888 0.33889 h -0.88572 -0.88572 l -1.18629,-0.80611 z M 85.12,131.04 v -0.16 H 84.96 84.8 v 0.16 0.16 h 0.16 0.16 z m -1.76,-1.44 0.19777,-0.32 h -0.16 -0.16 l -0.19777,0.32 -0.19777,0.32 h 0.16 0.16 z m 7.11687,-0.29552 0.39687,-0.0245 -0.51636,-0.60306 -0.51635,-0.60306 -0.58412,0.50015 -0.58413,0.50014 0.14488,0.23441 0.14488,0.23442 0.55873,-0.10702 0.55873,-0.10701 0.39687,-0.0245 z M 87.26095,128.17524 86.76572,127.68 H 86.3874 86.0091 l 0.75545,0.61245 0.75545,0.61246 0.1181,-0.11722 0.11809,-0.11721 z M 85.28,128.32 85.47777,128 H 84.97889 84.48 v 0.32 0.32 h 0.30111 0.30112 z m 5.81333,-0.21333 -0.21333,-0.21334 v 0.42667 0.42667 l 0.21333,-0.21334 0.21334,-0.21333 z M 99.52,127.53889 v -0.14112 l -0.36944,-0.22833 -0.36945,-0.22833 0.22833,0.36945 0.22833,0.36944 H 99.37889 99.52 Z M 89.92,126.24 v -0.16 H 89.76 89.6 v 0.16 0.16 h 0.16 0.16 z m -2.88,-1.26874 v -0.14874 l -0.72,-0.38365 -0.72,-0.38365 0.43918,0.53239 0.43918,0.53239 H 86.75918 87.04 Z m 10.8751,-4.68757 0.005,-0.19631 -0.72,0.0755 -0.72,0.0755 -0.14116,0.0408 -0.14117,0.0408 0.61914,0.45272 0.61913,0.45272 0.23713,-0.37272 0.23713,-0.37272 0.005,-0.19631 z m 0.767,-1.42031 0.19057,-0.49662 -0.31633,0.19551 -0.31634,0.1955 v 0.30112 0.30111 h 0.12576 0.12577 z m 3.29123,-0.67671 -0.21333,-0.21334 v 0.42667 0.42667 l 0.21333,-0.21334 0.21334,-0.21333 z m -0.94,0.02 -0.19333,-0.19334 -0.42,0.16807 -0.42,0.16808 0.61333,0.0252 0.61334,0.0253 -0.19334,-0.19333 z M 79.36,116 l 0.8,-0.45732 -0.32,-0.007 -0.32,-0.007 -0.72,0.19295 -0.72,0.19295 v 0.28268 0.28268 l 0.24,-0.0113 0.24,-0.0113 z m 20.16,0 v -0.16 H 99.36 99.2 v 0.16 0.16 h 0.16 0.16 z m 4.16,0 v -0.16 h -0.16 -0.16 v 0.16 0.16 h 0.16 0.16 z M 81.81333,115.30667 81.6,115.09333 v 0.42667 0.42667 l 0.21333,-0.21334 0.21334,-0.21333 z m 16.02,0.34 -0.19333,-0.19334 -0.42,0.16807 -0.42,0.16808 0.61333,0.0252 0.61334,0.0253 -0.19334,-0.19333 z m -16.98,-0.66 L 80.64,114.77333 80.42667,114.98667 80.21333,115.2 H 80.64 81.06667 Z M 92.8,114.68576 V 114.56 h -0.48 -0.48 v 0.30996 0.30995 l 0.48,-0.18419 0.48,-0.18419 z M 104.64,114.08 v -0.16 h -0.16 -0.16 v 0.16 0.16 h 0.16 0.16 z M 70.4,111.2 v -0.16 h -0.16 -0.16 v 0.16 0.16 h 0.16 0.16 z m 21.44,-0.94111 v -0.14112 l -0.36944,-0.22833 -0.36945,-0.22833 0.22833,0.36945 0.22833,0.36944 H 91.69889 91.84 Z M 85.44,109.92 v -0.16 h -0.16 -0.16 v 0.16 0.16 h 0.16 0.16 z M 74.56,109.6 v -0.16 H 74.4 74.24 v 0.16 0.16 h 0.16 0.16 z m 24.83333,-1.03333 -0.19333,-0.19334 -0.19204,0.19205 -0.19205,0.19204 0.25063,0.40553 0.25063,0.40553 0.13475,-0.40424 0.13475,-0.40424 z M 100.8,109.28 v -0.16 h -0.16 -0.16 v 0.16 0.16 h 0.16 0.16 z m -15.68,-1.76 v -0.32 h -0.14111 -0.14112 l -0.19777,0.32 -0.19777,0.32 H 84.78111 85.12 Z m -3.52,-2.4 v -0.16 h -0.16 -0.16 v 0.16 0.16 h 0.16 0.16 z m 0.96,-0.32 v -0.16 H 82.4 82.24 v 0.16 0.16 h 0.16 0.16 z m -1.92,-0.32 v -0.16 h -0.16 -0.16 v 0.16 0.16 h 0.16 0.16 z m 2.45333,-0.37333 -0.21333,-0.21334 v 0.42667 0.42667 l 0.21333,-0.21334 0.21334,-0.21333 z m 0.64,-0.64 -0.21333,-0.21334 v 0.42667 0.42667 l 0.21333,-0.21334 0.21334,-0.21333 z M 84.16,101.28 v -0.16 H 84 83.84 v 0.16 0.16 H 84 84.16 Z m 21.28,-10.08 0.19777,-0.32 H 105.29889 104.96 v 0.32 0.32 h 0.14111 0.14112 z m -2.55136,-1.26603 -0.18914,-0.30602 -0.46975,0.18026 -0.46975,0.18026 V 90.11424 90.24 h 0.65889 0.65888 z M 104.96,89.44 v -0.16 h -0.16 -0.16 v 0.16 0.16 h 0.16 0.16 z m 2.56,-0.67424 V 88.64 h -0.48 -0.48 v 0.30996 0.30995 l 0.48,-0.18419 0.48,-0.18419 z m 1.6,0.0342 v -0.16 h -0.16 -0.16 v 0.16 0.16 h 0.16 0.16 z m 3.52,-0.8 v -0.32 H 112.32 112 v 0.32 0.32 h 0.32 0.32 z m -2.88,-1.10111 v -0.14112 l -0.29789,-0.1841 -0.29789,-0.18411 -0.20099,0.32522 -0.201,0.32522 h 0.49888 0.49889 z M 107.84,85.6 v -0.16 h -0.16 -0.16 v 0.16 0.16 h 0.16 0.16 z m 10.13333,-1.65333 -0.21333,-0.21334 -0.21333,0.21334 -0.21334,0.21333 h 0.42667 0.42667 z m -8.64,-0.32 -0.21333,-0.21334 -0.21333,0.21334 -0.21334,0.21333 h 0.42667 0.42667 z m 3.83819,-0.64182 -0.16329,-0.16329 -0.66876,0.21226 -0.66876,0.21226 0.18406,0.29782 0.18407,0.29783 0.64799,-0.34679 0.64798,-0.34679 z M 119.36,83.68 v -0.16 h -0.16 -0.16 v 0.16 0.16 h 0.16 0.16 z m -8,-0.30111 V 83.23777 L 111.04,83.04 110.72,82.84223 V 83.18111 83.52 h 0.32 0.32 z m 4.94166,-2.55273 -0.62066,-0.45383 -0.11254,0.11254 -0.11255,0.11255 0.21093,0.34129 0.21093,0.34129 h 0.52228 0.52227 z M 117.12,78.24 v -0.16 h -0.16 -0.16 v 0.16 0.16 h 0.16 0.16 z m 2.56,0 v -0.16 h -0.16 -0.16 v 0.16 0.16 h 0.16 0.16 z m 2.56,-1.28 V 76.8 h -0.16 -0.16 v 0.16 0.16 h 0.16 0.16 z m -2.88,-0.32 v -0.16 h -0.16 -0.16 v 0.16 0.16 h 0.16 0.16 z m -106.685197,53.9873 -0.497593,-0.96224 0.748646,-0.1879 0.748643,-0.18789 2.610835,-1.46823 2.610832,-1.46823 0.479178,-0.73132 0.479174,-0.73131 -0.214944,-0.60509 -0.21494,-0.60509 -0.6481,-0.72 -0.648096,-0.72 H 17.49152 16.854598 L 14.427299,123.55787 12,124.87574 l -0.851376,0.79457 -0.851376,0.79458 -0.381664,-0.71314 -0.381661,-0.71314 0.433037,-0.27441 0.43304,-0.2744 0.32,-0.007 0.32,-0.007 2.526678,-1.44324 2.526679,-1.44324 0.755654,-0.18965 0.755651,-0.18966 0.812948,0.53266 0.812944,0.53267 0.623526,1.02261 0.623526,1.02261 0.0013,1.04 0.0013,1.04 -0.577516,0.57752 -0.577514,0.57751 -2.222486,1.22516 -2.222484,1.22516 -0.853801,0.7921 -0.853802,0.79209 -0.497593,-0.96224 z m 147.027197,-0.21552 -0.77703,-0.41586 1.0121,-0.52338 1.0121,-0.52337 0.50901,-0.98433 0.50901,-0.98432 -0.10359,-0.0918 -0.1036,-0.0918 -1.67128,-0.83947 -1.67128,-0.83946 -0.48872,0.94508 -0.48872,0.94508 v 0.64903 0.64903 l -0.79147,-0.36062 -0.79146,-0.36061 0.95146,-1.08366 0.95147,-1.08366 -0.005,-0.38887 -0.005,-0.38886 -1.62967,-0.89905 -1.62967,-0.89905 -0.085,0.0991 -0.085,0.0991 -0.51722,1.01739 -0.51722,1.01738 0.19652,0.98262 0.19652,0.98261 h -0.2548 -0.25481 l -0.55072,-0.4984 -0.55072,-0.4984 1.25653,-2.28594 1.25653,-2.28594 0.15026,-0.15025 0.15025,-0.15026 0.73906,0.69431 0.73907,0.69431 3.38722,1.72107 3.38722,1.72106 -1.27781,2.35922 -1.27781,2.35922 -0.0502,0.0538 -0.0502,0.0538 z M 109.12,128.48 l -0.4112,-0.49547 0.16,-0.16 0.16,-0.16 0.4112,0.49547 0.4112,0.49547 -0.16,0.16 -0.16,0.16 z m 54.70857,-5.73722 -0.46857,-0.45722 -3.44301,-1.30278 -3.44302,-1.30278 h -0.44919 -0.44919 l 0.35959,-0.95265 0.35958,-0.95266 0.69594,0.456 0.69593,0.45599 2.81256,1.13412 2.81256,1.13411 0.09,-0.09 0.0901,-0.0901 -3.02926,-2.81259 -3.02925,-2.81258 0.18221,-0.29482 0.18221,-0.29482 4.06112,-0.0162 4.06111,-0.0162 -3.04,-1.24755 -3.04,-1.24755 -0.56,-0.0162 -0.56,-0.0162 0.005,-0.24 0.005,-0.24 0.29071,-0.45942 0.29071,-0.45943 0.46267,0.38398 0.46267,0.38398 3.13464,1.27545 3.13464,1.27544 0.34708,0.005 0.34708,0.005 0.43424,0.27515 0.43425,0.27515 -0.21581,0.67995 -0.21581,0.67995 h -3.97843 -3.97844 v 0.19726 0.19727 l 2.77184,2.61441 2.77184,2.61442 -0.21794,0.86832 -0.21793,0.86832 h -0.24534 -0.24533 l -0.46857,-0.45722 z M 7.628608,121.05366 6.94825,119.52 6.800346,117.7447 6.652438,115.9694 7.490614,114.97328 8.32879,113.97717 9.821398,113.46858 11.31401,112.96 h 0.855673 0.855671 l 1.087324,0.72 1.087322,0.72 1.010224,2.08 1.010227,2.08 -0.530227,0.20208 -0.530224,0.20209 -3.04,1.17779 -3.04,1.17779 -0.885517,0.63379 -0.885517,0.63378 z m 4.624403,-1.88769 3.586989,-1.47402 0.09875,-0.0914 0.09875,-0.0914 -0.464944,-1.11276 -0.464941,-1.11277 -0.745004,-0.52182 -0.745005,-0.52182 -1.1288,0.007 -1.128797,0.007 -1.305152,0.59277 -1.305152,0.59277 -0.694848,0.88336 L 7.36,117.20634 v 0.70909 0.70909 l 0.351306,1.00776 0.351302,1.00775 h 0.301709 0.301705 l 3.586989,-1.47403 z m 156.210989,-8.42489 -0.304,-0.29893 -3.66506,-0.84138 -3.66507,-0.84138 -0.60021,0.15696 -0.60021,0.15695 0.18527,-0.48282 L 160,108.10766 v -0.49115 -0.49115 l 0.72,0.22521 0.72,0.22522 3.03359,0.75185 3.03358,0.75185 0.0942,-0.0942 0.0942,-0.0942 -3.36779,-2.32572 -3.36778,-2.32572 v -0.26532 -0.26533 l 1.04,-0.17288 1.04,-0.17289 3.03644,-0.50472 3.03644,-0.50472 0.0839,-0.0839 0.0839,-0.0839 -3.12036,-0.69479 -3.12036,-0.69479 -0.74346,0.002 -0.74347,0.002 0.11573,-0.56 0.11572,-0.56 0.46774,0.0716 0.46774,0.0715 3.04,0.81453 3.04,0.81453 1.31139,0.0722 1.31139,0.0722 -0.20956,0.78355 -0.20955,0.78355 -0.85839,0.22957 -0.85839,0.22957 -2.8935,0.39542 -2.89349,0.39541 -0.15284,0.2473 -0.15284,0.2473 3.12289,2.15822 3.12289,2.15822 0.0956,0.0699 0.0956,0.0699 -0.21027,0.83776 -0.21026,0.83776 h -0.22131 -0.22131 l -0.304,-0.29892 z m -165.408432,-2.79297 -0.195149,-0.77754 0.15328,-0.24801 0.15328,-0.24802 3.04473,-2.05727 3.044729,-2.05727 0.01178,-0.17292 0.01178,-0.17291 -3.6,-0.58951 -3.6,-0.58951 -0.4,-0.31676 -0.4,-0.31675 0.0022,-0.52082 0.0022,-0.52082 3.757677,-0.74177 3.757677,-0.74177 0.852659,-0.42006 0.852659,-0.42007 0.18297,0.68184 0.182973,0.68183 0.0044,0.38996 0.0044,0.38995 -0.467511,-0.1794 -0.46751,-0.1794 -3.449133,0.72732 -3.449133,0.72732 0.907184,0.24262 0.907188,0.24262 3.329456,0.54637 3.329459,0.54638 -0.0057,0.35313 -0.0057,0.35313 -3.360634,2.20705 -3.360637,2.20704 0.110861,0.11086 0.110861,0.11086 2.979658,-0.65032 2.979657,-0.65032 0.574733,-0.30758 0.574733,-0.30759 h 0.181037 0.181036 l -0.0022,0.56 -0.0022,0.56 -3.757676,0.74177 -3.757677,0.74177 -0.85464,0.42105 -0.85464,0.42105 -0.195152,-0.77753 z M 80.32,98.58667 v -1.25334 l 0.4,-0.1614 0.4,-0.16141 -0.4,-0.0252 -0.4,-0.0253 v -1.08576 -1.08577 l 0.4938,-0.18948 0.4938,-0.1895 -0.34506,-0.64474 -0.34506,-0.64475 h 0.3413 0.34131 l 0.18419,0.48 0.18419,0.48 H 81.95424 82.24 v -0.44576 -0.44577 l 0.4746,-0.18212 0.47461,-0.18212 -0.18884,-0.49212 -0.18884,-0.49211 H 83.16576 83.52 l 0.005,0.4 0.005,0.4 0.2351,-0.35687 0.2351,-0.35687 0.64902,-0.20217 0.64903,-0.20216 1.64839,-1.57223 1.64839,-1.57223 0.66258,-0.2103 0.66259,-0.2103 v -0.46635 -0.46636 l 0.72,-0.30114 0.72,-0.30114 0.56,-0.44622 0.56,-0.44622 v -0.21455 -0.21456 l -1.74048,1.11337 -1.74047,1.11337 -1.28311,0.65459 -1.2831,0.6546 -0.80188,0.80187 -0.80187,0.80187 H 84.49474 84.1602 v 0.42667 0.42666 h -0.40187 -0.40188 l -1.33123,0.84037 -1.33122,0.84037 -0.21867,0.35381 -0.21867,0.35381 -0.52823,-0.46031 -0.52823,-0.46032 -1.20463,-0.2159 -1.20462,-0.2159 -0.23538,0.57779 -0.23537,0.57778 -0.59241,0.97566 -0.59242,0.97566 -1.96758,-0.13287 -1.96759,-0.13288 -0.28211,-0.26331 -0.28211,-0.26331 1.08211,-0.49546 1.08211,-0.49545 0.64,-0.40644 0.64,-0.40643 0.10401,-0.0507 0.10401,-0.0507 0.0747,-0.50926 0.0747,-0.50926 0.62125,-0.49663 0.62124,-0.49663 -0.8,0.21974 -0.8,0.21975 -1.01767,0.83682 -1.01766,0.83683 -1.49949,1.07815 -1.49949,1.07815 0.43716,0.28793 0.43715,0.28793 -0.64,0.48819 -0.64,0.48819 -0.70039,-0.17545 -0.70039,-0.17544 -0.19849,0.32118 -0.1985,0.32117 H 66.36577 65.8892 l -1.32465,-0.64 -1.32465,-0.64 H 62.83815 62.4364 l -0.41815,-0.58596 -0.41814,-0.58596 -1.2419,-1.08398 -1.241904,-1.08398 -1.452512,-0.17006 -1.452512,-0.17006 -0.10865,-0.32919 -0.108653,-0.3292 1.043066,-0.61285 1.043065,-0.61285 0.379428,-0.37452 0.37943,-0.37453 -0.36343,-0.36343 L 58.112,88.32 h 0.381216 0.381216 l 0.953539,-0.99779 0.953536,-0.99778 0.453023,0.17384 0.45303,0.17385 -0.15304,-0.58521 -0.15303,-0.58521 0.63471,-0.20145 0.6347,-0.20145 0.1515,-0.57933 0.1515,-0.57934 1.40305,-0.93752 1.40305,-0.93752 0.30835,-0.69505 0.30835,-0.69505 0.7047,-0.37714 0.70469,-0.37715 0.13714,-0.52442 0.13714,-0.52442 1.56325,-0.79593 1.56324,-0.79593 0.48657,-0.50667 0.48657,-0.50666 0.0642,-0.32594 0.0642,-0.32594 -0.7842,0.14991 -0.7842,0.14991 v 0.2827 0.28269 h -0.48 -0.48 v 0.51424 0.51423 L 69.28,77.32428 68.8,77.14009 v 0.45869 0.4587 l -0.72,0.37798 -0.72,0.37797 -0.2559,0.43328 L 66.8482,79.68 H 66.3841 65.92 l -0.0249,0.4 -0.0249,0.4 -2.25372,1.92 -2.25373,1.92 -1.481374,1.0024 -1.481383,1.00241 -1.413008,1.46372 -1.413008,1.46372 -0.212125,-0.1311 -0.212124,-0.1311 -1.013376,0.92557 -1.013373,0.92557 -1.005005,-0.84565 -1.005005,-0.84566 -0.436486,-1.04466 -0.43649,-1.04466 v -0.36452 -0.36451 l 0.534416,0.20507 0.534416,0.20508 0.260685,-0.41084 0.260682,-0.41084 0.0049,-0.23623 0.0049,-0.23622 -0.72,0.0762 -0.72,0.0762 0.06831,-0.64 0.06831,-0.64 0.126356,-2.62489 0.126352,-2.62489 -0.320628,0.0649 -0.320627,0.0649 -0.955177,-1.33228 -0.955175,-1.33227 0.03011,-1.50097 0.03014,-1.50097 0.196823,-0.62013 0.196819,-0.62013 0.694192,0.18866 0.694192,0.18865 -0.546711,-0.34374 -0.546707,-0.34374 0.18312,-0.47721 0.18312,-0.4772 0.469792,0.0857 0.469792,0.0857 0.715799,-1.32662 0.715801,-1.32662 0.937997,-0.93542 0.937997,-0.93543 0.850909,-0.5557 0.850905,-0.55569 0.743597,-1.08521 0.743597,-1.08521 1.285494,-0.71318 1.285498,-0.71319 0.218886,-0.32859 L 59.797758,61.3106 59.658014,61.08449 59.518278,60.858336 60.50369,60.029168 61.4891,59.2 H 61.94455 62.4 v -0.64 -0.64 h 0.44082 0.44081 l 0.38129,-0.45943 0.3813,-0.459431 0.93422,-0.20519 0.93422,-0.205187 0.21616,-0.349764 0.21617,-0.34976 -0.54461,0.208986 -0.54461,0.208986 -0.18205,-0.474432 -0.18206,-0.474429 -1.24583,0.986713 L 62.4,57.333779 62.39968,57.06689 62.39936,56.8 l -0.75684,0.88 -0.756846,0.88 h -0.33281 -0.33281 l 0.167364,0.64 0.167363,0.64 H 60.04872 59.542656 l -0.314179,0.587046 -0.314179,0.587054 -1.134893,0.77295 -1.134893,0.77295 -0.0022,0.20709 -0.0022,0.2071 -0.88,1.05598 -0.88,1.05598 -0.896368,0.8806 -0.896365,0.8806 L 52.629997,66.67184 52.172611,66.49632 51.848147,65.32816 51.5236,64.16 l -0.0019,-0.98667 -0.0019,-0.98666 0.225434,-0.22544 0.225433,-0.22543 0.114026,-0.85147 0.114029,-0.851472 0.529776,-0.896839 0.529776,-0.896841 0.511097,-0.162215 0.511098,-0.162217 1.132832,-1.037632 1.132832,-1.037632 0.229254,-1.834893 0.229255,-1.834893 0.937577,-0.553843 L 58.8798,51.06201 58.89574,50.731005 58.91168,50.4 l 1.617037,-1.28 1.617033,-1.28 0.81401,-0.873341 0.814,-0.873341 0.60988,-0.193571 0.60989,-0.193571 -0.38245,-0.460819 -0.38245,-0.460823 0.24941,-0.232268 0.24941,-0.232266 0.14361,0.402266 0.14361,0.402262 0.86203,-0.613814 0.86203,-0.613818 1.43055,-1.429261 1.43055,-1.429264 -0.10857,-0.545737 -0.10858,-0.545741 0.64754,0.346553 0.64754,0.346554 h 0.33099 0.331 l -0.18249,-0.475552 -0.18249,-0.475552 0.80145,-0.30471 0.80144,-0.304708 0.20997,-0.33974 L 72.9976,38.4 h 0.78112 0.78111 v -0.285309 -0.285309 l -0.8,-0.200787 -0.8,-0.200787 v -0.33279 -0.332788 l 0.29789,0.184103 0.29789,0.184105 0.201,-0.325219 L 73.9576,36.48 h 0.47868 0.47867 l 1.90244,-1.291923 1.90244,-1.291923 V 33.588077 33.28 h 0.46186 0.46185 l 0.42206,-0.60257 0.42205,-0.602566 1.72181,-1.397434 1.7218,-1.39743 0.78885,-0.611869 0.78885,-0.611865 1.10638,1.172707 1.10638,1.172707 0.69906,-0.16505 0.69905,-0.165046 0.96,0.293645 0.96,0.293645 -1.04,0.42072 -1.04,0.42072 v 0.295196 0.2952 L 87.9896,33.017917 87.01937,33.945123 86.7096,33.753677 86.39983,33.56223 v 0.524013 0.524016 l -1.2,1.213616 -1.2,1.213613 -0.64286,0.198339 -0.64286,0.198336 -0.31714,0.722919 L 82.08,38.88 l -0.32,-0.06091 -0.32,-0.06091 -0.28999,0.700908 -0.28999,0.700906 0.0579,0.263786 0.0579,0.263785 -0.30213,-0.186726 -0.30213,-0.186727 -0.49437,0.494368 -0.49437,0.494372 -0.17143,-0.01142 L 79.04,41.28 v 0.16 0.16 l 0.0245,0.08 0.0245,0.08 0.1072,0.56 0.1072,0.56 h -0.29168 -0.29169 v -0.32 -0.32 h -0.35214 -0.35214 l -1.48786,1.432416 -1.48786,1.432413 -1.04,0.970368 -1.04,0.970371 V 47.362784 47.68 h -0.67469 -0.67469 l 0.20079,0.8 0.20079,0.8 H 71.7128 71.41337 l -0.14578,-0.4 -0.14577,-0.4 -1.17613,1.117536 -1.17612,1.117536 0.17919,0.713939 0.17919,0.713939 -0.53645,-0.205856 -0.53646,-0.205856 0.265,0.428762 0.26499,0.428762 -0.48151,-0.184775 -0.48152,-0.184774 -0.41298,0.255238 -0.41299,0.255242 -0.0435,0.755152 -0.0435,0.755155 -0.53036,-0.08849 -0.53036,-0.08849 -0.19438,0.314512 -0.19438,0.314509 -0.54975,-0.197008 -0.54975,-0.197011 0.2511,0.275421 0.2511,0.27542 1.25548,0.06453 1.25547,0.06453 0.37261,-0.448964 0.3726,-0.448966 h 0.41087 0.41085 l -0.16736,-0.64 -0.16736,-0.64 0.43732,-0.0075 0.43732,-0.0075 1.92,-1.768064 1.92,-1.768064 0.88,-0.646195 0.88,-0.646195 v 0.225792 0.225792 l 0.88209,-1.109972 0.8821,-1.109971 0.44245,0.147485 0.44244,0.147482 -0.19197,-0.310624 -0.19198,-0.310628 0.92023,-0.680355 0.92023,-0.680355 -0.18333,-0.701072 -0.18334,-0.701069 0.67963,0.177725 0.67963,0.177728 1.39298,-0.883405 1.39299,-0.883408 1.13025,-1.163782 1.13025,-1.163783 h 0.42054 0.42054 l 1.48545,-1.590553 1.48544,-1.590554 1.18169,-0.493741 1.18169,-0.49374 v -0.315706 -0.315706 l 0.24,0.0379 0.24,0.03789 0.41889,-0.03789 0.41888,-0.0379 -0.16751,-0.271033 -0.1675,-0.271031 0.92262,-0.883923 0.92261,-0.883926 0.35058,0.216669 0.35058,0.216668 0.59637,1.178288 0.59638,1.178288 0.22351,1.035632 0.22352,1.035632 0.93554,0.666157 0.93553,0.66616 v 0.220083 0.22008 l -1.68,0.782701 -1.68,0.782698 -0.64,-0.0476 -0.64,-0.04759 0.86782,0.360516 0.86783,0.360515 0.15006,0.391046 0.15006,0.391043 -1.06573,0.199933 -1.06573,0.19993 -0.39134,0.471533 -0.39133,0.471532 h 0.21031 0.21032 l -1.14173,1.002452 -1.14173,1.002451 0.65595,0.459443 0.65595,0.459443 -0.21709,0.351261 -0.2171,0.351264 -0.74086,-0.92913 -0.74086,-0.929129 -0.55597,0.555974 -0.55597,0.555971 h 0.45257 0.45257 l -0.34627,0.346272 -0.34627,0.346272 -0.6875,-0.426272 -0.68749,-0.426272 -0.29283,0.470733 -0.29284,0.470733 0.16,0.16 0.16,0.16 0.25084,-0.405878 0.25085,-0.405882 0.41736,0.50288 0.41735,0.50288 -0.2056,0.2056 -0.2056,0.2056 V 47.39447 47.002253 l -0.32086,0.198304 -0.32087,0.198307 0.35809,0.669101 0.35809,0.669101 -0.51722,-0.198477 -0.51723,-0.19848 v 0.285139 0.285142 l -1.15731,0.381946 -1.15731,0.381946 -1.22124,-0.163802 -1.22124,-0.163805 -0.18878,0.491936 -0.18877,0.491936 0.45884,-0.3808 0.45883,-0.380803 0.22949,0.371318 0.22948,0.371316 -0.38557,0.238294 -0.38557,0.238298 0.0887,0.445926 0.0887,0.445926 -0.24643,1.24168 -0.24643,1.24168 -0.375,-0.375004 -0.37501,-0.375005 0.42974,-0.265597 0.42975,-0.265597 -0.9573,-0.140502 -0.9573,-0.140503 0.33538,0.537034 0.33538,0.537037 -0.20824,0.542672 -0.20824,0.542669 -0.34408,-0.21265 -0.34407,-0.21265 0.15221,-0.396649 0.15221,-0.396653 -0.2314,-0.374406 -0.23139,-0.374404 -0.75478,0.803424 -0.75478,0.803424 h 0.65578 0.65578 l 0.21519,1.04 0.21519,1.04 0.42009,-0.56 0.42009,-0.56 h 0.36472 0.36472 v -0.32 -0.32 l 0.24,0.0508 0.24,0.0508 0.56,-0.24504 0.56,-0.24504 0.0128,-0.365763 0.0128,-0.365764 1.57815,-1.245145 1.57815,-1.245146 -0.1562,-0.252742 -0.1562,-0.252743 0.37466,-0.231555 0.37466,-0.231555 -0.22833,0.369443 -0.22832,0.369443 h 0.22868 0.22868 l 1.0576,-0.806672 1.0576,-0.806672 -0.18163,-0.473328 -0.18164,-0.473328 h 0.45024 0.45024 l 0.39732,0.397325 0.39733,0.397325 0.295,-0.477325 0.295,-0.477325 0.41168,-0.01456 0.41167,-0.01456 -0.077,-0.376323 -0.077,-0.376326 2.31696,-1.492611 2.31696,-1.492612 0.85399,-0.791475 0.854,-0.791475 0.3367,0.208093 0.3367,0.208089 0.7293,-0.867984 0.72931,-0.86798 0.5854,-0.505152 0.58539,-0.505152 1.20545,-1.2 1.20545,-1.2 h 2.1046 2.1046 l 0.98455,0.828444 0.98456,0.828448 v 0.355552 0.355556 l -0.36047,-0.360464 -0.36046,-0.360464 -0.78798,0.936464 -0.78799,0.936464 h -0.30451 -0.30451 l -0.94704,0.700179 -0.94704,0.700179 v 0.454058 0.454057 l -0.48,-0.184195 -0.48,-0.184192 v 0.469955 0.469959 h -0.58013 -0.58014 l -0.81296,0.88 -0.81296,0.88 -0.19686,0.56 -0.19687,0.56 h -0.47189 -0.4719 l -0.53134,0.72 -0.53133,0.72 -0.15504,-0.404692 -0.15504,-0.404691 -0.99374,0.83617 -0.99373,0.836169 -0.77057,0.29297 -0.77056,0.29297 0.16752,0.436556 0.16752,0.43656 -0.35899,0.358992 L 95.232,51.84 h 0.23796 0.23797 l 0.86603,-0.81648 0.86604,-0.81648 0.83471,-0.174464 0.83472,-0.174461 1.34084,-1.383558 1.34084,-1.383559 1.26445,-0.213625 1.26444,-0.213629 v -0.440611 -0.440615 l 0.64896,-0.347315 0.64897,-0.347315 -0.18559,-0.300278 -0.18558,-0.300279 0.48007,0.184221 0.48007,0.184218 0.73655,-0.69497 0.73655,-0.694973 1.36731,-0.807603 1.3673,-0.8076 0.32395,-0.605312 0.32396,-0.605312 h 0.24981 0.24982 l 0.66413,1.2 0.66414,1.2 0.21536,1.017888 0.21536,1.017888 0.45943,0.381296 0.45943,0.381293 V 46.119181 46.4 l -0.60275,0.602746 -0.60274,0.602748 -0.88482,-0.169145 -0.88481,-0.169143 0.20373,0.329639 0.20373,0.329638 -0.34748,0.996759 -0.34747,0.996758 h -0.4487 -0.44869 v -0.359181 -0.359184 l -0.46598,0.386733 -0.46598,0.38673 -0.33402,-0.206436 L 108.48,49.56223 v 0.312218 0.312218 l 0.38,0.126668 0.38,0.126666 -0.64444,0.644445 -0.64445,0.644445 -0.20344,0.53016 -0.20344,0.53016 -0.4531,-0.173869 -0.45309,-0.173866 -1.628,0.532493 -1.628,0.532493 -0.23529,0.686768 -0.23529,0.686771 -0.0557,0.24 -0.0557,0.24 -0.04,0.32 -0.04,0.32 h -0.46874 -0.46874 l -0.39925,0.72 -0.39924,0.72 0.0615,0.220499 0.0615,0.220499 -0.6335,0.201066 -0.6335,0.201066 v 0.25406 0.254061 l -0.73712,-0.140909 -0.73711,-0.140908 -0.40056,0.879136 -0.40056,0.879136 0.5591,-0.453853 0.5591,-0.453853 -0.21959,0.36647 -0.21958,0.366468 0.52396,0.201062 0.52396,0.201066 0.0511,-0.08753 0.051,-0.08753 0.55053,-0.88 0.55053,-0.88 h 0.43792 0.43794 l 0.20809,-0.829094 0.20809,-0.829095 0.44012,0.16889 0.44011,0.168889 0.17437,-0.4544 0.17437,-0.4544 0.49459,0.189789 0.49458,0.189789 0.78627,-0.515184 0.78627,-0.515184 h 0.49126 0.49126 v -0.48 -0.48 h 0.32 0.32 l 0.18251,0.08 0.18251,0.08 0.31339,-0.56 0.31339,-0.56 h 0.58492 0.58492 l 0.39544,-0.476477 0.39544,-0.476477 0.31139,0.192452 0.31139,0.192451 1.01235,-0.960675 1.01235,-0.960672 0.8,-0.24121 0.8,-0.241206 0.43237,-0.614397 0.43236,-0.614397 0.62717,0.567581 0.62717,0.567577 0.28307,-0.458006 0.28306,-0.45801 0.21926,0.219261 0.21926,0.219261 0.0381,2.227517 0.0381,2.22752 -0.68609,0.903952 -0.68609,0.903955 -0.67391,-0.07623 -0.67391,-0.07623 V 56.803773 57.28 h -0.30111 -0.30112 L 114.08,56.96 113.88223,56.64 h -0.25674 -0.25674 l 0.15293,0.8 0.15293,0.8 h -0.76082 -0.76081 l -0.79298,0.96 -0.79298,0.96 h -0.57355 -0.57356 l -0.18348,0.478163 -0.18349,0.478157 -0.27346,-0.168998 -0.27345,-0.169002 -0.72911,0.41084 -0.72912,0.41084 -0.42618,0.5659 -0.42617,0.5659 -1.65773,0.83058 -1.65772,0.83058 -0.54948,0.48359 -0.54948,0.4836 -0.6502,-0.17003 -0.6502,-0.17004 -0.19236,0.31125 -0.19237,0.31125 0.59205,0.47882 0.59204,0.4788 -0.48,-0.12979 -0.48,-0.12981 -1.22805,0.63664 -1.22806,0.63662 -0.16618,0.43307 -0.16618,0.43307 h -0.42762 -0.42762 l -0.44685,0.63796 -0.44684,0.63797 -0.1839,-0.18389 -0.18389,-0.18389 -0.67637,0.36198 -0.67637,0.36198 0.18785,0.30394 0.18785,0.30395 h -0.48884 -0.48884 l 0.15465,-0.56 0.15465,-0.56 -0.48561,1.04 -0.48562,1.04 h -0.19332 -0.19331 l 0.18026,-0.46975 0.18026,-0.46975 -0.28299,-0.1749 -0.28298,-0.17489 -0.2046,0.64464 L 91.79687,71.68 H 91.49844 91.2 v 0.53333 0.53334 L 90.98944,72.53611 90.77889,72.32555 90.34944,72.68196 89.92,73.03836 V 73.63918 74.24 h -0.48 -0.48 v 0.32 0.32 h -0.48792 -0.48792 l -0.30416,0.8 -0.30416,0.8 h -0.30903 -0.30904 l -0.1841,-0.29789 -0.18411,-0.29789 0.32522,-0.20099 0.32522,-0.201 -0.0253,-0.54112 -0.0252,-0.54111 -0.18665,0.48 -0.18665,0.48 -0.38971,0.32 -0.3897,0.32 -0.21418,0.91866 -0.21418,0.91865 0.51866,-0.51865 0.51865,-0.51866 0.69714,-0.0498 0.69715,-0.0498 0.8,0.0715 0.8,0.0715 -0.4,-0.40572 -0.4,-0.40572 v -0.23252 -0.23251 l 1.74437,-0.99803 1.74438,-0.99803 -0.16295,-0.42463 -0.16294,-0.42463 0.75733,0.14477 0.75732,0.14477 1.0299,-0.96207 1.02991,-0.96207 0.93631,-0.20565 0.93632,-0.20565 0.73502,-0.57263 0.73503,-0.57263 1.0494,-0.53832 1.0494,-0.53832 0.33214,0.20527 0.33214,0.20527 0.17578,-0.67219 0.17578,-0.6722 h 0.55308 0.55309 l 0.57919,-0.64 0.57919,-0.64 h 0.45911 0.45911 l 0.54827,-0.67708 0.54828,-0.67709 0.84473,-0.0927 0.84474,-0.0927 0.34351,-0.2123 0.3435,-0.21229 -0.16115,-0.26075 -0.16116,-0.26075 1.03594,-0.39137 1.03593,-0.39138 1.09137,-0.52576 1.09137,-0.52577 0.79536,-0.72 0.79536,-0.72 0.51327,-0.05474 0.51327,-0.05474 0.64,-0.03821 0.64,-0.03822 -0.094,-0.547049 -0.094,-0.54705 h 0.31116 0.31117 l 0.47909,-0.479082 0.47908,-0.479078 0.46954,0.180179 0.46954,0.180179 0.22406,1.793344 0.22407,1.793347 0.96401,0.87171 0.96402,0.87171 0.67455,0.59384 0.67454,0.59385 0.89161,0.5553 0.89161,0.55529 v 0.69353 0.69354 l -1.88458,1.83837 -1.88459,1.83836 -0.6857,0.21763 -0.68569,0.21763 -0.80395,0.80395 -0.80395,0.80395 -0.45552,-0.1748 -0.45552,-0.1748 -0.19874,0.32156 -0.19874,0.32157 -0.45883,-0.3808 -0.45884,-0.3808 0.20613,0.53718 0.20614,0.53718 -0.56274,0.62182 -0.56275,0.62182 -1.03863,0.19485 -1.03863,0.19485 0.13293,0.53141 0.13292,0.53141 -1.29818,0.73405 -1.29818,0.73406 -0.27864,-0.17222 -0.27866,-0.17221 -0.18349,0.47816 -0.18348,0.47816 h -0.49614 -0.49614 l 0.20104,0.80101 0.20104,0.80101 -1.07495,0.22659 -1.07494,0.2266 -0.24,-0.0676 -0.24,-0.0676 v 0.32212 0.32211 l -0.82564,0.71789 -0.82564,0.71788 -0.61436,0.04 -0.61436,0.04 -0.30191,0.04 -0.30191,0.04 -0.5476,0.92702 -0.5476,0.92702 -1.15049,0.19248 -1.15049,0.19248 -1.04928,0.93074 -1.04928,0.93074 0.38685,0.12895 0.38685,0.12895 -0.2173,0.5663 -0.21731,0.56629 -0.96026,-0.21091 -0.96027,-0.21091 v 0.42845 0.42845 l -0.64,0.39969 -0.64,0.39968 v 0.43068 0.43066 l -1.52,0.49234 -1.52,0.49234 0.0436,0.96155 0.0436,0.96156 -0.88505,0.17701 -0.88506,0.17701 -0.49571,0.49571 -0.49571,0.49572 h -0.31964 -0.31963 l -0.62074,0.78915 -0.62075,0.78915 -0.21988,-0.21988 -0.21988,-0.21989 -0.3026,0.47074 -0.3026,0.47073 -0.34776,-0.48 -0.34776,-0.48 0.14719,0.67943 0.1472,0.67944 -0.61834,-0.1617 -0.61834,-0.1617 -0.17748,0.67866 -0.17747,0.67867 -0.25009,-0.15456 -0.25009,-0.15456 -0.18349,0.47816 -0.18348,0.47816 h -0.45086 -0.45087 l -0.39836,0.48 -0.39836,0.48 H 80.60082 80.32 Z m 1.92,-2.40778 v -0.14112 l -0.36944,-0.22833 -0.36945,-0.22833 0.22833,0.36945 0.22833,0.36944 H 82.09889 82.24 Z M 65.12,95.04 65.31777,94.72 h -0.32 -0.32 L 64.48,95.04 64.28223,95.36 h 0.32 0.32 z m 20.99322,-0.73478 -0.34255,-0.34255 -0.19738,0.19737 -0.19738,0.19738 0.21416,0.34651 0.21415,0.34651 0.32577,-0.20134 0.32577,-0.20134 z M 66.45333,93.86667 66.24,93.65333 66.02667,93.86667 65.81333,94.08 H 66.24 66.66667 Z M 68.16,93.6 V 93.44 H 68 67.84 v 0.16 0.16 H 68 68.16 Z M 65.6,93.28 v -0.16 h -0.16 -0.16 v 0.16 0.16 h 0.16 0.16 z M 89.28,92 V 91.84 H 89.12 88.96 V 92 92.16 h 0.16 0.16 z M 69.90633,91.54211 70.09044,91.24422 69.76522,91.04323 69.44,90.84223 V 91.34111 91.84 h 0.14111 0.14112 z M 65.92,91.05889 V 90.91777 L 65.55056,90.68944 65.18111,90.46111 65.40944,90.83056 65.63777,91.2 H 65.77889 65.92 Z M 88.32,90.72 V 90.56 H 88.16 88 v 0.16 0.16 h 0.16 0.16 z M 79.57333,90.34667 79.36,90.13333 79.14667,90.34667 78.93333,90.56 H 79.36 79.78667 Z M 88,90.08 v -0.16 h -0.16 -0.16 v 0.16 0.16 H 87.84 88 Z M 63.36,89.6 V 89.28 H 63.05889 62.75777 L 62.56,89.6 62.36223,89.92 H 62.86111 63.36 Z M 91.73333,89.70667 91.52,89.49333 91.30667,89.70667 91.09333,89.92 H 91.52 91.94667 Z M 77.76,88.88658 V 88.56164 L 77.28,88.96 76.8,89.35836 v 0.11078 0.11077 l 0.48,-0.18419 0.48,-0.18419 z m -6.54311,0.10075 -0.18088,-0.29267 0.33,-0.16333 0.32999,-0.16333 -0.388,0.076 -0.388,0.076 -0.12667,0.38 -0.12666,0.38 h 0.36555 0.36555 z m 3.90985,-0.28755 0.12674,-0.38022 -0.50674,0.19446 -0.50674,0.19445 v 0.31243 0.31243 L 74.62,89.20667 75,89.08 Z M 72.32,88.8 V 88.64 H 72.16 72 v 0.16 0.16 h 0.16 0.16 z m 6.08,-0.32 v -0.16 h -0.16 -0.16 v 0.16 0.16 h 0.16 0.16 z M 53.333334,88.10667 53.12,87.89333 52.906666,88.10667 52.693334,88.32 H 53.12 53.546666 Z M 90.77333,87.46667 90.56,87.25333 V 87.68 88.10667 L 90.77333,87.89333 90.98667,87.68 Z m 2.51514,-0.36487 -0.17914,-0.17913 -0.39466,0.39762 -0.39467,0.39763 0.5738,-0.21849 0.5738,-0.2185 z M 77.65333,86.82667 77.44,86.61333 V 87.04 87.46667 L 77.65333,87.25333 77.86667,87.04 Z M 74.24,86.88 v -0.16 h -0.16 -0.16 v 0.16 0.16 h 0.16 0.16 z m 7.66444,-0.62125 0.3254,-0.39208 H 81.75492 81.28 V 86.13333 86.4 H 80.8 80.32 v 0.29004 0.29004 l 0.62952,-0.16462 0.62951,-0.16462 z M 84.64,86.72 84.83777,86.4 h -0.16 -0.16 L 84.32,86.72 84.12223,87.04 h 0.16 0.16 z M 96.53333,86.50667 96.32,86.29333 V 86.72 87.14667 L 96.53333,86.93333 96.74667,86.72 Z M 79.04,86.56 V 86.4 h -0.16 -0.16 v 0.16 0.16 h 0.16 0.16 z M 93.65333,86.18667 93.44,85.97333 93.22667,86.18667 93.01333,86.4 H 93.44 93.86667 Z M 54.4,85.92 v -0.16 h -0.16 -0.16 v 0.16 0.16 h 0.16 0.16 z M 68.69333,85.54667 68.48,85.33333 V 85.76 86.18667 L 68.69333,85.97333 68.90667,85.76 Z M 85.76,85.92 V 85.76 H 85.6 85.44 v 0.16 0.16 h 0.16 0.16 z m -11.75538,-0.35129 0.19128,-0.19128 -0.17532,-0.45688 -0.17532,-0.45689 -0.43911,0.36443 -0.4391,0.36443 0.17536,0.28374 0.17536,0.28374 h 0.24778 0.24778 z M 75.09333,84.90667 74.88,84.69333 V 85.12 85.54667 L 75.09333,85.33333 75.30667,85.12 Z m 8,0.32 L 82.88,85.01333 82.66667,85.22667 82.45333,85.44 H 82.88 83.30667 Z M 79.36,84.8 v -0.32 h -0.32 -0.32 v 0.32 0.32 h 0.32 0.32 z m 5.41898,-0.59019 -0.32009,-0.11018 -0.46945,0.18014 -0.46944,0.18014 v 0.29994 0.29994 L 84.30954,84.68989 85.09908,84.32 Z M 52.8,84.29531 53.6,83.8133 52.8,84.02262 52,84.23193 51.696,84.51596 51.392,84.8 51.696,84.7887 52,84.7774 52.8,84.29539 Z M 69.12,84.64 V 84.48 H 68.96 68.8 v 0.16 0.16 h 0.16 0.16 z m 20.16,0 v -0.16 h -0.16 -0.16 v 0.16 0.16 h 0.16 0.16 z m 6.22014,-1.34364 0.16109,-0.41979 -1.27062,0.64822 -1.27061,0.64822 v 0.27447 0.27448 l 1.10953,-0.5029 1.10952,-0.50291 z M 56.96,84.32 V 84.16 H 56.8 56.64 v 0.16 0.16 h 0.16 0.16 z M 70.29333,83.94667 70.08,83.73333 V 84.16 84.58667 L 70.29333,84.37333 70.50667,84.16 Z M 75.04,84.16 74.84223,83.84 74.46111,83.845 74.08,83.85 l 0.48,0.3102 0.48,0.3102 0.0989,0.005 0.0989,0.005 z M 76.96075,83.76278 77.22261,84 77.00106,83.61397 76.7795,83.22795 76.30975,83.40821 75.84,83.58847 v 0.32495 0.32494 l 0.42944,-0.3564 0.42945,-0.35641 z M 80.05867,83.45067 79.68,83.072 v 0.33067 0.33066 l 0.21333,0.21334 0.21334,0.21333 0.16533,-0.16533 0.16533,-0.16534 z M 100.8,83.68 v -0.16 h -0.16 -0.16 v 0.16 0.16 h 0.16 0.16 z m -18.26249,-1.87918 0.0225,-0.27918 -0.46098,0.38257 -0.46098,0.38258 0.19694,0.51321 0.19694,0.51321 0.24155,-0.61661 0.24155,-0.6166 0.0225,-0.27918 z M 88,83.01714 v -0.18286 l -0.48892,-0.48892 -0.48892,-0.48892 -0.51356,0.42621 -0.51355,0.42621 0.76248,0.21367 L 87.52,83.1362 87.76,83.1681 88,83.2 V 83.01715 Z M 59.635722,82.4 59.451526,81.92 H 59.325763 59.2 v 0.48 0.48 h 0.309958 0.309956 z M 85.12,82.72 V 82.56 H 84.96 84.8 v 0.16 0.16 h 0.16 0.16 z M 58.24,82.41889 V 82.27777 L 57.870557,82.04944 57.501114,81.82111 57.729443,82.19056 57.95777,82.56 H 58.098886 58.24 Z m 3.2,-0.0189 v -0.16 h -0.16 -0.16 v 0.16 0.16 h 0.16 0.16 z m 16.32,-0.64 v -0.16 H 77.6 77.44 v 0.16 0.16 h 0.16 0.16 z m 15.68,0 v -0.16 h -0.16 -0.16 v 0.16 0.16 h 0.16 0.16 z m 3.84,0 v -0.16 h -0.16 -0.16 v 0.16 0.16 h 0.16 0.16 z M 78.93333,81.38665 78.72,81.17331 78.50667,81.38665 78.29333,81.59998 H 78.72 79.14667 Z m 19.47983,-0.12796 0.21093,-0.34129 -0.14645,-0.14644 -0.14644,-0.14645 -0.40478,0.48774 -0.40478,0.48773 h 0.34029 0.3403 z M 53.44,81.12 v -0.16 h -0.16 -0.16 v 0.16 0.16 h 0.16 0.16 z m 26.24,0 v -0.16 h -0.16 -0.16 v 0.16 0.16 h 0.16 0.16 z m 21.44,0 v -0.16 h -0.16 -0.16 v 0.16 0.16 h 0.16 0.16 z M 54.557734,80.64366 54.753242,80.32733 54.256621,80.5179 53.76,80.70847 V 80.83424 80.96 h 0.301114 0.301116 z M 91.52,80.48 V 80.32 H 91.36 91.2 v 0.16 0.16 h 0.16 0.16 z M 57.92,80.16 V 80 H 57.76 57.6 v 0.16 0.16 h 0.16 0.16 z m 4.8,0 V 80 H 62.56 62.4 v 0.16 0.16 h 0.16 0.16 z M 63.89333,80.1067 63.68,79.89336 63.46667,80.1067 63.25333,80.32003 H 63.68 64.10667 Z M 80.96,80.16 V 80 H 80.8 80.64 v 0.16 0.16 h 0.16 0.16 z M 83.73333,79.78667 83.52,79.57333 V 80 80.42667 L 83.73333,80.21333 83.94667,80 Z m 1.92,0.32 L 85.44,79.89333 85.22667,80.10667 85.01333,80.32 H 85.44 85.86667 Z M 90.08,80 90.27777,79.68 H 89.93889 89.6 V 80 80.32 h 0.14111 0.14112 z m 9.76,0.16 V 80 h -0.16 -0.16 v 0.16 0.16 h 0.16 0.16 z m -24,-0.32 V 79.68 H 75.68 75.52 V 79.84 80 h 0.16 0.16 z m 30.72,-0.48 0.34252,-0.64 h -0.26726 -0.26726 l -0.384,0.384 -0.384,0.384 V 79.744 80 h 0.30874 0.30874 z m -30.08,0.16 v -0.16 h -0.16 -0.16 v 0.16 0.16 h 0.16 0.16 z M 93.10249,78.2611 93.51836,77.76 h -0.20367 -0.20367 l -1.11155,0.72 -1.11155,0.72 -0.004,0.24822 -0.004,0.24822 0.9033,-0.46712 0.90331,-0.46712 0.41588,-0.5011 z M 93.76,79.52 V 79.36 H 93.6 93.44 v 0.16 0.16 h 0.16 0.16 z M 58.88,79.2 v -0.16 h -0.16 -0.16 v 0.16 0.16 h 0.16 0.16 z m 24,0 v -0.16 h -0.16 -0.16 v 0.16 0.16 h 0.16 0.16 z m 0.5386,-0.54 -0.16808,-0.42 -0.0252,0.61333 -0.0253,0.61334 0.19333,-0.19334 L 83.58668,79.08 83.41861,78.66 Z M 96.64,78.88 97.03836,78.4 H 96.51918 96 v 0.48 0.48 h 0.12082 0.12082 z M 53.44,78.72 V 78.4 H 53.12 52.8 v 0.32 0.32 h 0.32 0.32 z m 31.68,-0.14996 v -0.46995 l -0.47816,0.18348 -0.47816,0.18349 0.17704,0.28647 0.17705,0.28647 H 84.81889 85.12 Z M 56.447098,78.26043 56.64,78.4 56.480512,78.18718 56.321024,77.97436 55.520512,77.88906 54.72,77.80366 v 0.45025 0.45025 l 0.767098,-0.29165 0.767094,-0.29165 z M 64.16,78.4 64.35777,78.08 h -0.16 -0.16 L 63.84,78.4 63.64223,78.72 h 0.16 0.16 z m 7.2,0.16 V 78.4 H 71.2 71.04 v 0.16 0.16 h 0.16 0.16 z m 3.84,0 V 78.4 h -0.16 -0.16 v 0.16 0.16 h 0.16 0.16 z m 1.39043,-0.9738 -0.1895,-0.4938 -0.1525,0.15251 -0.15252,0.15251 0.21093,0.34129 0.21093,0.34129 h 0.13107 0.13107 z M 104.8,77.44 l 0.19777,-0.32 h -0.16 -0.16 l -0.19777,0.32 -0.19777,0.32 h 0.16 0.16 z M 90.24,77.28 v -0.16 h -0.16 -0.16 v 0.16 0.16 h 0.16 0.16 z M 66.56,76.96 V 76.8 H 66.4 66.24 v 0.16 0.16 h 0.16 0.16 z m 39.89333,-0.0533 -0.21333,-0.21334 -0.21333,0.21334 -0.21334,0.21333 h 0.42667 0.42667 z M 51.949443,76.37611 52.16,76.58667 V 76.2368 75.88693 l 0.56,-0.14634 0.56,-0.14635 -0.88,-0.0371 -0.88,-0.0371 v 0.35731 0.3573 l -0.873914,-0.16706 -0.873916,-0.16706 0.60766,0.44433 0.607661,0.44434 0.375696,-0.31181 0.375699,-0.3118 z M 54.491622,75.40937 54.32,75.13167 54.044899,75.56584 53.769802,76 l -0.0049,0.46116 -0.0049,0.46116 0.451622,-0.61763 0.451626,-0.61763 -0.171626,-0.27769 z M 94.72608,76.31268 95.13052,75.82535 94.60526,76.02691 94.08,76.22847 V 76.51424 76.8 h 0.12082 0.12082 z M 62.72,76.33888 v -0.14111 l -0.36944,-0.22833 -0.36945,-0.22833 0.22833,0.36944 0.22833,0.36945 H 62.57889 62.72 Z m 27.52,-0.0189 v -0.16 h -0.16 -0.16 v 0.16 0.16 h 0.16 0.16 z M 102.29333,75.62665 102.08,75.41331 v 0.42667 0.42667 l 0.21333,-0.21334 0.21334,-0.21333 z M 109.76,76 v -0.16 h -0.16 -0.16 V 76 76.16 h 0.16 0.16 z M 98.45333,75.62667 98.24,75.41333 98.02667,75.62667 97.81333,75.84 H 98.24 98.66667 Z M 110.51572,75.36 110.33153,74.88 H 110.20576 110.08 v 0.48 0.48 h 0.30996 0.30995 z M 66.88,75.36 V 75.2 h -0.16 -0.16 v 0.16 0.16 h 0.16 0.16 z m 6.72568,-0.81062 0.32913,-0.61498 -0.48557,0.18633 -0.48556,0.18633 0.17704,0.28647 0.17705,0.28647 H 72.97889 72.64 v 0.33889 0.33888 l 0.31828,-0.19671 0.31828,-0.1967 z M 96.32,75.36 V 75.2 H 96.16 96 v 0.16 0.16 h 0.16 0.16 z m -40.329267,-0.4675 0.470733,-0.2977 -0.274544,-0.2574 -0.274541,-0.2574 -0.14352,0.40199 -0.143523,0.402 L 55.332669,74.70311 55.04,74.52223 V 74.86111 75.2 l 0.24,-0.005 0.24,-0.005 0.470733,-0.2977 z M 92.16,75.04 V 74.88 H 92 91.84 v 0.16 0.16 H 92 92.16 Z m 2.24,0.0392 v -0.12082 l -0.56,-0.43918 -0.56,-0.43918 0.43918,0.56 0.43918,0.56 H 94.27918 94.4 Z M 72.32,74.72 V 74.56 H 72.16 72 v 0.16 0.16 h 0.16 0.16 z m 8,-0.32 V 74.24 H 80.16 80 v 0.16 0.16 h 0.16 0.16 z m 25.28,0 v -0.16 h -0.16 -0.16 v 0.16 0.16 h 0.16 0.16 z M 57.28,73.56223 v -0.32 L 56.96,73.44 56.64,73.63777 v 0.32 0.32 L 56.96,74.08 57.28,73.88223 Z M 55.68,73.76 V 73.6 h -0.16 -0.16 v 0.16 0.16 h 0.16 0.16 z m 27.84,0 V 73.6 H 83.36 83.2 v 0.16 0.16 h 0.16 0.16 z M 96.23333,73.7267 96.04,73.53336 l -0.42,0.16807 -0.42,0.16808 0.61333,0.0252 0.61334,0.0253 -0.19334,-0.19333 z m 2.8044,-0.12301 0.19551,-0.31633 -0.49662,0.19057 L 98.24,73.6685 v 0.12577 0.12576 h 0.30111 0.30112 z M 74.69199,73.4065 75.19632,73.21297 75.01928,72.9265 74.84223,72.64003 75.42111,72.63503 76,72.63003 75.53785,72.33763 75.07569,72.04523 74.49785,72.71149 73.92,73.37776 v 0.11103 0.11104 h 0.13383 0.13383 L 74.69199,73.4063 Z M 79.04,73.44 v -0.16 h -0.16 -0.16 v 0.16 0.16 h 0.16 0.16 z m 34.45333,-0.37333 -0.21333,-0.21334 -0.21333,0.21334 -0.21334,0.21333 h 0.42667 0.42667 z M 58.56,72.64 58.08,72.3298 57.84,72.3248 57.6,72.3198 v 0.32 0.32 l 0.72,-0.005 0.72,-0.005 z M 68.05333,72.42667 67.84,72.21333 V 72.64 73.06667 L 68.05333,72.85333 68.26667,72.64 Z m -7.772648,-1.35404 0.512272,-0.42515 -0.178589,-0.28896 -0.178589,-0.28896 -0.277622,0.17158 -0.277626,0.17158 -0.46615,0.93442 -0.466151,0.93442 0.19353,0.19353 0.193529,0.19353 0.21656,-0.58542 0.216564,-0.58542 z M 70.08,72.16 V 72 h -0.16 -0.16 v 0.16 0.16 h 0.16 0.16 z m 32,-0.0914 v -0.25143 h -0.64 -0.64 v 0.25143 0.25143 h 0.64 0.64 z m -25.12,-0.3135 0.32,-0.2351 0.635,-0.8 0.63499,-0.8 -1.11339,0.96 -1.1134,0.96 -0.13493,0.08 L 76.05333,72 76.34667,71.995 76.64,71.99 76.96,71.7549 Z m 10.08,-0.25399 v -0.49888 l -0.32522,0.201 -0.32522,0.20099 0.18411,0.29789 L 86.75777,72 H 86.89889 87.04 Z m 24.16,0.17889 0.19777,-0.32 h -0.32 -0.32 L 110.56,71.68 110.36223,72 h 0.32 0.32 z m 7.52,-0.60576 v -0.21115 l -1.36,0.13278 -1.36,0.13277 0.61801,0.22022 0.61801,0.22021 0.74199,-0.14184 0.74199,-0.14184 z M 52.48,71.2 v -0.16 h -0.16 -0.16 v 0.16 0.16 h 0.16 0.16 z M 81.81333,71.1467 81.6,70.93336 81.38667,71.1467 81.17333,71.36003 H 81.6 82.02667 Z m 21.29067,-0.17067 -0.384,-0.384 -0.384,0.384 -0.384,0.384 h 0.768 0.768 z m -41.184,-0.576 0.19777,-0.32 H 61.77889 61.44 v 0.32 0.32 h 0.14111 0.14112 z m 21.92,0.16 v -0.16 h -0.16 -0.16 v 0.16 0.16 h 0.16 0.16 z m -12.64,-0.8 0.19777,-0.32 H 70.89889 70.4 v 0.32 0.32 h 0.30111 0.30112 z M 104.05867,69.37067 103.68,68.992 v 0.33067 0.33066 l 0.21333,0.21334 0.21334,0.21333 0.16533,-0.16533 0.16533,-0.16534 z M 112.48,69.76 l 0.19777,-0.32 -0.25888,0.005 -0.25889,0.005 -0.48,0.3102 -0.48,0.3102 0.54111,0.005 0.54112,0.005 0.19777,-0.32 z M 54.934624,68.90796 54.762579,68.73591 54.387126,68.96796 54.01167,69.2 54.445837,69.46974 54.88,69.73949 54.993334,69.40974 55.106666,69.08 Z M 76.48,69.6 v -0.16 h -0.16 -0.16 v 0.16 0.16 h 0.16 0.16 z m 11.52,0 v -0.16 h -0.16 -0.16 v 0.16 0.16 H 87.84 88 Z m 30.4,0 v -0.16 h -0.16 -0.16 v 0.16 0.16 h 0.16 0.16 z M 56,69.28 v -0.16 h -0.16 -0.16 v 0.16 0.16 H 55.84 56 Z m 7.04,0.0189 V 69.15778 L 62.72,68.96001 62.4,68.76224 v 0.33889 0.33888 h 0.32 0.32 z m 0.8,-0.47017 v -0.23795 l 1.04,-1.04 1.04,-1.04 V 66.3258 66.14082 l -0.64,0.57919 -0.64,0.5792 -0.01,-0.2896 -0.01,-0.2896 -0.32617,0.56 -0.32617,0.56 h -0.46409 -0.4641 v 0.30112 0.30111 l 0.32522,0.201 0.32521,0.201 -0.21652,0.37789 -0.21652,0.37788 0.2913,-0.26666 0.29131,-0.26667 V 68.82873 Z M 84.8,68.96 V 68.8 h -0.16 -0.16 v 0.16 0.16 h 0.16 0.16 z M 61.44,68.64 v -0.16 h -0.16 -0.16 v 0.16 0.16 h 0.16 0.16 z m 53.76,0 v -0.16 h -0.16 -0.16 v 0.16 0.16 h 0.16 0.16 z M 66.88,68.32 v -0.16 h -0.16 -0.16 v 0.16 0.16 h 0.16 0.16 z m 38.72,-1.62625 v -0.24531 l -0.79014,0.7423 -0.79014,0.74229 0.17565,0.28421 0.17565,0.2842 0.61449,-0.78119 0.61449,-0.7812 z m 8.32,1.62625 v -0.16 h -0.16 -0.16 v 0.16 0.16 h 0.16 0.16 z m -40,-0.64 V 67.52 H 73.76 73.6 v 0.16 0.16 h 0.16 0.16 z M 76.69333,67.6267 76.48,67.41336 76.26667,67.6267 76.05333,67.84003 H 76.48 76.90667 Z m 11.52,-1.28 L 88,66.13336 v 0.42667 0.42667 l 0.21333,-0.21334 0.21334,-0.21333 z M 95.84,66.56 96.03777,66.24 H 95.69889 95.36 v 0.32 0.32 h 0.14111 0.14112 z M 64.32,66.4 V 66.24 H 64.16 64 v 0.16 0.16 h 0.16 0.16 z m 2.8751,-0.88 0.005,-0.24 h -0.48 -0.48 v 0.13383 0.13383 l 0.20453,0.533 0.20454,0.533 0.27056,-0.42683 0.27057,-0.42683 0.005,-0.24 z M 76.8,65.44 77.19836,64.96 h -0.32494 -0.32495 l -0.18419,0.48 -0.18419,0.48 h 0.11077 0.11078 z m 13.76,0.17889 V 65.31777 L 90.24,65.12 89.92,64.92223 V 65.42111 65.92 h 0.32 0.32 z M 93.12,65.76 V 65.6 H 92.96 92.8 v 0.16 0.16 h 0.16 0.16 z M 112.21333,65.38667 112,65.17333 V 65.6 66.02667 L 112.21333,65.81333 112.42667,65.6 Z M 119.04,65.76 V 65.6 h -0.16 -0.16 v 0.16 0.16 h 0.16 0.16 z M 71.36,65.44 V 65.28 H 71.2 71.04 v 0.16 0.16 h 0.16 0.16 z M 53.673334,65.08667 53.48,64.89333 l -0.42,0.16807 -0.42,0.16808 0.613334,0.0252 0.613332,0.0253 -0.193332,-0.19333 z M 60.8,64.64 v -0.32 h -0.32 -0.32 v 0.32 0.32 h 0.32 0.32 z m 8.53653,-0.4 0.6481,-0.72 0.18867,-0.5366 0.18866,-0.53661 -0.41852,-0.34734 -0.41852,-0.34734 -0.34907,0.42059 -0.34907,0.4206 0.17709,0.67716 0.17708,0.67717 -0.91048,0.49337 -0.91047,0.49337 0.66422,0.0128 0.66422,0.0128 0.64809,-0.72 z m 48.3168,0.50667 -0.21333,-0.21334 -0.21333,0.21334 -0.21334,0.21333 h 0.42667 0.42667 z M 53.018595,63.94 l -0.16807,-0.42 -0.02525,0.61333 -0.02528,0.61334 0.193334,-0.19334 L 53.18666,64.36 53.01859,63.94 Z M 65.28,64.32 V 64 H 65.13889 64.99777 L 64.8,64.32 64.60223,64.64 H 64.94111 65.28 Z m 28.48,-0.97014 v -0.25653 l 0.88,-0.3214 0.88,-0.32141 -1.04792,-0.0252 -1.04792,-0.0253 -0.31653,0.83253 L 92.7911,64.06508 92.31555,63.88259 91.84,63.7001 v 0.25663 0.25662 l 0.19668,0.19668 0.19668,0.19667 0.76332,-0.50014 0.76332,-0.50015 v -0.25653 z m 4.16,1.14903 V 64.35777 L 97.6,64.16 97.28,63.96223 V 64.30111 64.64 h 0.32 0.32 z M 101.01333,63.78667 100.8,63.57333 V 64 64.42667 L 101.01333,64.21333 101.22667,64 Z M 54.4,63.52 v -0.16 h -0.16 -0.16 v 0.16 0.16 h 0.16 0.16 z m 25.76847,-0.7382 -0.17914,-0.17913 -0.39466,0.39762 -0.39467,0.39763 0.5738,-0.21849 0.5738,-0.2185 z M 74.24,62.88 v -0.16 h -0.16 -0.16 v 0.16 0.16 h 0.16 0.16 z m 29.65333,-0.37333 -0.21333,-0.21334 -0.21333,0.21334 -0.21334,0.21333 h 0.42667 0.42667 z M 61.44,62.24 v -0.16 h -0.16 -0.16 v 0.16 0.16 h 0.16 0.16 z m 11.30156,-0.11916 0.26157,-0.0408 -0.20249,-0.63799 -0.20249,-0.637984 0.46564,0.178684 0.46563,0.17868 1.98468,-1.770897 1.98468,-1.770899 0.2257,0.0702 0.2257,0.0702 1.02613,-0.860365 1.02612,-0.860361 -0.29388,-0.181632 -0.29389,-0.181629 -0.12622,0.378649 -0.12621,0.37865 -0.38112,-0.235542 -0.38111,-0.23554 -0.01,-1.021116 -0.01,-1.021114 -0.31398,0.538224 -0.31398,0.538221 -0.11937,0.901779 -0.11936,0.901776 -0.22166,0.535258 -0.22167,0.535257 -0.48413,0.185783 -0.48414,0.185779 -0.28174,-0.174125 -0.28174,-0.174128 -0.20886,0.832176 -0.20887,0.832173 -0.44052,-0.169043 -0.44051,-0.169044 V 59.530042 59.84 h -0.62112 -0.62111 l -0.21889,0.354163 -0.21888,0.354167 -0.23398,-0.378589 -0.23399,-0.378589 -0.65944,1.117667 -0.65944,1.117671 0.14263,0.14262 0.14262,0.14262 0.7108,-0.075 0.7108,-0.075 0.26156,-0.0408 z m 25.3112,-0.60773 0.79518,0.15201 0.16411,-0.42768 0.16412,-0.427677 L 98.54808,60.473622 97.92,60.137482 V 60.372742 60.608 L 97.536,60.224 97.152,59.84 h -0.26726 -0.26726 l 0.34252,0.64 0.34252,0.64 H 96.99014 96.67777 L 96.48,60.8 96.28223,60.48 h -0.26381 -0.26381 l -0.1508,0.78884 -0.15079,0.78883 0.35349,0.12941 0.35349,0.12941 0.54879,-0.47769 0.54878,-0.4777 z M 56,61.92 v -0.16 h -0.16 -0.16 v 0.16 0.16 H 55.84 56 Z m 25.92,-0.33031 v -0.49031 l 0.69471,-0.256993 0.69471,-0.256992 -0.35405,-0.218813 -0.35405,-0.218812 -0.78672,0.78672 -0.78672,0.78672 0.17939,0.17939 0.1794,0.1794 H 81.65333 81.92 Z M 88,61.28 v -0.16 h -0.16 -0.16 v 0.16 0.16 H 87.84 88 Z m -30.75712,-1.04 -0.03712,-0.88 -0.146346,0.56 -0.146342,0.56 H 56.597651 56.28223 L 56.48,60.8 56.67777,61.12 H 56.978886 57.28 Z M 70.08,60.96 V 60.8 h -0.16 -0.16 v 0.16 0.16 h 0.16 0.16 z m 33.6,0 V 60.8 h -0.16 -0.16 v 0.16 0.16 h 0.16 0.16 z M 90.45333,59.946666 90.24,59.733334 V 60.16 60.586666 L 90.45333,60.373334 90.66667,60.16 Z M 77.44,59.84 V 59.52 H 77.13889 76.83777 L 76.64,59.84 76.44223,60.16 H 76.94111 77.44 Z M 83.84,60 V 59.84 H 83.68 83.52 V 60 60.16 h 0.16 0.16 z m 1.92641,-0.963312 0.93462,-0.483312 0.34074,-0.636688 L 87.38252,57.28 H 87.04656 86.7106 l -1.1953,1.111341 -1.1953,1.111341 0.25589,0.0087 0.25589,0.0087 0.93463,-0.483312 z M 64.64,59.058886 V 58.91777 L 64.27056,58.689443 63.90111,58.461114 64.12944,58.830557 64.35777,59.2 H 64.49889 64.64 Z m 37.44,-0.01888 v -0.16 h -0.16 -0.16 v 0.16 0.16 h 0.16 0.16 z m -29.12,-0.96 v -0.16 H 72.8 72.64 v 0.16 0.16 h 0.16 0.16 z M 75.09333,57.066672 74.88,56.853334 V 57.28 57.706666 L 75.09333,57.493334 75.30667,57.28 75.09333,57.066666 Z m 34.56,0 L 109.44,56.853334 V 57.28 57.706666 l 0.21333,-0.213332 0.21334,-0.213334 -0.21334,-0.213334 z m -15.68,0 L 93.76,56.853334 93.54667,57.066666 93.33333,57.28 H 93.76 94.18667 L 93.97333,57.066666 Z M 88.32,56.8 V 56.64 H 88.16 88 v 0.16 0.16 h 0.16 0.16 z m 9.28,0 v -0.16 h -0.16 -0.16 v 0.16 0.16 h 0.16 0.16 z m 1.28,-0.469958 v -0.309956 l -0.48,0.184192 -0.48,0.184196 V 56.514237 56.64 h 0.48 0.48 z M 75.52,56.16 V 56 H 75.36 75.2 v 0.16 0.16 h 0.16 0.16 z m 32.32,0 V 56 h -0.16 -0.16 v 0.16 0.16 h 0.16 0.16 z M 89.6,55.84 V 55.68 H 89.44 89.28 V 55.84 56 h 0.16 0.16 z m 1.57532,-0.947238 0.90354,-0.467239 0.20057,0.200573 0.20057,0.20057 v -0.482224 -0.482228 l 1.2,-0.889136 1.2,-0.889139 -0.56637,0.190432 L 93.74727,52.4648 91.83363,53.764323 89.92,55.063846 V 55.211923 55.36 h 0.17589 0.17589 z m 18.79801,0.253904 -0.21333,-0.213332 -0.21333,0.213332 -0.21334,0.213334 h 0.42667 0.42667 z m -38.72,-0.32 L 71.04,54.613334 70.82667,54.826666 70.61333,55.04 H 71.04 71.46667 Z M 62.08,54.56 V 54.4 h -0.16 -0.16 v 0.16 0.16 h 0.16 0.16 z M 63.57333,54.186666 63.36,53.973334 V 54.4 54.826666 L 63.57333,54.613334 63.78667,54.4 Z M 94.9386,53.7 l -0.16808,-0.42 -0.0252,0.613334 -0.0253,0.613332 0.19333,-0.193332 L 95.10668,54.12 94.93861,53.7 Z m 6.1814,0.54 v -0.16 h -0.16 -0.16 v 0.16 0.16 h 0.16 0.16 z M 64.32292,53.283523 63.92748,52.807046 63.60958,53.003523 63.29167,53.2 l 0.43417,0.275101 0.43416,0.275097 0.27918,0.0049 0.27918,0.0049 z M 71.57333,52.906666 71.36,52.693334 V 53.12 53.546666 L 71.57333,53.333334 71.78667,53.12 Z m 25.3,0.34 -0.19333,-0.193332 -0.42,0.168071 -0.42,0.16807 0.61333,0.02525 0.61334,0.02528 -0.19334,-0.193334 z m 16.64,-0.32 -0.19333,-0.193332 -0.42,0.168071 -0.42,0.16807 0.61333,0.02525 0.61334,0.02528 -0.19334,-0.193334 z M 89.92,52.32 V 52.16 H 89.76 89.6 v 0.16 0.16 h 0.16 0.16 z M 106.92375,50.947917 106.504,50.808 l -0.3381,0.338096 -0.33809,0.338096 0.75784,-0.198179 0.75784,-0.198183 z M 61.33333,50.986666 61.12,50.773334 60.906666,50.986666 60.693334,51.2 H 61.12 61.54667 Z m 3.52,-0.32 L 64.64,50.453334 V 50.88 51.306666 L 64.85333,51.093334 65.06667,50.88 Z M 73.92,51.04 V 50.88 H 73.76 73.6 v 0.16 0.16 h 0.16 0.16 z m 0.64,0 V 50.88 H 74.4 74.24 v 0.16 0.16 h 0.16 0.16 z m 6.08,-0.16 V 50.56 H 80.30111 79.96223 L 80.16,50.88 80.35777,51.2 H 80.49889 80.64 Z m 20.8,-0.16 v -0.16 h -0.16 -0.16 v 0.16 0.16 h 0.16 0.16 z M 68.48,49.44 v -0.48 h -0.32 -0.32 v 0.48 0.48 h 0.32 0.32 z m 12.8,0 v -0.16 h -0.16 -0.16 v 0.16 0.16 h 0.16 0.16 z M 68.16,48.48 V 48.32 H 68 67.84 v 0.16 0.16 H 68 68.16 Z M 77.65333,48.106666 77.44,47.893334 V 48.32 48.746666 L 77.65333,48.533334 77.86667,48.32 Z M 106.88,48.498886 V 48.35777 l -0.36944,-0.228327 -0.36945,-0.228329 0.22833,0.369443 0.22833,0.369443 h 0.14112 0.14111 z m -22.08,-0.32 V 48.03777 L 84.48,47.84 84.16,47.64223 V 47.981114 48.32 h 0.32 0.32 z M 86.29333,48.106666 86.08,47.893334 85.86667,48.106666 85.65333,48.32 H 86.08 86.50667 Z M 99.2,47.52 v -0.16 h -0.16 -0.16 v 0.16 0.16 h 0.16 0.16 z M 71.84,46.72 72.03777,46.4 H 71.69889 71.36 v 0.32 0.32 h 0.14111 0.14112 z m 0.96,-0.96 0.19777,-0.32 H 72.65889 72.32 v 0.32 0.32 h 0.14111 0.14112 z m 1.4702,-1.656438 0.35365,-0.660794 -0.3502,0.216438 -0.35021,0.216439 -0.35364,0.660793 -0.35365,0.660794 0.3502,-0.216438 0.35021,-0.216439 z M 83.84,44.64 v -0.16 h -0.16 -0.16 v 0.16 0.16 h 0.16 0.16 z M 109.97333,44.586666 109.76,44.373334 109.54667,44.586666 109.33333,44.8 h 0.42667 0.42667 z M 69.12,44 V 43.84 H 68.96 68.8 V 44 44.16 h 0.16 0.16 z m 20.8,-0.32 V 43.52 H 89.76 89.6 v 0.16 0.16 h 0.16 0.16 z M 91.2,43.36 V 43.2 h -0.16 -0.16 v 0.16 0.16 h 0.16 0.16 z M 70.4,42.72 v -0.16 h -0.16 -0.16 v 0.16 0.16 h 0.16 0.16 z m 0.64,-0.32 v -0.16 h -0.16 -0.16 v 0.16 0.16 h 0.16 0.16 z m 31.04,-0.553418 V 41.521635 L 101.6,41.92 l -0.48,0.398365 v 0.110774 0.110775 l 0.48,-0.184192 0.48,-0.184196 z M 72,42.08 v -0.16 h -0.16 -0.16 v 0.16 0.16 H 71.84 72 Z M 91.41333,42.02667 91.2,41.813338 90.98667,42.02667 90.77333,42.240004 H 91.2 91.62667 Z m -15.04,-0.64 L 76.16,41.173334 75.94667,41.386666 75.73333,41.6 H 76.16 76.58667 Z M 104.64,40.16 V 40 h -0.16 -0.16 v 0.16 0.16 h 0.16 0.16 z M 91.89867,38.330666 91.52,37.952 v 0.330666 0.330668 L 91.73333,38.826666 91.94667,39.04 92.112,38.874666 92.27733,38.709334 Z M 90.24,38.578886 V 38.43777 L 89.87056,38.209443 89.50111,37.981114 89.72944,38.350557 89.95777,38.72 H 90.09889 90.24 Z M 79.36,37.6 V 37.44 H 79.2 79.04 v 0.16 0.16 h 0.16 0.16 z M 90.24,36.96 V 36.8 h -0.16 -0.16 v 0.16 0.16 h 0.16 0.16 z m -5.76,-1.92 0.39836,-0.48 h -0.32494 -0.32495 l -0.18419,0.48 -0.18419,0.48 h 0.11077 0.11078 z m 8.64,-0.96 V 33.92 H 92.96 92.8 v 0.16 0.16 h 0.16 0.16 z M 94.4,33.76 V 33.6 h -0.16 -0.16 v 0.16 0.16 h 0.16 0.16 z M 84.8,30.4 V 30.08 H 84.49889 84.19777 L 84,30.4 83.80223,30.72 H 84.30111 84.8 Z m 31.91011,66.4919 -0.49848,-1.6919 -0.0258,1.52 -0.0258,1.52 h -0.52 -0.52 l 0.2,-1 0.2,-1 v -1.26346 -1.26347 l 0.52149,0.10347 0.52149,0.10346 0.51851,1.72019 0.51851,1.7202 0.69247,-1.6402 0.69247,-1.64019 h 0.54753 0.54753 l -0.2,1 -0.2,1 v 1.24 1.24 h -0.32 -0.32 l -0.0179,-1.52 -0.0179,-1.52 -0.57786,1.42525 -0.57786,1.42524 -0.31996,0.10666 -0.31997,0.10665 -0.49848,-1.6919 z m 48.09627,1.1076 -1.11362,-0.5595 -0.72638,-1.08732 -0.72638,-1.08733 v -0.94431 -0.94432 l 0.48517,-1.02242 0.48517,-1.02242 0.9242,-0.54594 0.92421,-0.54594 h 1.87561 1.87562 l 1.11501,0.58714 1.11501,0.58714 0.5595,1.09286 0.5595,1.09286 6.4e-4,0.89589 6.4e-4,0.89589 -0.49553,0.95826 -0.49554,0.95826 -1.02446,0.62465 -1.02447,0.62466 -1.6,6.4e-4 -1.6,6.4e-4 -1.11362,-0.5595 z m 5.44487,-1.52532 0.93948,-0.48582 0.21384,-0.852 0.21384,-0.85201 -0.46083,-0.82218 -0.46083,-0.82217 -0.94539,-0.45437 -0.94539,-0.45438 -1.45212,-0.13953 -1.45212,-0.13953 -1.19015,0.49728 -1.19015,0.49728 -0.37795,0.82952 -0.37796,0.82952 0.30067,0.8671 0.30067,0.86711 1.11657,0.5595 1.11657,0.5595 1.85589,6.4e-4 1.85589,6.4e-4 0.93947,-0.48582 z m -57.48416,-0.0882 0.21926,-1.93805 -0.66585,-0.10398 -0.66585,-0.10398 0.0127,-0.32 0.0127,-0.32 0.32,0.032 0.32,0.032 1.44,0.048 1.44,0.048 v 0.32 0.32 h -0.78403 -0.78403 l -0.096,1.81472 -0.096,1.81472 -0.44609,0.14731 -0.44608,0.14731 0.21926,-1.93805 z M 0.637725,95.59205 l -0.0022,-0.71208 -0.203997,-2.16 -0.204,-2.16 H 1.081179 1.93483 l -0.50934,0.77735 -0.509341,0.77735 0.101961,1.06265 0.101965,1.06265 1.249498,0.10227 1.249494,0.10226 0.750506,-0.18836 0.750502,-0.18836 -0.0019,-0.55391 -0.0019,-0.5539 -0.478029,-0.91658 -0.478028,-0.91658 v -0.0871 -0.0871 L 5.100246,90.81464 6.040275,90.67667 5.740246,91.23729 5.440218,91.7979 v 1.14103 1.14104 l 0.88,-0.004 0.88,-0.004 1.226937,-0.20272 1.226938,-0.20272 -0.214419,-1.14295 -0.21442,-1.14296 -0.634307,-0.8908 -0.63431,-0.89081 h 0.802905 0.802906 l 0.138067,0.24 0.138067,0.24 0.22537,2.66936 0.22537,2.66936 L 9.65024,95.21489 9.011155,95.01205 5.615021,95.35751 2.21889,95.70296 1.429552,96.00307 0.640218,96.30317 0.638018,95.59109 Z M 97.28,88.99777 v -0.32 L 97.6,88.48 97.92,88.28223 v 0.32 0.32 L 97.6,89.12 97.28,89.31777 Z M 162.73152,86.8 l -0.20854,-1.52 0.41851,-1.2683 0.41851,-1.2683 1.08732,-0.7317 1.08733,-0.7317 h 1.79766 1.79767 l 1.09029,0.58473 1.09028,0.58472 0.59374,1.09528 0.59375,1.09527 -0.089,1.6 -0.089,1.6 -0.77621,0.10962 -0.77622,0.10962 0.53622,-0.81836 0.53621,-0.81836 v -0.94281 -0.94282 l -0.96152,-0.80907 -0.96152,-0.80906 -1.38124,-0.20713 -1.38122,-0.20713 -1.32009,0.35546 -1.32009,0.35547 -0.65716,0.83544 -0.65716,0.83544 v 0.78745 0.78744 l 0.66179,0.9294 0.66179,0.9294 h -0.79176 -0.79176 z M 6.72,87.62018 4.32,87.32338 2.16,87.45896 0,87.59455 V 86.74282 85.89108 L 3.876285,84.4933 7.752573,83.09552 5.876285,82.25325 4,81.41099 2.165462,80.62549 0.330922,79.84 l -0.0055,-0.872 -0.0055,-0.872 1.04,0.22838 1.04,0.22838 3.759782,0.004 3.759779,0.004 2.21e-4,0.90157 2.18e-4,0.90156 -0.56,-0.16337 -0.56,-0.16336 -3.36,-0.21833 -3.36,-0.21833 0.23774,0.25121 0.237741,0.2512 3.424368,1.49526 3.424368,1.49525 0.111664,0.33499 0.111664,0.33499 -3.933773,1.45997 -3.933772,1.45997 2.24,0.0943 2.24,0.0943 1.68,-0.0579 1.68,-0.0579 v 0.62237 0.62237 l -0.24,-0.0415 -0.24,-0.0415 -2.4,-0.29679 z m 96,-2.98018 v -0.16 h 0.16 0.16 v 0.16 0.16 h -0.16 -0.16 z m 14.74732,-8.42896 -0.3248,-0.60689 0.20207,-0.20208 0.20208,-0.20207 h 0.22934 0.22935 l 0.16728,0.63968 0.16728,0.63968 -0.27391,0.16928 -0.2739,0.16929 z M 9.581526,76.1587 9.083053,75.87706 5.98497,75.37853 2.88689,74.88 H 1.802416 0.717946 L 1.10561,72.81709 1.49327,70.75418 1.905818,70.25709 2.318365,69.76 H 3.399181 4.48 l 0.64,0.64 0.64,0.64 v 0.36316 0.36315 L 6.423226,70.92316 7.086451,70.08 H 8.293629 9.500806 L 10.030403,70.6652 10.56,71.25039 10.5281,73.1452 10.4962,75.04 10.288098,75.74017 10.079995,76.44035 9.581522,76.1587 Z M 10.045763,74.05383 10.24,73.54766 V 73.09383 72.64 L 9.6,72 8.96,71.36 H 8.018144 7.076291 L 6.578144,72.0712 6.08,72.7824 v 0.70755 0.70754 l 0.88,0.13331 0.88,0.13331 1.005763,0.0479 1.005763,0.048 z M 5.44,72.97814 V 72.03629 L 4.728797,71.53814 4.017597,71.04 H 3.306944 2.596291 L 2.098144,71.7512 1.6,72.4624 v 0.54948 0.54949 l 1.2,0.12552 1.2,0.12552 0.72,0.0538 0.72,0.0538 z m 160.59043,1.98186 0.29294,-0.56 -0.158,-1.04 -0.15801,-1.04 h -0.53394 -0.53394 l -1.66462,0.4318 -1.6646,0.43179 -0.16513,-0.16513 L 161.28,72.85333 V 72.10667 71.36 l 1.36,-0.004 1.36,-0.004 2.88,-0.60155 2.88,-0.60155 0.45621,-0.11424 0.45621,-0.11426 0.42127,2.4 0.42127,2.4 -0.14744,0.4 -0.14743,0.4 h -0.66131 -0.6613 l 0.33126,-0.61896 0.33126,-0.61896 -0.005,-1.06104 -0.005,-1.06104 -0.2351,-0.34438 -0.2351,-0.34439 -1.76,0.34439 -1.76,0.34438 0.10959,0.96 0.10959,0.96 0.45111,0.50597 0.4511,0.50597 -0.21402,0.21403 -0.21404,0.21403 h -0.75792 -0.75793 l 0.29295,-0.56 z M 11.008682,68.48068 10.700032,68.17203 6.919613,67.18345 3.139194,66.19486 2.689597,66.36739 2.24,66.53991 V 66.37838 66.21684 L 2.921405,63.5 3.60281,60.783155 4.281405,60.99133 4.96,61.19951 l 0.140694,0.1276 0.140695,0.12761 -0.676205,0.47363 -0.676205,0.47363 -0.376384,1.14045 -0.376381,1.14045 0.158791,0.15879 0.158793,0.15879 1.698221,0.44798 1.698218,0.44799 L 7.02512,65.72155 7.2,65.54667 V 63.97333 62.4 h 0.05917 0.05917 l 0.863066,0.32814 0.863062,0.32813 -0.518432,0.57286 -0.518432,0.57286 -0.188867,0.94435 -0.188871,0.94435 1.916586,0.51353 1.916582,0.51352 0.304343,-1.19901 0.304342,-1.19901 L 11.65131,63.71986 11.2309,62.72 h 0.123718 0.123722 l 0.79367,0.30175 0.793671,0.30175 -0.697722,2.55647 -0.697718,2.55646 -0.176451,0.17645 -0.176452,0.17645 z M 161.7339,68.16997 161.0678,67.9005 160.2139,66.8857 159.36,65.8709 v -1.56478 -1.56479 l 1.06291,-1.06291 1.06291,-1.062906 1.29422,-0.387757 1.29421,-0.387757 h 0.82204 0.82205 l 0.7901,0.300397 0.7901,0.300397 0.67623,0.725856 0.67624,0.72585 0.3236,1.20176 0.3236,1.20176 -0.20564,0.81935 -0.20565,0.81935 -0.92251,0.87071 -0.92252,0.8707 -1.04094,0.37759 -1.04095,0.37759 -1.28,0.004 -1.28,0.004 -0.6661,-0.26947 z m 4.74621,-1.9923 1.3563,-0.74818 0.41926,-0.87474 0.41925,-0.87475 -0.41746,-0.87064 -0.41746,-0.87063 -0.8,-0.42251 -0.8,-0.42251 -1.36551,0.16778 -1.36552,0.16778 -1.03448,0.52279 -1.03449,0.5228 -0.72,0.65835 -0.72,0.65835 v 1.04099 1.041 l 0.88,0.69684 0.88,0.69685 1.68191,-0.1707 1.6819,-0.17069 z M 102.56,66.56 102.36223,66.24 h 0.51777 0.51777 L 103.2,66.56 103.00223,66.88 H 102.88 102.75777 Z m 2.08,-1.76 v -0.16 h 0.16 0.16 v 0.16 0.16 h -0.16 -0.16 z m 2.40999,-0.5738 -0.24906,-0.5738 0.19954,-0.19953 0.19953,-0.19954 0.18829,0.18829 0.18828,0.18829 -0.13876,0.58504 L 107.29905,64.8 Z M 104.96,63.84 v -0.16 h 0.16 0.16 V 63.84 64 h -0.16 -0.16 z m 1.28,-0.8 0.34252,-0.64 h 0.32 0.32 l -0.34252,0.64 -0.34252,0.64 h -0.32 -0.32 z m 1.28,-0.48 V 62.4 h 0.16 0.16 v 0.16 0.16 h -0.16 -0.16 z m -0.21333,-0.69333 0.21333,-0.21334 0.21333,0.21334 0.21334,0.21333 H 107.52 107.09333 Z M 12.906682,61.41868 12.56536,61.07736 9.14137,59.818682 5.717379,58.56 H 5.064 4.410618 L 4.620269,57.724688 4.82992,56.889376 5.491664,55.481571 6.153411,54.07377 6.916704,53.882195 7.68,53.690618 l 0.821088,0.20608 0.821088,0.20608 0.469091,1.122697 0.469091,1.122698 -0.189062,0.305913 L 9.88223,56.96 h 0.369636 0.369635 l 1.809248,-0.520054 1.809251,-0.520058 0.863187,-0.439469 0.863187,-0.439465 -0.332988,0.955212 -0.332989,0.955216 -1.170199,0.30962 L 12.96,57.570618 11.44,57.97168 9.92,58.372739 v 0.223549 0.223552 l 1.497005,0.51008 1.497005,0.51008 h 0.60456 0.60456 l -0.217533,0.72 -0.21753,0.72 -0.220032,0.24 L 13.248,61.76 Z M 9.482358,57.385158 9.696909,56.530317 8.830611,55.785158 7.96431,55.04 H 7.365382 6.766451 L 6.103226,55.883155 5.44,56.72631 v 0.206711 0.206713 l 1.36,0.511629 1.36,0.511632 0.553904,0.0385 0.553904,0.0385 z M 111.68,61.42111 V 61.08223 L 112,61.28 l 0.32,0.19777 V 61.61889 61.76 H 112 111.68 Z M 114.56,59.2 v -0.32 h 0.32 0.32 v 0.32 0.32 h -0.32 -0.32 z M 156.53026,56.733917 156.16,56.042074 v -0.312925 -0.312928 l 1.28,-2.220131 1.28,-2.220132 v -0.214483 -0.214483 l -1.36,0.682618 -1.36,0.682614 -0.66623,0.609158 -0.66624,0.609159 -0.37783,-0.829251 -0.37783,-0.829248 0.18295,-0.296023 0.18295,-0.296019 h 0.42113 0.42113 l 3.15998,-1.46511 3.15999,-1.465108 0.53908,-0.485548 0.53907,-0.485549 0.82093,1.620019 0.82092,1.620019 v 0.921043 0.92104 l -0.56,0.491748 -0.56,0.491747 -0.73107,0.222928 -0.73107,0.222925 -1.09103,-0.643725 -1.09104,-0.643728 -0.83935,1.432249 -0.83936,1.432253 -0.40828,1.17928 -0.40828,1.179277 z M 162.4888,51.661856 163.2,51.163709 163.195,50.301856 163.19,49.44 l -0.2711,-0.42769 -0.2711,-0.427686 -1.644,0.833078 -1.644,0.833079 v 0.243408 0.243408 l 0.49814,0.7112 0.49836,0.711203 h 0.71065 0.71066 l 0.7112,-0.498144 z m -58.96557,4.012925 0.20099,-0.325219 0.29789,0.184105 0.29789,0.184103 V 55.858886 56 h -0.49889 -0.49888 z M 80.64,55.52 v -0.16 h 0.16 0.16 v 0.16 0.16 H 80.8 80.64 Z m 23.04,-1.6 v -0.16 h 0.16 0.16 v 0.16 0.16 h -0.16 -0.16 z M 80.32,53.6 v -0.16 h 0.16 0.16 v 0.16 0.16 h -0.16 -0.16 z m 27.2,-0.32 v -0.16 h 0.16 0.16 v 0.16 0.16 h -0.16 -0.16 z M 83.62667,52.266666 83.84,52.053334 84.05333,52.266666 84.26667,52.48 H 83.84 83.41333 Z M 109.12,51.68 v -0.16 h 0.16 0.16 v 0.16 0.16 h -0.16 -0.16 z M 69.54667,51.306666 69.76,51.093334 69.97333,51.306666 70.18667,51.52 H 69.76 69.33333 Z M 96,50.72 v -0.16 h 0.16 0.16 v 0.16 0.16 H 96.16 96 Z m -39.335654,-0.88 0.02435,-0.72 0.383446,-1.058349 0.383446,-1.058349 1.09706,-1.122012 1.097062,-1.122016 0.575146,0.150406 0.575148,0.150403 V 44.602122 44.14416 l 0.752556,-0.286122 0.75256,-0.286121 0.68744,-1.462471 0.68745,-1.46247 V 39.99321 39.339443 l 0.44024,-1.053654 0.44025,-1.053658 1.23975,-1.026893 1.23976,-1.026892 0.8,-0.203104 0.8,-0.203104 1.68,-0.742036 1.68,-0.742032 v 0.161357 0.161354 L 73.58937,32.805392 75.17873,32 l 0.57064,0.01152 0.57064,0.01152 -0.88,0.720512 -0.88,0.720512 v 0.547978 0.54798 h -0.89884 -0.89884 l -0.55449,0.40545 -0.55448,0.40545 -0.45294,0.79455 -0.45293,0.79455 -0.30365,0.661671 -0.30364,0.66167 -1.7901,0.42944 -1.79009,0.429437 v 0.394656 0.394653 l -0.4345,0.166733 -0.4345,0.166732 -0.18443,0.922154 -0.18443,0.922154 -0.82107,0.439424 -0.82107,0.439424 v 0.745926 0.745926 l -0.88,0.04358 -0.88,0.04358 0.72,0.138678 0.72,0.138678 v 0.332436 0.332435 l -0.82682,-0.207517 -0.82681,-0.207517 0.23931,0.387207 0.23931,0.387206 -0.52866,-0.202864 -0.52866,-0.202864 0.0341,0.228483 0.0341,0.228483 -0.0379,0.56 L 61.12,47.04 h -0.48 -0.48 v 0.656646 0.656647 L 59.221114,48.680589 58.28223,49.007888 57.773738,49.783942 57.265245,50.56 H 56.952624 56.64 l 0.02435,-0.72 z M 14.22913,49.15199 13.258259,48.72903 12.241293,47.712064 11.22433,46.695098 l -0.203866,-1.086692 -0.203866,-1.086691 0.373063,-1.130384 0.373059,-1.130387 1.003856,-0.844688 1.003859,-0.844691 1.678141,0.139165 1.678141,0.139164 1.223353,0.847786 1.223354,0.847782 0.55329,0.936644 0.553286,0.93664 -0.0022,1.230627 -0.0022,1.230627 -0.618611,0.938422 -0.618615,0.938426 -0.73928,0.410237 -0.739276,0.410237 -1.28,-0.0013 -1.28,-0.0013 -0.970871,-0.42296 z M 19.207718,47.437504 19.84,46.63369 V 46.180954 45.728218 L 19.353088,44.786634 18.866176,43.845053 17.193088,42.88553 15.52,41.926006 l -1.310403,-0.0029 -1.310403,-0.0029 -0.480957,0.56 -0.480957,0.56 -0.209798,0.589194 -0.209802,0.589197 0.5228,1.101718 0.5228,1.101719 1.424595,0.834867 1.424592,0.834867 1.013767,0.215238 1.013766,0.215239 0.567718,-0.140362 0.567722,-0.140358 0.632278,-0.803815 z M 151.54325,47.187466 150.08,44.777299 V 44.66865 44.56 l 0.88,-0.181706 0.88,-0.181705 2.86559,-1.806839 2.8656,-1.806835 0.36307,-0.496534 0.36307,-0.496535 1.5072,2.482551 1.50719,2.48255 -0.0959,0.07918 -0.0959,0.07918 -0.76334,0.397798 -0.76334,0.397799 0.21013,-0.837216 0.21013,-0.837213 -0.48451,-0.936947 -0.48452,-0.936948 -0.31779,-0.196406 -0.3178,-0.196406 -1.44448,0.846521 -1.44448,0.846522 v 0.145485 0.145484 l 0.47649,0.921431 0.47649,0.92143 0.70333,0.223229 0.70333,0.223229 -0.60098,0.439449 -0.60098,0.43945 -0.17884,-0.0013 -0.17884,-0.0013 -0.5917,-1.4388 -0.5917,-1.4388 h -0.28349 -0.28349 l -1.58502,0.975264 -1.585,0.975267 0.63674,1.079197 0.63674,1.079197 0.99535,0.346979 0.99535,0.346982 -0.13189,0.11521 -0.13189,0.115213 -0.69675,0.362163 -0.69675,0.362163 -1.46325,-2.410169 z M 75.2,46.4 V 45.973334 L 75.41333,46.186666 75.62667,46.4 75.41333,46.613334 75.2,46.826666 Z M 63.68,45.6 V 45.44 H 63.84 64 v 0.16 0.16 H 63.84 63.68 Z M 75.96944,45.070557 75.74111,44.701114 76.11056,44.929443 76.48,45.15777 V 45.298886 45.44 H 76.33889 76.19777 Z M 93.12,45.12 V 44.693334 L 93.33333,44.906666 93.54667,45.12 93.33333,45.333334 93.12,45.546666 Z m 2.56,-0.96 v -0.32 h 0.33889 0.33888 L 96.16,44.16 95.96223,44.48 H 95.82111 95.68 Z M 22.345587,42.303555 21.92,41.705859 19.201203,39.69505 l -2.7188,-2.010807 -0.741286,-0.28184 -0.74129,-0.281837 0.980439,-1.360281 0.980438,-1.360285 0.748538,-0.933942 0.748537,-0.933946 0.70881,0.49647 0.708809,0.496471 -0.998915,0.348224 -0.998915,0.348224 -0.608138,0.729248 -0.608137,0.729251 -3.2e-4,0.32 -3.2e-4,0.32 1.509683,1.036234 1.50968,1.03623 0.560954,-0.71623 0.56095,-0.716234 0.193738,-0.72 0.19374,-0.72 h 0.246125 0.246128 l 0.36608,0.441101 0.366083,0.441101 -1.178419,1.178419 -1.178419,1.178419 1.547846,1.10048 1.547847,1.10048 h 0.423673 0.423674 v 0.189526 0.189527 l -0.614413,0.781101 -0.614413,0.781097 -0.425587,-0.597696 z M 148.58467,42.148659 147.88934,41.76 l -1.20505,-1.579875 -1.20504,-1.579875 0.35301,-0.117668 0.353,-0.11767 2.91105,-2.096659 2.91105,-2.096663 0.61092,-0.776665 0.61093,-0.776666 1.30539,1.822963 1.3054,1.822964 V 37.012093 37.76 l -0.64,0.64 -0.64,0.64 h -1.056 -1.056 l -0.39269,-0.392694 -0.3927,-0.392698 0.35209,1.010016 0.35209,1.010013 -0.39566,0.742681 -0.39567,0.742682 -0.50773,0.389824 -0.50773,0.389821 -0.64,-0.0013 -0.64,-0.0013 -0.69533,-0.388663 z m 2.00594,-1.613817 0.8663,-0.745159 -0.19456,-0.774841 -0.19455,-0.774842 -0.4139,-0.562496 -0.4139,-0.562499 -1.56597,1.115133 -1.56597,1.115132 -0.11721,0.11721 -0.11721,0.11721 0.7879,0.850153 0.7879,0.850157 h 0.63744 0.63743 z m 3.21831,-2.925053 0.67132,-0.470211 0.17022,-0.650957 0.17023,-0.650957 -0.56691,-0.700118 -0.56693,-0.700116 -1.40342,1.083012 -1.40343,1.083008 -0.13137,0.09631 -0.13137,0.09631 0.58096,0.641961 0.58097,0.641962 h 0.6792 0.67921 z m -9.90484,-1.236906 -0.48953,-0.747117 0.85272,-0.511664 0.85273,-0.511667 2.08,-2.121696 2.08,-2.121696 -1.6,0.63489 -1.6,0.634889 -2.36401,0.985588 L 141.35197,33.6 H 141.23599 141.12 v -0.367846 -0.367847 l 1.6,-3.485955 1.6,-3.485955 V 25.675443 25.45849 l -2.11555,2.070755 -2.11555,2.070755 -0.55373,0.881248 -0.55372,0.881251 -0.54738,-0.604854 -0.54739,-0.604855 1.06486,-0.658118 1.06486,-0.658118 2.3118,-2.38417 2.3118,-2.384173 v -0.409885 -0.409888 l 0.76847,0.721946 0.76848,0.721942 -1.60078,3.514864 -1.60078,3.514864 0.15007,0.150071 0.15007,0.15007 3.61775,-1.481731 3.61775,-1.481731 0.55967,0.741971 0.55967,0.741968 -0.85519,0.368278 -0.85518,0.368282 -2.48,2.563635 -2.48,2.563639 V 36.763251 37.12 h -0.2832 -0.28319 z M 87.36,35.36 V 35.2 h 0.16 0.16 v 0.16 0.16 H 87.52 87.36 Z M 30.592749,32.743178 30.404998,32.151632 27.503971,29.275814 24.602944,26.4 23.981472,27.15545 23.36,27.910902 V 28.67545 29.44 h -0.280819 -0.280816 l -0.413715,-0.498496 -0.413719,-0.498499 2.66944,-2.683376 2.669437,-2.683379 0.585098,0.313132 L 28.48,23.702518 V 24.011258 24.32 H 27.71545 26.950902 L 26.19545,24.950586 25.44,25.581171 28.32,28.390586 31.2,31.2 l 0.58535,0.320403 0.585351,0.320403 -0.795101,0.74696 -0.795101,0.74696 z M 75.97127,31.313523 75.8107,31.053712 76.52553,30.086854 77.24036,29.12 h 0.76057 0.76058 l -0.88175,1.226666 -0.88174,1.226668 h -0.43309 -0.43308 z m 60.40843,-2.379472 -0.74031,-0.518784 0.45067,-0.527635 0.45066,-0.527632 0.52266,-1.349037 0.52266,-1.349037 -1.06322,-0.810963 L 135.45959,23.04 h -0.34528 -0.34529 l -1.41525,1.080288 -1.41525,1.080285 -0.52926,-0.296186 L 130.88,24.608198 V 24.304099 24 h 0.38778 0.38778 l 3.93055,-2.24 3.93056,-2.24 h 0.48166 0.48167 v 0.384458 0.384454 l -1.45782,4.015546 -1.45782,4.015542 -0.22218,0.566419 -0.22218,0.566416 z m 2.16094,-6.804739 0.67421,-1.710691 -1.20742,0.720032 -1.20743,0.720035 -0.42538,0.387466 -0.42538,0.387465 0.87423,0.687671 0.87423,0.687673 0.0844,-0.08448 0.0844,-0.08448 z M 79.04,28.8 V 28.373334 L 79.25333,28.586666 79.46667,28.8 79.25333,29.013334 79.04,29.226666 Z m 1.68996,-0.346243 0.0502,-0.666243 0.54674,-0.292612 0.54675,-0.292608 0.50318,0.193088 0.50318,0.193092 V 27.8508 28.113126 L 81.87085,28.616563 80.86168,29.12 h -0.0909 -0.0909 z M 34.650483,28.08 34.31824,27.36 l -2.270736,-2.762547 -2.270736,-2.762544 -0.525971,-0.201834 -0.525968,-0.201837 0.854435,-0.672099 0.854438,-0.672102 0.07375,0.116483 0.07375,0.11648 0.407651,0.8 0.407654,0.8 0.787725,0.904794 0.787728,0.904793 1.59009,-1.331299 1.590093,-1.331299 -0.847901,-1.111651 -0.847898,-1.111655 -0.668169,-0.47848 -0.66817,-0.478477 0.780451,-0.643606 0.780451,-0.643606 0.468512,0.900243 0.468516,0.900243 1.875449,2.300246 1.87545,2.300247 0.778393,0.612285 0.778394,0.612284 -0.91152,0.673917 -0.911517,0.673914 -0.181024,-0.721255 -0.181024,-0.721257 -1.081568,-1.251187 -1.081565,-1.251188 -1.652662,1.315872 -1.652666,1.315869 1.59673,1.747079 1.59673,1.747075 L 35.887568,28.27695 35.309606,28.8 H 35.146166 34.98273 Z M 129.12,23.623075 l -0.64,-0.357462 -0.12849,-0.107959 -0.12848,-0.107958 0.83419,-0.834186 0.83418,-0.834185 0.6345,-1.075399 0.6345,-1.075395 -1.61743,-0.995216 -1.61743,-0.995216 -0.3871,0.148544 -0.38709,0.148544 -0.91918,1.75561 -0.91918,1.755613 -0.7365,-0.335572 L 123.84,20.37727 v -0.21904 -0.219036 l 0.6162,-0.557652 0.61619,-0.557651 1.78381,-2.813837 1.7838,-2.813836 V 12.678109 12.16 h 0.41884 0.41884 l 0.58145,0.425165 0.58145,0.425168 -0.8077,0.807693 -0.80769,0.807692 -0.51513,0.996144 -0.51512,0.996144 1.68253,1.093277 1.68253,1.093274 0.54498,-0.682279 0.54498,-0.682278 0.54362,-1.2 0.54362,-1.2 h 0.21024 0.21024 l 0.62116,0.45623 0.62116,0.456231 -0.81965,0.903769 -0.81965,0.90377 -1.66035,2.578547 -1.66035,2.578551 V 23.458547 24 L 130,23.9903 129.76,23.9806 129.12,23.623138 Z M 41.92,22.498547 V 21.957098 L 40.259648,19.378547 38.599296,16.8 l -0.79632,-0.876662 -0.79632,-0.876663 0.156538,-0.156534 0.156537,-0.156538 1.990931,-1.286803 1.990932,-1.2868 h 0.297945 0.297943 l 0.348505,0.651184 0.348503,0.651187 -1.057245,-0.07111 -1.057245,-0.07111 -0.88,0.576727 -0.88,0.576729 v 0.175181 0.175184 l 0.992608,1.546845 0.992608,1.546845 0.927392,-0.547824 L 42.56,16.82201 42.5649,16.651005 42.5698,16.48 l 0.302464,-0.478442 0.302464,-0.478441 0.482458,0.638441 0.482457,0.638442 0.01018,0.24 0.01018,0.24 h -0.728797 -0.7288 l -0.7112,0.498144 -0.711203,0.498147 v 0.239203 0.239207 l 0.958618,1.511581 0.958617,1.511584 0.986592,-0.510186 0.986592,-0.510189 0.473536,-1.133331 0.473536,-1.133334 0.09791,0.114585 0.09791,0.114589 0.362666,0.697693 0.362665,0.697689 -2.346179,1.462311 L 42.346269,23.04 H 42.13313 41.919987 v -0.541453 z m 78.54676,-4.220038 -1.29324,-0.587437 -0.86676,-1.03009 L 117.44,15.630896 V 14.47648 13.322064 l 0.67276,-1.389731 0.67276,-1.389735 1.03744,-0.791299 L 120.86041,8.96 h 1.54168 1.54168 l 1.39119,0.815293 1.39119,0.815289 -0.37304,0.697034 -0.37304,0.697034 -0.35003,-0.604247 L 125.28,10.77616 124.72,10.18808 124.16,9.6 h -1.09545 -1.09545 l -1.03008,0.866762 -1.03009,0.866761 -0.58744,1.293239 -0.58744,1.293238 -0.007,1.064614 -0.007,1.064618 0.96301,0.963002 0.963,0.963004 1.30593,-0.220633 1.30592,-0.220634 -0.36019,0.673015 -0.36018,0.673014 -0.38874,-0.007 -0.38875,-0.007 -1.29323,-0.587437 z M 51.626742,16.69039 51.416154,15.84 50.15847,12.8 48.900787,9.76 48.448192,9.252368 47.995594,8.744736 48.853062,8.354048 49.710528,7.96336 52.461594,10.70168 55.212662,13.44 h 0.279002 0.279002 L 55.54728,9.620922 55.323894,5.80184 55.960909,5.460922 56.597926,5.12 H 56.938963 57.28 V 5.797382 6.474768 L 58.75,9.957382 60.22,13.44 h 0.29 0.29 v 0.249843 0.249843 l -0.96,0.362362 -0.96,0.362358 V 14.055952 13.447494 L 57.728477,10.643747 56.576954,7.84 56.26087,7.52 55.944784,7.2 l 0.226307,4.197197 0.226307,4.197197 -0.32767,0.202512 -0.327667,0.202512 L 52.83103,12.92351 49.92,9.847606 v 0.192448 0.192452 l 1.153638,2.803747 1.153636,2.803747 0.446364,0.505197 0.446362,0.505197 v 0.177481 0.177482 l -0.641334,0.167712 -0.641335,0.167712 z M 108.8,13.414454 l -1.76,-0.61878 -0.43604,-0.161623 -0.43604,-0.161625 0.3132,-0.396212 L 106.79433,11.68 107.95716,8.159398 109.12,4.6388 V 3.956064 3.273325 l 2.64,0.801741 2.64,0.80174 0.0956,0.08384 0.0956,0.08384 -0.21535,0.858026 -0.21536,0.858025 -0.84022,-0.982496 -0.84022,-0.982499 -1.01276,-0.19232 -1.01275,-0.19232 -0.56446,1.790672 -0.56446,1.790669 0.2034,0.203401 0.2034,0.203402 1.45186,0.04048 1.45186,0.04048 0.002,0.373827 0.002,0.373831 -0.18953,0.493916 -0.18954,0.493914 -0.85046,-0.600739 -0.85047,-0.600743 -0.68689,-0.198057 -0.68689,-0.198058 -0.65011,1.925098 -0.65012,1.925101 1.25795,0.376889 1.25795,0.37689 0.84041,-0.382915 0.84041,-0.382916 0.14457,0.144573 0.14458,0.144576 -0.35719,0.667405 -0.35719,0.667408 -0.54873,-0.02339 -0.54875,-0.02339 -1.76,-0.618784 z M 61.59469,12.4 61.77837,11.36 62.19263,7.432554 62.60689,3.505107 62.97811,3.133888 63.34933,2.762666 63.4682,2.901334 63.58706,3.04 l 2.30822,3.46175 2.30822,3.461748 0.64492,0.644918 0.64491,0.644918 -0.10666,0.09595 -0.10667,0.09595 -1.04,0.222807 -1.04,0.222806 v -0.547654 -0.547655 l -0.69557,-1.157772 -0.69557,-1.15777 -0.0953,-0.124157 -0.0953,-0.124157 -1.47432,0.412788 -1.47433,0.412787 0.10515,2.028608 0.10515,2.028611 -0.42617,0.162762 -0.42617,0.162758 H 61.71924 61.41091 Z M 65.0082,7.726288 65.2164,7.52 64.1282,5.92592 63.04,4.331843 63.036,5.60592 63.032,6.88 62.82972,7.63567 62.62744,8.391344 63.71409,8.161958 64.80074,7.932573 65.00894,7.726288 Z M 101.76483,7.380698 100.00966,2.923674 99.88561,3.047718 99.76157,3.171763 99.1734,5.985882 98.58523,8.8 l -0.0126,1.010042 -0.0126,1.010041 -0.6581,-0.172096 -0.6581,-0.172096 L 97.4463,9.957946 97.64876,9.44 98.44657,5.920835 99.24437,2.40167 99.10185,1.656093 98.95932,0.910518 l 0.8397,0.210752 0.8397,0.210752 0.0567,0.05666 0.0567,0.05666 1.34451,3.517331 1.34451,3.517331 0.22749,0.252003 0.22749,0.252003 0.53199,-2.421097 0.532,-2.421098 V 3.16744 2.193072 l 0.56,0.115725 0.56,0.115725 -0.0754,0.467737 -0.0753,0.467741 -0.76412,3.416755 -0.76412,3.416759 -0.20662,0.823241 -0.20662,0.823245 -0.23391,-0.0013 -0.2339,-0.0013 -1.75517,-4.457024 z M 70.48876,10.575149 70.6655,9.899299 69.89313,6.309648 69.12076,2.72 69.04038,2.24 68.96,1.76 l 0.92402,-0.105504 0.92402,-0.105501 -0.18016,0.469504 -0.18016,0.469504 0.74579,3.796 0.74579,3.795997 0.11035,0.48 0.11035,0.48 -0.92399,0.105501 -0.92399,0.105501 z M 74.27446,8.522838 74.25386,6.56 73.95786,4.32 73.66187,2.08 73.43671,1.52 73.21155,0.96 h 0.32807 0.32806 l 0.42777,-0.164147 0.42776,-0.164151 2.69539,3.360503 2.69539,3.360502 0.0752,-0.07635 0.0752,-0.07635 L 79.94907,4.335729 79.63375,1.47145 79.32564,0.895729 79.0175,0.32 h 0.81735 0.81736 l -0.16435,0.72 -0.16436,0.72 0.43272,4 0.43272,4 -0.0932,0.112045 -0.0932,0.112041 -0.3329,-0.205737 -0.33289,-0.205741 -2.8884,-3.534397 -2.88839,-3.5344 0.003,0.748093 0.003,0.748096 0.29559,2.56 0.2956,2.56 0.20007,0.517946 0.20008,0.517945 -0.63056,0.164893 -0.63055,0.164893 -0.0206,-1.962839 z M 93.88951,10.044573 93.53902,9.899674 93.98109,8.229837 94.42316,6.56 l 0.0684,-3.044563 0.0684,-3.04456 1.01967,0.117197 1.01967,0.1172 -0.27688,0.728246 -0.27688,0.72825 -0.3779,3.250595 -0.3779,3.250598 0.15074,0.788519 L 95.59121,10.24 94.91559,10.21475 94.23996,10.1895 93.88947,10.044598 Z M 88.21292,9.68368 86.66583,9.56272 86.90456,9.02136 87.1433,8.48 87.34562,5.12 87.54794,1.76 87.31631,0.88 87.08468,0 h 1.13189 1.1319 l -0.24003,0.56 -0.24004,0.56 -0.24186,3.84 -0.24186,3.84 0.14654,0.24 0.14655,0.24 h 0.87995 0.87996 L 91.05884,8.810176 91.68,8.340355 l 0.24,-0.01018 0.24,-0.01018 v 0.8 0.8 l -1.2,-0.05768 -1.2,-0.05768 z"
     style="fill:#337639;stroke-width:0.31999999" />
</svg>
